Aileron-UltraLight.ufo
<glyph name="exclam" format="1">
  <advance width="202"/>
  <unicode hex="0021"/>
  <outline>
    <contour>
      <point x="111" y="110" type="line"/>
      <point x="91" y="110" type="line"/>
      <point x="87" y="690" type="line"/>
      <point x="115" y="690" type="line"/>
    </contour>
    <contour>
      <point x="101" y="26" type="curve" smooth="yes"/>
      <point x="112" y="26"/>
      <point x="121" y="17"/>
      <point x="121" y="6" type="curve" smooth="yes"/>
      <point x="121" y="-5"/>
      <point x="112" y="-14"/>
      <point x="101" y="-14" type="curve" smooth="yes"/>
      <point x="90" y="-14"/>
      <point x="81" y="-5"/>
      <point x="81" y="6" type="curve" smooth="yes"/>
      <point x="81" y="17"/>
      <point x="90" y="26"/>
    </contour>
  </outline>
</glyph>
<glyph name="quotedbl" format="1">
  <advance width="150"/>
  <unicode hex="0022"/>
  <outline>
    <contour>
      <point x="40" y="491" type="line"/>
      <point x="24" y="491" type="line"/>
      <point x="21" y="735" type="line"/>
      <point x="43" y="735" type="line"/>
    </contour>
    <contour>
      <point x="112" y="491" type="line"/>
      <point x="96" y="491" type="line"/>
      <point x="93" y="735" type="line"/>
      <point x="115" y="735" type="line"/>
    </contour>
  </outline>
</glyph>
<glyph name="numbersign" format="1">
  <advance width="530"/>
  <unicode hex="0023"/>
  <outline>
    <contour>
      <point x="358" y="424" type="line"/>
      <point x="325" y="266" type="line"/>
      <point x="445" y="266" type="line"/>
      <point x="445" y="245" type="line"/>
      <point x="320" y="245" type="line"/>
      <point x="268" y="0" type="line"/>
      <point x="247" y="0" type="line"/>
      <point x="299" y="245" type="line"/>
      <point x="188" y="245" type="line"/>
      <point x="136" y="0" type="line"/>
      <point x="115" y="0" type="line"/>
      <point x="167" y="245" type="line"/>
      <point x="55" y="245" type="line"/>
      <point x="55" y="266" type="line"/>
      <point x="172" y="266" type="line"/>
      <point x="205" y="424" type="line"/>
      <point x="85" y="424" type="line"/>
      <point x="85" y="445" type="line"/>
      <point x="210" y="445" type="line"/>
      <point x="262" y="690" type="line"/>
      <point x="283" y="690" type="line"/>
      <point x="231" y="445" type="line"/>
      <point x="342" y="445" type="line"/>
      <point x="394" y="690" type="line"/>
      <point x="415" y="690" type="line"/>
      <point x="363" y="445" type="line"/>
      <point x="475" y="445" type="line"/>
      <point x="475" y="424" type="line"/>
    </contour>
    <contour>
      <point x="338" y="424" type="line"/>
      <point x="227" y="424" type="line"/>
      <point x="193" y="266" type="line"/>
      <point x="304" y="266" type="line"/>
    </contour>
  </outline>
</glyph>
<glyph name="dollar" format="1">
  <advance width="530"/>
  <unicode hex="0024"/>
  <outline>
    <contour>
      <point x="286" y="683" type="curve"/>
      <point x="286" y="354" type="line"/>
      <point x="407" y="319"/>
      <point x="477" y="256"/>
      <point x="477" y="155" type="curve" smooth="yes"/>
      <point x="477" y="68"/>
      <point x="411" y="-10"/>
      <point x="286" y="-14" type="curve"/>
      <point x="286" y="-90" type="line"/>
      <point x="264" y="-90" type="line"/>
      <point x="264" y="-14" type="line"/>
      <point x="158" y="-9"/>
      <point x="65" y="52"/>
      <point x="52" y="180" type="curve"/>
      <point x="74" y="180" type="line"/>
      <point x="86" y="72"/>
      <point x="162" y="12"/>
      <point x="264" y="7" type="curve"/>
      <point x="264" y="333" type="line"/>
      <point x="169" y="361"/>
      <point x="82" y="409"/>
      <point x="82" y="525" type="curve" smooth="yes"/>
      <point x="82" y="631"/>
      <point x="162" y="698"/>
      <point x="264" y="704" type="curve"/>
      <point x="264" y="780" type="line"/>
      <point x="286" y="780" type="line"/>
      <point x="286" y="704" type="line"/>
      <point x="406" y="700"/>
      <point x="466" y="615"/>
      <point x="479" y="514" type="curve"/>
      <point x="457" y="514" type="line"/>
      <point x="444" y="617"/>
      <point x="383" y="679"/>
    </contour>
    <contour>
      <point x="106" y="525" type="curve" smooth="yes"/>
      <point x="106" y="424"/>
      <point x="176" y="385"/>
      <point x="264" y="358" type="curve"/>
      <point x="264" y="683" type="line"/>
      <point x="183" y="678"/>
      <point x="106" y="626"/>
    </contour>
    <contour>
      <point x="286" y="329" type="curve"/>
      <point x="286" y="7" type="line"/>
      <point x="393" y="10"/>
      <point x="453" y="71"/>
      <point x="453" y="153" type="curve" smooth="yes"/>
      <point x="453" y="244"/>
      <point x="393" y="296"/>
    </contour>
  </outline>
</glyph>
<glyph name="ampersand" format="1">
  <advance width="640"/>
  <unicode hex="0026"/>
  <outline>
    <contour>
      <point x="618" y="355" type="line"/>
      <point x="618" y="334" type="line"/>
      <point x="508" y="334" type="line"/>
      <point x="508" y="1" type="line"/>
      <point x="451" y="-9"/>
      <point x="377" y="-14"/>
      <point x="333" y="-14" type="curve" smooth="yes"/>
      <point x="172" y="-14"/>
      <point x="70" y="22"/>
      <point x="70" y="158" type="curve" smooth="yes"/>
      <point x="70" y="268"/>
      <point x="152" y="331"/>
      <point x="264" y="344" type="curve"/>
      <point x="177" y="355"/>
      <point x="108" y="403"/>
      <point x="108" y="516" type="curve" smooth="yes"/>
      <point x="108" y="624"/>
      <point x="199" y="704"/>
      <point x="332" y="704" type="curve" smooth="yes"/>
      <point x="381" y="704"/>
      <point x="414" y="701"/>
      <point x="452" y="694" type="curve"/>
      <point x="452" y="672" type="line"/>
      <point x="411" y="680"/>
      <point x="378" y="683"/>
      <point x="329" y="683" type="curve" smooth="yes"/>
      <point x="218" y="683"/>
      <point x="132" y="621"/>
      <point x="132" y="517" type="curve" smooth="yes"/>
      <point x="132" y="386"/>
      <point x="235" y="360"/>
      <point x="315" y="356" type="curve" smooth="yes"/>
      <point x="335" y="355"/>
      <point x="354" y="355"/>
      <point x="376" y="355" type="curve" smooth="yes"/>
      <point x="486" y="355" type="line"/>
      <point x="486" y="507" type="line"/>
      <point x="508" y="507" type="line"/>
      <point x="508" y="355" type="line"/>
    </contour>
    <contour>
      <point x="94" y="158" type="curve" smooth="yes"/>
      <point x="94" y="38"/>
      <point x="190" y="7"/>
      <point x="335" y="7" type="curve" smooth="yes"/>
      <point x="376" y="7"/>
      <point x="446" y="11"/>
      <point x="486" y="19" type="curve"/>
      <point x="486" y="334" type="line"/>
      <point x="376" y="334" type="line" smooth="yes"/>
      <point x="354" y="334"/>
      <point x="335" y="334"/>
      <point x="315" y="332" type="curve" smooth="yes"/>
      <point x="200" y="322"/>
      <point x="94" y="283"/>
    </contour>
  </outline>
</glyph>
<glyph name="quotesingle" format="1">
  <advance width="78"/>
  <unicode hex="0027"/>
  <outline>
    <contour>
      <point x="40" y="491" type="line"/>
      <point x="24" y="491" type="line"/>
      <point x="21" y="735" type="line"/>
      <point x="43" y="735" type="line"/>
    </contour>
  </outline>
</glyph>
<glyph name="parenleft" format="1">
  <advance width="293"/>
  <unicode hex="0028"/>
  <outline>
    <contour>
      <point x="237" y="780" type="curve"/>
      <point x="259" y="780" type="line"/>
      <point x="187" y="662"/>
      <point x="145" y="510"/>
      <point x="145" y="350" type="curve" smooth="yes"/>
      <point x="145" y="190"/>
      <point x="187" y="38"/>
      <point x="259" y="-80" type="curve"/>
      <point x="237" y="-80" type="line"/>
      <point x="167" y="26"/>
      <point x="121" y="192"/>
      <point x="121" y="350" type="curve" smooth="yes"/>
      <point x="121" y="508"/>
      <point x="167" y="674"/>
    </contour>
  </outline>
</glyph>
<glyph name="parenright" format="1">
  <advance width="293"/>
  <unicode hex="0029"/>
  <outline>
    <contour>
      <point x="34" y="780" type="curve"/>
      <point x="56" y="780" type="line"/>
      <point x="126" y="674"/>
      <point x="172" y="508"/>
      <point x="172" y="350" type="curve" smooth="yes"/>
      <point x="172" y="192"/>
      <point x="126" y="26"/>
      <point x="56" y="-80" type="curve"/>
      <point x="34" y="-80" type="line"/>
      <point x="106" y="38"/>
      <point x="148" y="190"/>
      <point x="148" y="350" type="curve" smooth="yes"/>
      <point x="148" y="510"/>
      <point x="106" y="662"/>
    </contour>
  </outline>
</glyph>
<glyph name="asterisk" format="1">
  <advance width="530"/>
  <unicode hex="002A"/>
  <outline>
    <contour>
      <point x="274" y="280" type="line"/>
      <point x="433" y="337" type="line"/>
      <point x="440" y="315" type="line"/>
      <point x="280" y="263" type="line"/>
      <point x="393" y="114" type="line"/>
      <point x="373" y="100" type="line"/>
      <point x="265" y="254" type="line"/>
      <point x="157" y="100" type="line"/>
      <point x="137" y="114" type="line"/>
      <point x="250" y="263" type="line"/>
      <point x="90" y="315" type="line"/>
      <point x="97" y="337" type="line"/>
      <point x="256" y="280" type="line"/>
      <point x="253" y="474" type="line"/>
      <point x="277" y="474" type="line"/>
    </contour>
  </outline>
</glyph>
<glyph name="plus" format="1">
  <advance width="530"/>
  <unicode hex="002B"/>
  <outline>
    <contour>
      <point x="465" y="307" type="line"/>
      <point x="276" y="307" type="line"/>
      <point x="276" y="87" type="line"/>
      <point x="254" y="87" type="line"/>
      <point x="254" y="307" type="line"/>
      <point x="65" y="307" type="line"/>
      <point x="65" y="328" type="line"/>
      <point x="254" y="328" type="line"/>
      <point x="254" y="548" type="line"/>
      <point x="276" y="548" type="line"/>
      <point x="276" y="328" type="line"/>
      <point x="465" y="328" type="line"/>
    </contour>
  </outline>
</glyph>
<glyph name="comma" format="1">
  <advance width="150"/>
  <unicode hex="002C"/>
  <outline>
    <contour>
      <point x="68" y="19" type="line"/>
      <point x="17" y="-116" type="line"/>
      <point x="-2" y="-116" type="line"/>
      <point x="44" y="24" type="line"/>
      <point x="67" y="24" type="line"/>
    </contour>
  </outline>
</glyph>
<glyph name="period" format="1">
  <advance width="150"/>
  <unicode hex="002E"/>
  <outline>
    <contour>
      <point x="60" y="26" type="curve" smooth="yes"/>
      <point x="71" y="26"/>
      <point x="80" y="17"/>
      <point x="80" y="6" type="curve" smooth="yes"/>
      <point x="80" y="-5"/>
      <point x="71" y="-14"/>
      <point x="60" y="-14" type="curve" smooth="yes"/>
      <point x="49" y="-14"/>
      <point x="40" y="-5"/>
      <point x="40" y="6" type="curve" smooth="yes"/>
      <point x="40" y="17"/>
      <point x="49" y="26"/>
    </contour>
  </outline>
</glyph>
<glyph name="slash" format="1">
  <advance width="263"/>
  <unicode hex="002F"/>
  <outline>
    <contour>
      <point x="17" y="-30" type="line"/>
      <point x="-5" y="-30" type="line"/>
      <point x="246" y="720" type="line"/>
      <point x="268" y="720" type="line"/>
    </contour>
  </outline>
</glyph>
<glyph name="zero" format="1">
  <advance width="530"/>
  <unicode hex="0030"/>
  <outline>
    <contour>
      <point x="265" y="704" type="curve" smooth="yes"/>
      <point x="430" y="704"/>
      <point x="494" y="555"/>
      <point x="494" y="345" type="curve" smooth="yes"/>
      <point x="494" y="134"/>
      <point x="430" y="-14"/>
      <point x="265" y="-14" type="curve" smooth="yes"/>
      <point x="100" y="-14"/>
      <point x="36" y="135"/>
      <point x="36" y="345" type="curve" smooth="yes"/>
      <point x="36" y="556"/>
      <point x="100" y="704"/>
    </contour>
    <contour>
      <point x="265" y="7" type="curve" smooth="yes"/>
      <point x="418" y="7"/>
      <point x="470" y="154"/>
      <point x="470" y="345" type="curve" smooth="yes"/>
      <point x="470" y="535"/>
      <point x="418" y="683"/>
      <point x="265" y="683" type="curve" smooth="yes"/>
      <point x="112" y="683"/>
      <point x="60" y="536"/>
      <point x="60" y="345" type="curve" smooth="yes"/>
      <point x="60" y="155"/>
      <point x="112" y="7"/>
    </contour>
  </outline>
</glyph>
<glyph name="one" format="1">
  <advance width="530"/>
  <unicode hex="0031"/>
  <outline>
    <contour>
      <point x="349" y="690" type="line"/>
      <point x="349" y="0" type="line"/>
      <point x="327" y="0" type="line"/>
      <point x="327" y="666" type="line"/>
      <point x="137" y="548" type="line"/>
      <point x="137" y="573" type="line"/>
      <point x="296" y="673" type="line" smooth="yes"/>
      <point x="320" y="688"/>
      <point x="327" y="690"/>
      <point x="338" y="690" type="curve" smooth="yes"/>
    </contour>
  </outline>
</glyph>
<glyph name="two" format="1">
  <advance width="530"/>
  <unicode hex="0032"/>
  <outline>
    <contour>
      <point x="481" y="21" type="line"/>
      <point x="481" y="0" type="line"/>
      <point x="40" y="0" type="line"/>
      <point x="40" y="16" type="line"/>
      <point x="279" y="248" type="line" smooth="yes"/>
      <point x="412" y="378"/>
      <point x="452" y="438"/>
      <point x="452" y="516" type="curve" smooth="yes"/>
      <point x="452" y="610"/>
      <point x="392" y="683"/>
      <point x="283" y="683" type="curve" smooth="yes"/>
      <point x="180" y="683"/>
      <point x="104" y="610"/>
      <point x="93" y="498" type="curve" smooth="yes"/>
      <point x="92" y="488" type="line"/>
      <point x="70" y="488" type="line"/>
      <point x="71" y="498" type="line" smooth="yes"/>
      <point x="84" y="623"/>
      <point x="170" y="704"/>
      <point x="283" y="704" type="curve" smooth="yes"/>
      <point x="412" y="704"/>
      <point x="476" y="619"/>
      <point x="476" y="516" type="curve" smooth="yes"/>
      <point x="476" y="428"/>
      <point x="416" y="350"/>
      <point x="298" y="237" type="curve" smooth="yes"/>
      <point x="74" y="21" type="line"/>
    </contour>
  </outline>
</glyph>
<glyph name="three" format="1">
  <advance width="530"/>
  <unicode hex="0033"/>
  <outline>
    <contour>
      <point x="328" y="357" type="curve"/>
      <point x="426" y="342"/>
      <point x="488" y="287"/>
      <point x="488" y="183" type="curve" smooth="yes"/>
      <point x="488" y="60"/>
      <point x="391" y="-14"/>
      <point x="264" y="-14" type="curve" smooth="yes"/>
      <point x="144" y="-14"/>
      <point x="60" y="58"/>
      <point x="46" y="194" type="curve" smooth="yes"/>
      <point x="45" y="204" type="line"/>
      <point x="67" y="204" type="line"/>
      <point x="68" y="194" type="line" smooth="yes"/>
      <point x="79" y="86"/>
      <point x="146" y="7"/>
      <point x="264" y="7" type="curve" smooth="yes"/>
      <point x="378" y="7"/>
      <point x="464" y="70"/>
      <point x="464" y="183" type="curve" smooth="yes"/>
      <point x="464" y="274"/>
      <point x="401" y="343"/>
      <point x="256" y="343" type="curve" smooth="yes"/>
      <point x="239" y="343" type="line"/>
      <point x="239" y="364" type="line"/>
      <point x="256" y="364" type="line" smooth="yes"/>
      <point x="348" y="364"/>
      <point x="453" y="425"/>
      <point x="453" y="529" type="curve" smooth="yes"/>
      <point x="453" y="635"/>
      <point x="379" y="683"/>
      <point x="286" y="683" type="curve" smooth="yes"/>
      <point x="183" y="683"/>
      <point x="110" y="619"/>
      <point x="99" y="509" type="curve" smooth="yes"/>
      <point x="98" y="499" type="line"/>
      <point x="76" y="499" type="line"/>
      <point x="77" y="509" type="line" smooth="yes"/>
      <point x="89" y="633"/>
      <point x="176" y="704"/>
      <point x="287" y="704" type="curve" smooth="yes"/>
      <point x="411" y="704"/>
      <point x="477" y="629"/>
      <point x="477" y="531" type="curve" smooth="yes"/>
      <point x="477" y="445"/>
      <point x="413" y="375"/>
    </contour>
  </outline>
</glyph>
<glyph name="four" format="1">
  <advance width="530"/>
  <unicode hex="0034"/>
  <outline>
    <contour>
      <point x="504" y="200" type="line"/>
      <point x="405" y="200" type="line"/>
      <point x="405" y="0" type="line"/>
      <point x="383" y="0" type="line"/>
      <point x="383" y="200" type="line"/>
      <point x="21" y="200" type="line"/>
      <point x="21" y="216" type="line"/>
      <point x="388" y="690" type="line"/>
      <point x="405" y="690" type="line"/>
      <point x="405" y="221" type="line"/>
      <point x="504" y="221" type="line"/>
    </contour>
    <contour>
      <point x="383" y="221" type="line"/>
      <point x="383" y="656" type="line"/>
      <point x="363" y="628"/>
      <point x="332" y="585"/>
      <point x="293" y="535" type="curve" smooth="yes"/>
      <point x="50" y="221" type="line"/>
    </contour>
  </outline>
</glyph>
<glyph name="five" format="1">
  <advance width="530"/>
  <unicode hex="0035"/>
  <outline>
    <contour>
      <point x="275" y="432" type="curve" smooth="yes"/>
      <point x="404" y="432"/>
      <point x="481" y="336"/>
      <point x="481" y="211" type="curve" smooth="yes"/>
      <point x="481" y="69"/>
      <point x="378" y="-14"/>
      <point x="257" y="-14" type="curve" smooth="yes"/>
      <point x="163" y="-14"/>
      <point x="65" y="41"/>
      <point x="51" y="178" type="curve" smooth="yes"/>
      <point x="50" y="188" type="line"/>
      <point x="72" y="188" type="line"/>
      <point x="73" y="178" type="line" smooth="yes"/>
      <point x="83" y="79"/>
      <point x="151" y="7"/>
      <point x="258" y="7" type="curve" smooth="yes"/>
      <point x="354" y="7"/>
      <point x="457" y="70"/>
      <point x="457" y="210" type="curve" smooth="yes"/>
      <point x="457" y="333"/>
      <point x="381" y="411"/>
      <point x="273" y="411" type="curve" smooth="yes"/>
      <point x="191" y="411"/>
      <point x="124" y="376"/>
      <point x="86" y="295" type="curve"/>
      <point x="64" y="295" type="line"/>
      <point x="129" y="686" type="line"/>
      <point x="479" y="686" type="line"/>
      <point x="479" y="665" type="line"/>
      <point x="148" y="665" type="line"/>
      <point x="90" y="334" type="line"/>
      <point x="128" y="383" type="line"/>
      <point x="169" y="414"/>
      <point x="216" y="432"/>
    </contour>
  </outline>
</glyph>
<glyph name="six" format="1">
  <advance width="530"/>
  <unicode hex="0036"/>
  <outline>
    <contour>
      <point x="275" y="458" type="curve" smooth="yes"/>
      <point x="418" y="458"/>
      <point x="495" y="347"/>
      <point x="495" y="219" type="curve" smooth="yes"/>
      <point x="495" y="90"/>
      <point x="402" y="-14"/>
      <point x="266" y="-14" type="curve" smooth="yes"/>
      <point x="130" y="-14"/>
      <point x="43" y="75"/>
      <point x="43" y="299" type="curve" smooth="yes"/>
      <point x="43" y="585"/>
      <point x="134" y="704"/>
      <point x="285" y="704" type="curve" smooth="yes"/>
      <point x="407" y="704"/>
      <point x="460" y="636"/>
      <point x="482" y="528" type="curve" smooth="yes"/>
      <point x="484" y="518" type="line"/>
      <point x="462" y="518" type="line"/>
      <point x="460" y="528" type="line" smooth="yes"/>
      <point x="439" y="633"/>
      <point x="382" y="683"/>
      <point x="285" y="683" type="curve" smooth="yes"/>
      <point x="175" y="683"/>
      <point x="68" y="617"/>
      <point x="63" y="304" type="curve"/>
      <point x="83" y="355" type="line"/>
      <point x="127" y="422"/>
      <point x="196" y="458"/>
    </contour>
    <contour>
      <point x="267" y="7" type="curve" smooth="yes"/>
      <point x="392" y="7"/>
      <point x="471" y="102"/>
      <point x="471" y="218" type="curve" smooth="yes"/>
      <point x="471" y="344"/>
      <point x="393" y="437"/>
      <point x="273" y="437" type="curve" smooth="yes"/>
      <point x="161" y="437"/>
      <point x="70" y="351"/>
      <point x="70" y="236" type="curve" smooth="yes"/>
      <point x="70" y="109"/>
      <point x="140" y="7"/>
    </contour>
  </outline>
</glyph>
<glyph name="seven" format="1">
  <advance width="530"/>
  <unicode hex="0037"/>
  <outline>
    <contour>
      <point x="497" y="690" type="line"/>
      <point x="497" y="679" type="line"/>
      <point x="133" y="0" type="line"/>
      <point x="107" y="0" type="line"/>
      <point x="467" y="669" type="line"/>
      <point x="45" y="669" type="line"/>
      <point x="45" y="690" type="line"/>
    </contour>
  </outline>
</glyph>
<glyph name="eight" format="1">
  <advance width="530"/>
  <unicode hex="0038"/>
  <outline>
    <contour>
      <point x="344" y="359" type="curve"/>
      <point x="442" y="336"/>
      <point x="491" y="268"/>
      <point x="491" y="175" type="curve" smooth="yes"/>
      <point x="491" y="52"/>
      <point x="386" y="-15"/>
      <point x="265" y="-15" type="curve" smooth="yes"/>
      <point x="136" y="-15"/>
      <point x="39" y="52"/>
      <point x="39" y="175" type="curve" smooth="yes"/>
      <point x="39" y="267"/>
      <point x="97" y="335"/>
      <point x="194" y="359" type="curve"/>
      <point x="117" y="380"/>
      <point x="73" y="442"/>
      <point x="73" y="525" type="curve" smooth="yes"/>
      <point x="73" y="623"/>
      <point x="144" y="704"/>
      <point x="273" y="704" type="curve" smooth="yes"/>
      <point x="408" y="704"/>
      <point x="473" y="623"/>
      <point x="473" y="525" type="curve" smooth="yes"/>
      <point x="473" y="441"/>
      <point x="424" y="378"/>
    </contour>
    <contour>
      <point x="97" y="525" type="curve" smooth="yes"/>
      <point x="97" y="416"/>
      <point x="187" y="369"/>
      <point x="273" y="369" type="curve" smooth="yes"/>
      <point x="359" y="369"/>
      <point x="449" y="416"/>
      <point x="449" y="525" type="curve" smooth="yes"/>
      <point x="449" y="622"/>
      <point x="380" y="683"/>
      <point x="273" y="683" type="curve" smooth="yes"/>
      <point x="166" y="683"/>
      <point x="97" y="622"/>
    </contour>
    <contour>
      <point x="267" y="6" type="curve" smooth="yes"/>
      <point x="358" y="6"/>
      <point x="467" y="56"/>
      <point x="467" y="175" type="curve" smooth="yes"/>
      <point x="467" y="276"/>
      <point x="400" y="348"/>
      <point x="269" y="348" type="curve" smooth="yes"/>
      <point x="138" y="348"/>
      <point x="63" y="276"/>
      <point x="63" y="175" type="curve" smooth="yes"/>
      <point x="63" y="56"/>
      <point x="168" y="6"/>
    </contour>
  </outline>
</glyph>
<glyph name="nine" format="1">
  <advance width="530"/>
  <unicode hex="0039"/>
  <outline>
    <contour>
      <point x="264" y="704" type="curve" smooth="yes"/>
      <point x="400" y="704"/>
      <point x="487" y="615"/>
      <point x="487" y="391" type="curve" smooth="yes"/>
      <point x="487" y="115"/>
      <point x="397" y="-14"/>
      <point x="246" y="-14" type="curve" smooth="yes"/>
      <point x="124" y="-14"/>
      <point x="70" y="54"/>
      <point x="48" y="162" type="curve" smooth="yes"/>
      <point x="46" y="172" type="line"/>
      <point x="68" y="172" type="line"/>
      <point x="70" y="162" type="line" smooth="yes"/>
      <point x="91" y="57"/>
      <point x="149" y="7"/>
      <point x="246" y="7" type="curve" smooth="yes"/>
      <point x="356" y="7"/>
      <point x="462" y="82"/>
      <point x="467" y="386" type="curve"/>
      <point x="447" y="335" type="line"/>
      <point x="403" y="268"/>
      <point x="334" y="232"/>
      <point x="255" y="232" type="curve" smooth="yes"/>
      <point x="112" y="232"/>
      <point x="35" y="343"/>
      <point x="35" y="471" type="curve" smooth="yes"/>
      <point x="35" y="600"/>
      <point x="128" y="704"/>
    </contour>
    <contour>
      <point x="257" y="253" type="curve" smooth="yes"/>
      <point x="369" y="253"/>
      <point x="460" y="339"/>
      <point x="460" y="454" type="curve" smooth="yes"/>
      <point x="460" y="581"/>
      <point x="390" y="683"/>
      <point x="263" y="683" type="curve" smooth="yes"/>
      <point x="138" y="683"/>
      <point x="59" y="588"/>
      <point x="59" y="472" type="curve" smooth="yes"/>
      <point x="59" y="346"/>
      <point x="137" y="253"/>
    </contour>
  </outline>
</glyph>
<glyph name="colon" format="1">
  <advance width="150"/>
  <unicode hex="003A"/>
  <outline>
    <contour>
      <point x="60" y="540" type="curve" smooth="yes"/>
      <point x="71" y="540"/>
      <point x="80" y="531"/>
      <point x="80" y="520" type="curve" smooth="yes"/>
      <point x="80" y="509"/>
      <point x="71" y="500"/>
      <point x="60" y="500" type="curve" smooth="yes"/>
      <point x="49" y="500"/>
      <point x="40" y="509"/>
      <point x="40" y="520" type="curve" smooth="yes"/>
      <point x="40" y="531"/>
      <point x="49" y="540"/>
    </contour>
    <contour>
      <point x="60" y="26" type="curve" smooth="yes"/>
      <point x="71" y="26"/>
      <point x="80" y="17"/>
      <point x="80" y="6" type="curve" smooth="yes"/>
      <point x="80" y="-5"/>
      <point x="71" y="-14"/>
      <point x="60" y="-14" type="curve" smooth="yes"/>
      <point x="49" y="-14"/>
      <point x="40" y="-5"/>
      <point x="40" y="6" type="curve" smooth="yes"/>
      <point x="40" y="17"/>
      <point x="49" y="26"/>
    </contour>
  </outline>
</glyph>
<glyph name="semicolon" format="1">
  <advance width="150"/>
  <unicode hex="003B"/>
  <outline>
    <contour>
      <point x="60" y="540" type="curve" smooth="yes"/>
      <point x="71" y="540"/>
      <point x="80" y="531"/>
      <point x="80" y="520" type="curve" smooth="yes"/>
      <point x="80" y="509"/>
      <point x="71" y="500"/>
      <point x="60" y="500" type="curve" smooth="yes"/>
      <point x="49" y="500"/>
      <point x="40" y="509"/>
      <point x="40" y="520" type="curve" smooth="yes"/>
      <point x="40" y="531"/>
      <point x="49" y="540"/>
    </contour>
    <contour>
      <point x="68" y="19" type="line"/>
      <point x="17" y="-116" type="line"/>
      <point x="-2" y="-116" type="line"/>
      <point x="44" y="24" type="line"/>
      <point x="67" y="24" type="line"/>
    </contour>
  </outline>
</glyph>
<glyph name="less" format="1">
  <advance width="530"/>
  <unicode hex="003C"/>
  <outline>
    <contour>
      <point x="472" y="445" type="line"/>
      <point x="101" y="265" type="line"/>
      <point x="472" y="85" type="line"/>
      <point x="472" y="60" type="line"/>
      <point x="71" y="255" type="line"/>
      <point x="71" y="275" type="line"/>
      <point x="472" y="470" type="line"/>
    </contour>
  </outline>
</glyph>
<glyph name="equal" format="1">
  <advance width="530"/>
  <unicode hex="003D"/>
  <outline>
    <contour>
      <point x="475" y="397" type="line"/>
      <point x="55" y="397" type="line"/>
      <point x="55" y="418" type="line"/>
      <point x="475" y="418" type="line"/>
    </contour>
    <contour>
      <point x="475" y="217" type="line"/>
      <point x="55" y="217" type="line"/>
      <point x="55" y="238" type="line"/>
      <point x="475" y="238" type="line"/>
    </contour>
  </outline>
</glyph>
<glyph name="greater" format="1">
  <advance width="530"/>
  <unicode hex="003E"/>
  <outline>
    <contour>
      <point x="459" y="275" type="line"/>
      <point x="459" y="255" type="line"/>
      <point x="58" y="60" type="line"/>
      <point x="58" y="85" type="line"/>
      <point x="429" y="265" type="line"/>
      <point x="58" y="445" type="line"/>
      <point x="58" y="470" type="line"/>
    </contour>
  </outline>
</glyph>
<glyph name="question" format="1">
  <advance width="522"/>
  <unicode hex="003F"/>
  <outline>
    <contour>
      <point x="259" y="704" type="curve" smooth="yes"/>
      <point x="384" y="704"/>
      <point x="450" y="625"/>
      <point x="450" y="526" type="curve" smooth="yes"/>
      <point x="450" y="455"/>
      <point x="413" y="392"/>
      <point x="357" y="339" type="curve" smooth="yes"/>
      <point x="266" y="252"/>
      <point x="251" y="211"/>
      <point x="251" y="110" type="curve"/>
      <point x="231" y="110" type="line"/>
      <point x="232" y="220"/>
      <point x="245" y="258"/>
      <point x="341" y="352" type="curve" smooth="yes"/>
      <point x="399" y="409"/>
      <point x="426" y="462"/>
      <point x="426" y="526" type="curve" smooth="yes"/>
      <point x="426" y="625"/>
      <point x="359" y="683"/>
      <point x="259" y="683" type="curve" smooth="yes"/>
      <point x="145" y="683"/>
      <point x="80" y="607"/>
      <point x="72" y="494" type="curve"/>
      <point x="50" y="494" type="line"/>
      <point x="55" y="618"/>
      <point x="139" y="704"/>
    </contour>
    <contour>
      <point x="242" y="26" type="curve" smooth="yes"/>
      <point x="253" y="26"/>
      <point x="262" y="17"/>
      <point x="262" y="6" type="curve" smooth="yes"/>
      <point x="262" y="-5"/>
      <point x="253" y="-14"/>
      <point x="242" y="-14" type="curve" smooth="yes"/>
      <point x="231" y="-14"/>
      <point x="222" y="-5"/>
      <point x="222" y="6" type="curve" smooth="yes"/>
      <point x="222" y="17"/>
      <point x="231" y="26"/>
    </contour>
  </outline>
</glyph>
<glyph name="at" format="1">
  <advance width="851"/>
  <unicode hex="0040"/>
  <outline>
    <contour>
      <point x="599" y="465" type="line"/>
      <point x="549" y="256" type="line" smooth="yes"/>
      <point x="538" y="207"/>
      <point x="536" y="187"/>
      <point x="536" y="168" type="curve" smooth="yes"/>
      <point x="536" y="122"/>
      <point x="567" y="96"/>
      <point x="615" y="96" type="curve" smooth="yes"/>
      <point x="702" y="96"/>
      <point x="773" y="189"/>
      <point x="773" y="333" type="curve" smooth="yes"/>
      <point x="773" y="527"/>
      <point x="647" y="643"/>
      <point x="464" y="643" type="curve" smooth="yes"/>
      <point x="291" y="643"/>
      <point x="85" y="495"/>
      <point x="85" y="247" type="curve" smooth="yes"/>
      <point x="85" y="30"/>
      <point x="235" y="-83"/>
      <point x="395" y="-83" type="curve" smooth="yes"/>
      <point x="499" y="-83"/>
      <point x="572" y="-63"/>
      <point x="669" y="4" type="curve"/>
      <point x="681" y="-15" type="line"/>
      <point x="569" y="-90"/>
      <point x="495" y="-104"/>
      <point x="395" y="-104" type="curve" smooth="yes"/>
      <point x="230" y="-104"/>
      <point x="61" y="9"/>
      <point x="61" y="244" type="curve" smooth="yes"/>
      <point x="61" y="507"/>
      <point x="275" y="664"/>
      <point x="470" y="664" type="curve" smooth="yes"/>
      <point x="665" y="664"/>
      <point x="797" y="530"/>
      <point x="797" y="338" type="curve" smooth="yes"/>
      <point x="797" y="165"/>
      <point x="708" y="75"/>
      <point x="613" y="75" type="curve" smooth="yes"/>
      <point x="564" y="75"/>
      <point x="512" y="97"/>
      <point x="512" y="173" type="curve"/>
      <point x="494" y="135" type="line"/>
      <point x="459" y="88"/>
      <point x="419" y="67"/>
      <point x="373" y="67" type="curve" smooth="yes"/>
      <point x="319" y="67"/>
      <point x="250" y="98"/>
      <point x="250" y="218" type="curve" smooth="yes"/>
      <point x="250" y="359"/>
      <point x="341" y="483"/>
      <point x="462" y="483" type="curve" smooth="yes"/>
      <point x="501" y="483"/>
      <point x="524" y="467"/>
      <point x="537" y="449" type="curve"/>
      <point x="558" y="397" type="line"/>
      <point x="574" y="465" type="line"/>
    </contour>
    <contour>
      <point x="532" y="279" type="curve" smooth="yes"/>
      <point x="541" y="319" type="line" smooth="yes"/>
      <point x="544" y="333"/>
      <point x="546" y="346"/>
      <point x="546" y="359" type="curve" smooth="yes"/>
      <point x="546" y="418"/>
      <point x="513" y="462"/>
      <point x="458" y="462" type="curve" smooth="yes"/>
      <point x="362" y="462"/>
      <point x="274" y="356"/>
      <point x="274" y="222" type="curve" smooth="yes"/>
      <point x="274" y="130"/>
      <point x="315" y="88"/>
      <point x="377" y="88" type="curve" smooth="yes"/>
      <point x="438" y="88"/>
      <point x="500" y="139"/>
    </contour>
  </outline>
</glyph>
<glyph name="B" format="1">
  <advance width="587"/>
  <unicode hex="0042"/>
  <outline>
    <contour>
      <point x="388" y="364" type="curve"/>
      <point x="496" y="348"/>
      <point x="548" y="277"/>
      <point x="548" y="183" type="curve" smooth="yes"/>
      <point x="548" y="73"/>
      <point x="459" y="8"/>
      <point x="356" y="2" type="curve" smooth="yes"/>
      <point x="331" y="0"/>
      <point x="312" y="0"/>
      <point x="288" y="0" type="curve" smooth="yes"/>
      <point x="96" y="0" type="line"/>
      <point x="96" y="690" type="line"/>
      <point x="270" y="690" type="line" smooth="yes"/>
      <point x="297" y="690"/>
      <point x="313" y="690"/>
      <point x="348" y="688" type="curve" smooth="yes"/>
      <point x="452" y="681"/>
      <point x="522" y="621"/>
      <point x="522" y="525" type="curve" smooth="yes"/>
      <point x="522" y="438"/>
      <point x="471" y="377"/>
    </contour>
    <contour>
      <point x="118" y="669" type="line"/>
      <point x="118" y="372" type="line"/>
      <point x="284" y="372" type="line" smooth="yes"/>
      <point x="300" y="372"/>
      <point x="316" y="372"/>
      <point x="339" y="373" type="curve" smooth="yes"/>
      <point x="411" y="377"/>
      <point x="498" y="411"/>
      <point x="498" y="520" type="curve" smooth="yes"/>
      <point x="498" y="629"/>
      <point x="415" y="665"/>
      <point x="335" y="668" type="curve" smooth="yes"/>
      <point x="312" y="669"/>
      <point x="296" y="669"/>
      <point x="270" y="669" type="curve" smooth="yes"/>
    </contour>
    <contour>
      <point x="349" y="22" type="curve" smooth="yes"/>
      <point x="434" y="28"/>
      <point x="524" y="73"/>
      <point x="524" y="182" type="curve" smooth="yes"/>
      <point x="524" y="261"/>
      <point x="484" y="344"/>
      <point x="350" y="350" type="curve" smooth="yes"/>
      <point x="327" y="351"/>
      <point x="314" y="351"/>
      <point x="298" y="351" type="curve" smooth="yes"/>
      <point x="118" y="351" type="line"/>
      <point x="118" y="21" type="line"/>
      <point x="304" y="21" type="line" smooth="yes"/>
      <point x="320" y="21"/>
      <point x="336" y="21"/>
    </contour>
  </outline>
</glyph>
<glyph name="E" format="1">
  <advance width="557"/>
  <unicode hex="0045"/>
  <outline>
    <contour>
      <point x="525" y="20" type="line"/>
      <point x="525" y="0" type="line"/>
      <point x="96" y="0" type="line"/>
      <point x="96" y="690" type="line"/>
      <point x="515" y="690" type="line"/>
      <point x="515" y="670" type="line"/>
      <point x="118" y="670" type="line"/>
      <point x="118" y="355" type="line"/>
      <point x="495" y="355" type="line"/>
      <point x="495" y="335" type="line"/>
      <point x="118" y="335" type="line"/>
      <point x="118" y="20" type="line"/>
    </contour>
  </outline>
</glyph>
<glyph name="H" format="1">
  <advance width="655"/>
  <unicode hex="0048"/>
  <outline>
    <contour>
      <point x="584" y="690" type="line"/>
      <point x="584" y="0" type="line"/>
      <point x="562" y="0" type="line"/>
      <point x="562" y="328" type="line"/>
      <point x="118" y="328" type="line"/>
      <point x="118" y="0" type="line"/>
      <point x="96" y="0" type="line"/>
      <point x="96" y="690" type="line"/>
      <point x="118" y="690" type="line"/>
      <point x="118" y="349" type="line"/>
      <point x="562" y="349" type="line"/>
      <point x="562" y="690" type="line"/>
    </contour>
  </outline>
</glyph>
<glyph name="I" format="1">
  <advance width="189"/>
  <unicode hex="0049"/>
  <outline>
    <contour>
      <point x="118" y="0" type="line"/>
      <point x="96" y="0" type="line"/>
      <point x="96" y="690" type="line"/>
      <point x="118" y="690" type="line"/>
    </contour>
  </outline>
</glyph>
<glyph name="J" format="1">
  <advance width="495"/>
  <unicode hex="004A"/>
  <outline>
    <contour>
      <point x="429" y="690" type="line"/>
      <point x="429" y="260" type="line" smooth="yes"/>
      <point x="429" y="229"/>
      <point x="429" y="201"/>
      <point x="427" y="169" type="curve" smooth="yes"/>
      <point x="421" y="77"/>
      <point x="365" y="-14"/>
      <point x="239" y="-14" type="curve" smooth="yes"/>
      <point x="123" y="-14"/>
      <point x="53" y="53"/>
      <point x="48" y="194" type="curve" smooth="yes"/>
      <point x="47" y="224" type="line"/>
      <point x="69" y="224" type="line"/>
      <point x="70" y="194" type="line" smooth="yes"/>
      <point x="75" y="56"/>
      <point x="148" y="7"/>
      <point x="241" y="7" type="curve" smooth="yes"/>
      <point x="339" y="7"/>
      <point x="396" y="68"/>
      <point x="405" y="172" type="curve" smooth="yes"/>
      <point x="407" y="194"/>
      <point x="407" y="221"/>
      <point x="407" y="252" type="curve" smooth="yes"/>
      <point x="407" y="690" type="line"/>
    </contour>
  </outline>
</glyph>
<glyph name="K" format="1">
  <advance width="553"/>
  <unicode hex="004B"/>
  <outline>
    <contour>
      <point x="180" y="355" type="line"/>
      <point x="535" y="0" type="line"/>
      <point x="502" y="0" type="line"/>
      <point x="163" y="341" type="line"/>
      <point x="118" y="299" type="line"/>
      <point x="118" y="0" type="line"/>
      <point x="96" y="0" type="line"/>
      <point x="96" y="690" type="line"/>
      <point x="118" y="690" type="line"/>
      <point x="118" y="324" type="line"/>
      <point x="512" y="690" type="line"/>
      <point x="541" y="690" type="line"/>
    </contour>
  </outline>
</glyph>
<glyph name="M" format="1">
  <advance width="794"/>
  <unicode hex="004D"/>
  <outline>
    <contour>
      <point x="723" y="690" type="line"/>
      <point x="723" y="0" type="line"/>
      <point x="702" y="0" type="line"/>
      <point x="702" y="400" type="line"/>
      <point x="702" y="537" type="line" smooth="yes"/>
      <point x="702" y="583"/>
      <point x="702" y="630"/>
      <point x="703" y="673" type="curve"/>
      <point x="669" y="586"/>
      <point x="629" y="487"/>
      <point x="592" y="400" type="curve" smooth="yes"/>
      <point x="423" y="0" type="line"/>
      <point x="395" y="0" type="line"/>
      <point x="227" y="400" type="line" smooth="yes"/>
      <point x="191" y="487"/>
      <point x="150" y="586"/>
      <point x="116" y="673" type="curve"/>
      <point x="118" y="586"/>
      <point x="118" y="488"/>
      <point x="118" y="400" type="curve" smooth="yes"/>
      <point x="118" y="0" type="line"/>
      <point x="96" y="0" type="line"/>
      <point x="96" y="690" type="line"/>
      <point x="131" y="690" type="line"/>
      <point x="410" y="21" type="line"/>
      <point x="691" y="690" type="line"/>
    </contour>
  </outline>
</glyph>
<glyph name="P" format="1">
  <advance width="521"/>
  <unicode hex="0050"/>
  <outline>
    <contour>
      <point x="348" y="685" type="curve" smooth="yes"/>
      <point x="441" y="673"/>
      <point x="515" y="621"/>
      <point x="515" y="504" type="curve" smooth="yes"/>
      <point x="515" y="384"/>
      <point x="441" y="325"/>
      <point x="348" y="313" type="curve" smooth="yes"/>
      <point x="316" y="309"/>
      <point x="284" y="308"/>
      <point x="249" y="308" type="curve" smooth="yes"/>
      <point x="118" y="308" type="line"/>
      <point x="118" y="0" type="line"/>
      <point x="96" y="0" type="line"/>
      <point x="96" y="690" type="line"/>
      <point x="249" y="690" type="line" smooth="yes"/>
      <point x="284" y="690"/>
      <point x="316" y="689"/>
    </contour>
    <contour>
      <point x="344" y="334" type="curve" smooth="yes"/>
      <point x="428" y="344"/>
      <point x="491" y="395"/>
      <point x="491" y="504" type="curve" smooth="yes"/>
      <point x="491" y="607"/>
      <point x="428" y="654"/>
      <point x="344" y="664" type="curve" smooth="yes"/>
      <point x="312" y="668"/>
      <point x="285" y="669"/>
      <point x="249" y="669" type="curve" smooth="yes"/>
      <point x="118" y="669" type="line"/>
      <point x="118" y="329" type="line"/>
      <point x="249" y="329" type="line" smooth="yes"/>
      <point x="285" y="329"/>
      <point x="312" y="330"/>
    </contour>
  </outline>
</glyph>
<glyph name="T" format="1">
  <advance width="580"/>
  <unicode hex="0054"/>
  <outline>
    <contour>
      <point x="582" y="670" type="line"/>
      <point x="318" y="670" type="line"/>
      <point x="318" y="0" type="line"/>
      <point x="296" y="0" type="line"/>
      <point x="296" y="670" type="line"/>
      <point x="32" y="670" type="line"/>
      <point x="32" y="690" type="line"/>
      <point x="582" y="690" type="line"/>
    </contour>
  </outline>
</glyph>
<glyph name="V" format="1">
  <advance width="583"/>
  <unicode hex="0056"/>
  <outline>
    <contour>
      <point x="323" y="0" type="line"/>
      <point x="293" y="0" type="line"/>
      <point x="26" y="690" type="line"/>
      <point x="50" y="690" type="line"/>
      <point x="308" y="19" type="line"/>
      <point x="566" y="690" type="line"/>
      <point x="590" y="690" type="line"/>
    </contour>
  </outline>
</glyph>
<glyph name="X" format="1">
  <advance width="572"/>
  <unicode hex="0058"/>
  <outline>
    <contour>
      <point x="304" y="345" type="line"/>
      <point x="556" y="0" type="line"/>
      <point x="526" y="0" type="line"/>
      <point x="291" y="329" type="line"/>
      <point x="56" y="0" type="line"/>
      <point x="28" y="0" type="line"/>
      <point x="276" y="344" type="line"/>
      <point x="45" y="690" type="line"/>
      <point x="70" y="690" type="line"/>
      <point x="290" y="363" type="line"/>
      <point x="533" y="690" type="line"/>
      <point x="562" y="690" type="line"/>
    </contour>
  </outline>
</glyph>
<glyph name="Z" format="1">
  <advance width="537"/>
  <unicode hex="005A"/>
  <outline>
    <contour>
      <point x="512" y="21" type="line"/>
      <point x="512" y="0" type="line"/>
      <point x="36" y="0" type="line"/>
      <point x="36" y="17" type="line"/>
      <point x="480" y="669" type="line"/>
      <point x="64" y="669" type="line"/>
      <point x="64" y="690" type="line"/>
      <point x="506" y="690" type="line"/>
      <point x="506" y="670" type="line"/>
      <point x="64" y="21" type="line"/>
    </contour>
  </outline>
</glyph>
<glyph name="bracketleft" format="1">
  <advance width="311"/>
  <unicode hex="005B"/>
  <outline>
    <contour>
      <point x="285" y="780" type="line"/>
      <point x="285" y="759" type="line"/>
      <point x="154" y="759" type="line"/>
      <point x="154" y="-59" type="line"/>
      <point x="285" y="-59" type="line"/>
      <point x="285" y="-80" type="line"/>
      <point x="132" y="-80" type="line"/>
      <point x="132" y="780" type="line"/>
    </contour>
  </outline>
</glyph>
<glyph name="backslash" format="1">
  <advance width="263"/>
  <unicode hex="005C"/>
  <outline>
    <contour>
      <point x="268" y="-30" type="line"/>
      <point x="246" y="-30" type="line"/>
      <point x="-5" y="720" type="line"/>
      <point x="17" y="720" type="line"/>
    </contour>
  </outline>
</glyph>
<glyph name="bracketright" format="1">
  <advance width="311"/>
  <unicode hex="005D"/>
  <outline>
    <contour>
      <point x="179" y="-80" type="line"/>
      <point x="26" y="-80" type="line"/>
      <point x="26" y="-59" type="line"/>
      <point x="157" y="-59" type="line"/>
      <point x="157" y="759" type="line"/>
      <point x="26" y="759" type="line"/>
      <point x="26" y="780" type="line"/>
      <point x="179" y="780" type="line"/>
    </contour>
  </outline>
</glyph>
<glyph name="asciicircum" format="1">
  <advance width="530"/>
  <unicode hex="005E"/>
  <outline>
    <contour>
      <point x="426" y="215" type="line"/>
      <point x="267" y="595" type="line"/>
      <point x="106" y="215" type="line"/>
      <point x="82" y="215" type="line"/>
      <point x="254" y="616" type="line"/>
      <point x="281" y="616" type="line"/>
      <point x="451" y="215" type="line"/>
    </contour>
  </outline>
</glyph>
<glyph name="grave" format="1">
  <advance width="300"/>
  <unicode hex="0060"/>
  <outline>
    <contour>
      <point x="162" y="580" type="line"/>
      <point x="143" y="580" type="line"/>
      <point x="74" y="690" type="line"/>
      <point x="102" y="690" type="line"/>
    </contour>
  </outline>
</glyph>
<glyph name="b" format="1">
  <advance width="544"/>
  <unicode hex="0062"/>
  <outline>
    <contour>
      <point x="287" y="540" type="curve" smooth="yes"/>
      <point x="424" y="540"/>
      <point x="514" y="427"/>
      <point x="514" y="267" type="curve" smooth="yes"/>
      <point x="514" y="81"/>
      <point x="402" y="-14"/>
      <point x="275" y="-14" type="curve" smooth="yes"/>
      <point x="208" y="-14"/>
      <point x="165" y="6"/>
      <point x="122" y="54" type="curve"/>
      <point x="93" y="120" type="line"/>
      <point x="93" y="0" type="line"/>
      <point x="71" y="0" type="line"/>
      <point x="71" y="735" type="line"/>
      <point x="93" y="735" type="line"/>
      <point x="93" y="406" type="line"/>
      <point x="121" y="466" type="line"/>
      <point x="168" y="522"/>
      <point x="215" y="540"/>
    </contour>
    <contour>
      <point x="275" y="7" type="curve" smooth="yes"/>
      <point x="401" y="7"/>
      <point x="490" y="112"/>
      <point x="490" y="263" type="curve" smooth="yes"/>
      <point x="490" y="401"/>
      <point x="418" y="519"/>
      <point x="285" y="519" type="curve" smooth="yes"/>
      <point x="181" y="519"/>
      <point x="93" y="461"/>
      <point x="93" y="288" type="curve" smooth="yes"/>
      <point x="93" y="229" type="line" smooth="yes"/>
      <point x="93" y="57"/>
      <point x="193" y="7"/>
    </contour>
  </outline>
</glyph>
<glyph name="e" format="1">
  <advance width="521"/>
  <unicode hex="0065"/>
  <outline>
    <contour>
      <point x="485" y="277" type="curve" smooth="yes"/>
      <point x="485" y="273"/>
      <point x="485" y="269"/>
      <point x="484" y="258" type="curve"/>
      <point x="53" y="258" type="line"/>
      <point x="57" y="76"/>
      <point x="161" y="7"/>
      <point x="258" y="7" type="curve" smooth="yes"/>
      <point x="341" y="7"/>
      <point x="424" y="54"/>
      <point x="455" y="161" type="curve"/>
      <point x="477" y="161" type="line"/>
      <point x="445" y="45"/>
      <point x="356" y="-14"/>
      <point x="256" y="-14" type="curve" smooth="yes"/>
      <point x="134" y="-14"/>
      <point x="30" y="81"/>
      <point x="30" y="265" type="curve" smooth="yes"/>
      <point x="30" y="431"/>
      <point x="134" y="540"/>
      <point x="264" y="540" type="curve" smooth="yes"/>
      <point x="415" y="540"/>
      <point x="485" y="408"/>
    </contour>
    <contour>
      <point x="262" y="519" type="curve" smooth="yes"/>
      <point x="169" y="519"/>
      <point x="57" y="444"/>
      <point x="53" y="279" type="curve"/>
      <point x="463" y="279" type="line"/>
      <point x="459" y="461"/>
      <point x="352" y="519"/>
    </contour>
  </outline>
</glyph>
<glyph name="f" format="1">
  <advance width="230"/>
  <unicode hex="0066"/>
  <outline>
    <contour>
      <point x="106" y="656" type="curve" smooth="yes"/>
      <point x="104" y="634"/>
      <point x="104" y="621"/>
      <point x="104" y="606" type="curve" smooth="yes"/>
      <point x="104" y="522" type="line"/>
      <point x="211" y="522" type="line"/>
      <point x="211" y="501" type="line"/>
      <point x="104" y="501" type="line"/>
      <point x="104" y="0" type="line"/>
      <point x="82" y="0" type="line"/>
      <point x="82" y="501" type="line"/>
      <point x="25" y="501" type="line"/>
      <point x="25" y="522" type="line"/>
      <point x="82" y="522" type="line"/>
      <point x="82" y="606" type="line" smooth="yes"/>
      <point x="82" y="621"/>
      <point x="82" y="638"/>
      <point x="84" y="659" type="curve" smooth="yes"/>
      <point x="90" y="725"/>
      <point x="134" y="754"/>
      <point x="175" y="754" type="curve" smooth="yes"/>
      <point x="195" y="754"/>
      <point x="204" y="753"/>
      <point x="222" y="749" type="curve"/>
      <point x="222" y="728" type="line"/>
      <point x="208" y="731"/>
      <point x="196" y="733"/>
      <point x="184" y="733" type="curve" smooth="yes"/>
      <point x="133" y="733"/>
      <point x="110" y="700"/>
    </contour>
  </outline>
</glyph>
<glyph name="h" format="1">
  <advance width="530"/>
  <unicode hex="0068"/>
  <outline>
    <contour>
      <point x="460" y="378" type="curve" smooth="yes"/>
      <point x="463" y="351"/>
      <point x="464" y="335"/>
      <point x="464" y="292" type="curve" smooth="yes"/>
      <point x="464" y="0" type="line"/>
      <point x="442" y="0" type="line"/>
      <point x="442" y="283" type="line" smooth="yes"/>
      <point x="442" y="320"/>
      <point x="441" y="343"/>
      <point x="438" y="370" type="curve" smooth="yes"/>
      <point x="428" y="459"/>
      <point x="379" y="519"/>
      <point x="279" y="519" type="curve" smooth="yes"/>
      <point x="183" y="519"/>
      <point x="93" y="452"/>
      <point x="93" y="312" type="curve" smooth="yes"/>
      <point x="93" y="0" type="line"/>
      <point x="71" y="0" type="line"/>
      <point x="71" y="740" type="line"/>
      <point x="93" y="740" type="line"/>
      <point x="93" y="406" type="line"/>
      <point x="114" y="458" type="line"/>
      <point x="153" y="513"/>
      <point x="214" y="540"/>
      <point x="279" y="540" type="curve" smooth="yes"/>
      <point x="385" y="540"/>
      <point x="449" y="481"/>
    </contour>
  </outline>
</glyph>
<glyph name="i" format="1">
  <advance width="164"/>
  <unicode hex="0069"/>
  <outline>
    <contour>
      <point x="82" y="653" type="curve" smooth="yes"/>
      <point x="93" y="653"/>
      <point x="102" y="644"/>
      <point x="102" y="633" type="curve" smooth="yes"/>
      <point x="102" y="622"/>
      <point x="93" y="613"/>
      <point x="82" y="613" type="curve" smooth="yes"/>
      <point x="71" y="613"/>
      <point x="62" y="622"/>
      <point x="62" y="633" type="curve" smooth="yes"/>
      <point x="62" y="644"/>
      <point x="71" y="653"/>
    </contour>
    <contour>
      <point x="93" y="0" type="line"/>
      <point x="71" y="0" type="line"/>
      <point x="71" y="526" type="line"/>
      <point x="93" y="526" type="line"/>
    </contour>
  </outline>
</glyph>
<glyph name="m" format="1">
  <advance width="809"/>
  <unicode hex="006D"/>
  <outline>
    <contour>
      <point x="739" y="378" type="curve" smooth="yes"/>
      <point x="742" y="351"/>
      <point x="743" y="335"/>
      <point x="743" y="292" type="curve" smooth="yes"/>
      <point x="743" y="0" type="line"/>
      <point x="721" y="0" type="line"/>
      <point x="721" y="283" type="line" smooth="yes"/>
      <point x="721" y="320"/>
      <point x="720" y="343"/>
      <point x="717" y="370" type="curve" smooth="yes"/>
      <point x="707" y="459"/>
      <point x="666" y="520"/>
      <point x="580" y="520" type="curve" smooth="yes"/>
      <point x="492" y="520"/>
      <point x="418" y="452"/>
      <point x="418" y="302" type="curve" smooth="yes"/>
      <point x="418" y="0" type="line"/>
      <point x="396" y="0" type="line"/>
      <point x="396" y="283" type="line" smooth="yes"/>
      <point x="396" y="320"/>
      <point x="395" y="343"/>
      <point x="392" y="370" type="curve" smooth="yes"/>
      <point x="382" y="459"/>
      <point x="341" y="520"/>
      <point x="255" y="520" type="curve" smooth="yes"/>
      <point x="167" y="520"/>
      <point x="93" y="452"/>
      <point x="93" y="302" type="curve" smooth="yes"/>
      <point x="93" y="0" type="line"/>
      <point x="71" y="0" type="line"/>
      <point x="71" y="526" type="line"/>
      <point x="93" y="526" type="line"/>
      <point x="93" y="414" type="line"/>
      <point x="117" y="471" type="line"/>
      <point x="153" y="518"/>
      <point x="201" y="540"/>
      <point x="256" y="540" type="curve" smooth="yes"/>
      <point x="342" y="540"/>
      <point x="394" y="490"/>
      <point x="410" y="403" type="curve"/>
      <point x="442" y="471" type="line"/>
      <point x="478" y="518"/>
      <point x="526" y="540"/>
      <point x="581" y="540" type="curve" smooth="yes"/>
      <point x="675" y="540"/>
      <point x="728" y="481"/>
    </contour>
  </outline>
</glyph>
<glyph name="o" format="1">
  <advance width="554"/>
  <unicode hex="006F"/>
  <outline>
    <contour>
      <point x="277" y="540" type="curve" smooth="yes"/>
      <point x="425" y="540"/>
      <point x="524" y="429"/>
      <point x="524" y="262" type="curve" smooth="yes"/>
      <point x="524" y="96"/>
      <point x="425" y="-14"/>
      <point x="277" y="-14" type="curve" smooth="yes"/>
      <point x="129" y="-14"/>
      <point x="30" y="96"/>
      <point x="30" y="262" type="curve" smooth="yes"/>
      <point x="30" y="429"/>
      <point x="129" y="540"/>
    </contour>
    <contour>
      <point x="277" y="7" type="curve" smooth="yes"/>
      <point x="391" y="7"/>
      <point x="500" y="86"/>
      <point x="500" y="262" type="curve" smooth="yes"/>
      <point x="500" y="439"/>
      <point x="391" y="519"/>
      <point x="277" y="519" type="curve" smooth="yes"/>
      <point x="163" y="519"/>
      <point x="54" y="439"/>
      <point x="54" y="262" type="curve" smooth="yes"/>
      <point x="54" y="86"/>
      <point x="163" y="7"/>
    </contour>
  </outline>
</glyph>
<glyph name="q" format="1">
  <advance width="545"/>
  <unicode hex="0071"/>
  <outline>
    <contour>
      <point x="474" y="534" type="line"/>
      <point x="474" y="-196" type="line"/>
      <point x="452" y="-196" type="line"/>
      <point x="452" y="122" type="line"/>
      <point x="423" y="60" type="line"/>
      <point x="376" y="4"/>
      <point x="329" y="-14"/>
      <point x="257" y="-14" type="curve" smooth="yes"/>
      <point x="120" y="-14"/>
      <point x="30" y="99"/>
      <point x="30" y="259" type="curve" smooth="yes"/>
      <point x="30" y="445"/>
      <point x="142" y="540"/>
      <point x="269" y="540" type="curve" smooth="yes"/>
      <point x="336" y="540"/>
      <point x="379" y="520"/>
      <point x="422" y="472" type="curve"/>
      <point x="452" y="404" type="line"/>
      <point x="452" y="534" type="line"/>
    </contour>
    <contour>
      <point x="452" y="227" type="line"/>
      <point x="452" y="303" type="line"/>
      <point x="451" y="297" type="line"/>
      <point x="451" y="469"/>
      <point x="351" y="519"/>
      <point x="269" y="519" type="curve" smooth="yes"/>
      <point x="143" y="519"/>
      <point x="54" y="414"/>
      <point x="54" y="263" type="curve" smooth="yes"/>
      <point x="54" y="125"/>
      <point x="126" y="7"/>
      <point x="259" y="7" type="curve" smooth="yes"/>
      <point x="363" y="7"/>
      <point x="451" y="65"/>
      <point x="451" y="238" type="curve"/>
    </contour>
  </outline>
</glyph>
<glyph name="v" format="1">
  <advance width="468"/>
  <unicode hex="0076"/>
  <outline>
    <contour>
      <point x="460" y="526" type="line"/>
      <point x="252" y="0" type="line"/>
      <point x="221" y="0" type="line"/>
      <point x="13" y="526" type="line"/>
      <point x="38" y="526" type="line"/>
      <point x="237" y="19" type="line"/>
      <point x="435" y="526" type="line"/>
    </contour>
  </outline>
</glyph>
<glyph name="w" format="1">
  <advance width="716"/>
  <unicode hex="0077"/>
  <outline>
    <contour>
      <point x="708" y="526" type="line"/>
      <point x="542" y="0" type="line"/>
      <point x="514" y="0" type="line"/>
      <point x="364" y="499" type="line"/>
      <point x="214" y="0" type="line"/>
      <point x="180" y="0" type="line"/>
      <point x="13" y="526" type="line"/>
      <point x="38" y="526" type="line"/>
      <point x="197" y="22" type="line"/>
      <point x="348" y="524" type="line"/>
      <point x="379" y="524" type="line"/>
      <point x="530" y="25" type="line"/>
      <point x="684" y="526" type="line"/>
    </contour>
  </outline>
</glyph>
<glyph name="braceleft" format="1">
  <advance width="296"/>
  <unicode hex="007B"/>
  <outline>
    <contour>
      <point x="284" y="759" type="line"/>
      <point x="266" y="759" type="line" smooth="yes"/>
      <point x="204" y="759"/>
      <point x="160" y="738"/>
      <point x="160" y="670" type="curve" smooth="yes"/>
      <point x="160" y="647"/>
      <point x="163" y="629"/>
      <point x="170" y="575" type="curve" smooth="yes"/>
      <point x="179" y="509"/>
      <point x="181" y="477"/>
      <point x="181" y="455" type="curve" smooth="yes"/>
      <point x="181" y="416"/>
      <point x="166" y="365"/>
      <point x="107" y="351" type="curve"/>
      <point x="166" y="336"/>
      <point x="181" y="283"/>
      <point x="181" y="245" type="curve" smooth="yes"/>
      <point x="181" y="223"/>
      <point x="179" y="191"/>
      <point x="170" y="125" type="curve" smooth="yes"/>
      <point x="163" y="71"/>
      <point x="160" y="53"/>
      <point x="160" y="30" type="curve" smooth="yes"/>
      <point x="160" y="-38"/>
      <point x="204" y="-59"/>
      <point x="266" y="-59" type="curve" smooth="yes"/>
      <point x="284" y="-59" type="line"/>
      <point x="284" y="-80" type="line"/>
      <point x="267" y="-80" type="line" smooth="yes"/>
      <point x="192" y="-80"/>
      <point x="138" y="-52"/>
      <point x="138" y="31" type="curve" smooth="yes"/>
      <point x="138" y="52"/>
      <point x="140" y="74"/>
      <point x="149" y="135" type="curve" smooth="yes"/>
      <point x="157" y="193"/>
      <point x="159" y="221"/>
      <point x="159" y="245" type="curve" smooth="yes"/>
      <point x="159" y="289"/>
      <point x="138" y="333"/>
      <point x="78" y="339" type="curve"/>
      <point x="78" y="361" type="line"/>
      <point x="138" y="367"/>
      <point x="159" y="411"/>
      <point x="159" y="455" type="curve" smooth="yes"/>
      <point x="159" y="479"/>
      <point x="157" y="507"/>
      <point x="149" y="565" type="curve" smooth="yes"/>
      <point x="140" y="626"/>
      <point x="138" y="648"/>
      <point x="138" y="669" type="curve" smooth="yes"/>
      <point x="138" y="752"/>
      <point x="192" y="780"/>
      <point x="267" y="780" type="curve" smooth="yes"/>
      <point x="284" y="780" type="line"/>
    </contour>
  </outline>
</glyph>
<glyph name="bar" format="1">
  <advance width="250"/>
  <unicode hex="007C"/>
  <outline>
    <contour>
      <point x="136" y="-200" type="line"/>
      <point x="114" y="-200" type="line"/>
      <point x="114" y="800" type="line"/>
      <point x="136" y="800" type="line"/>
    </contour>
  </outline>
</glyph>
<glyph name="braceright" format="1">
  <advance width="296"/>
  <unicode hex="007D"/>
  <outline>
    <contour>
      <point x="137" y="455" type="curve" smooth="yes"/>
      <point x="137" y="411"/>
      <point x="158" y="367"/>
      <point x="218" y="361" type="curve"/>
      <point x="218" y="339" type="line"/>
      <point x="158" y="333"/>
      <point x="137" y="289"/>
      <point x="137" y="245" type="curve" smooth="yes"/>
      <point x="137" y="221"/>
      <point x="139" y="193"/>
      <point x="147" y="135" type="curve" smooth="yes"/>
      <point x="156" y="74"/>
      <point x="158" y="52"/>
      <point x="158" y="31" type="curve" smooth="yes"/>
      <point x="158" y="-52"/>
      <point x="104" y="-80"/>
      <point x="29" y="-80" type="curve" smooth="yes"/>
      <point x="12" y="-80" type="line"/>
      <point x="12" y="-59" type="line"/>
      <point x="30" y="-59" type="line" smooth="yes"/>
      <point x="92" y="-59"/>
      <point x="136" y="-38"/>
      <point x="136" y="30" type="curve" smooth="yes"/>
      <point x="136" y="53"/>
      <point x="133" y="71"/>
      <point x="126" y="125" type="curve" smooth="yes"/>
      <point x="117" y="191"/>
      <point x="115" y="223"/>
      <point x="115" y="245" type="curve" smooth="yes"/>
      <point x="115" y="284"/>
      <point x="130" y="335"/>
      <point x="189" y="349" type="curve"/>
      <point x="130" y="364"/>
      <point x="115" y="417"/>
      <point x="115" y="455" type="curve" smooth="yes"/>
      <point x="115" y="477"/>
      <point x="117" y="509"/>
      <point x="126" y="575" type="curve" smooth="yes"/>
      <point x="133" y="629"/>
      <point x="136" y="647"/>
      <point x="136" y="670" type="curve" smooth="yes"/>
      <point x="136" y="738"/>
      <point x="92" y="759"/>
      <point x="30" y="759" type="curve" smooth="yes"/>
      <point x="12" y="759" type="line"/>
      <point x="12" y="780" type="line"/>
      <point x="29" y="780" type="line" smooth="yes"/>
      <point x="104" y="780"/>
      <point x="158" y="752"/>
      <point x="158" y="669" type="curve" smooth="yes"/>
      <point x="158" y="648"/>
      <point x="156" y="626"/>
      <point x="147" y="565" type="curve" smooth="yes"/>
      <point x="139" y="507"/>
      <point x="137" y="479"/>
    </contour>
  </outline>
</glyph>
<glyph name="asciitilde" format="1">
  <advance width="530"/>
  <unicode hex="007E"/>
  <outline>
    <contour>
      <point x="454" y="350" type="curve"/>
      <point x="475" y="350" type="line"/>
      <point x="475" y="267"/>
      <point x="442" y="233"/>
      <point x="388" y="233" type="curve" smooth="yes"/>
      <point x="351" y="233"/>
      <point x="331" y="240"/>
      <point x="259" y="280" type="curve" smooth="yes"/>
      <point x="196" y="315"/>
      <point x="172" y="325"/>
      <point x="141" y="325" type="curve" smooth="yes"/>
      <point x="96" y="325"/>
      <point x="77" y="291"/>
      <point x="77" y="229" type="curve"/>
      <point x="56" y="229" type="line"/>
      <point x="56" y="312"/>
      <point x="89" y="346"/>
      <point x="142" y="346" type="curve" smooth="yes"/>
      <point x="180" y="346"/>
      <point x="201" y="338"/>
      <point x="272" y="299" type="curve" smooth="yes"/>
      <point x="337" y="263"/>
      <point x="359" y="254"/>
      <point x="389" y="254" type="curve" smooth="yes"/>
      <point x="435" y="254"/>
      <point x="454" y="288"/>
    </contour>
  </outline>
</glyph>
<glyph name="exclamdown" format="1">
  <advance width="202"/>
  <unicode hex="00A1"/>
  <outline>
    <contour>
      <point x="101" y="504" type="curve" smooth="yes"/>
      <point x="90" y="504"/>
      <point x="81" y="513"/>
      <point x="81" y="524" type="curve" smooth="yes"/>
      <point x="81" y="535"/>
      <point x="90" y="544"/>
      <point x="101" y="544" type="curve" smooth="yes"/>
      <point x="112" y="544"/>
      <point x="121" y="535"/>
      <point x="121" y="524" type="curve" smooth="yes"/>
      <point x="121" y="513"/>
      <point x="112" y="504"/>
    </contour>
    <contour>
      <point x="91" y="420" type="line"/>
      <point x="111" y="420" type="line"/>
      <point x="115" y="-160" type="line"/>
      <point x="87" y="-160" type="line"/>
    </contour>
  </outline>
</glyph>
<glyph name="cent" format="1">
  <advance width="530"/>
  <unicode hex="00A2"/>
  <outline>
    <contour>
      <point x="287" y="524" type="curve"/>
      <point x="287" y="6" type="line"/>
      <point x="374" y="10"/>
      <point x="449" y="63"/>
      <point x="468" y="157" type="curve"/>
      <point x="490" y="157" type="line"/>
      <point x="470" y="55"/>
      <point x="390" y="-10"/>
      <point x="287" y="-14" type="curve"/>
      <point x="287" y="-90" type="line"/>
      <point x="265" y="-90" type="line"/>
      <point x="265" y="-14" type="line"/>
      <point x="141" y="-8"/>
      <point x="43" y="95"/>
      <point x="43" y="265" type="curve" smooth="yes"/>
      <point x="43" y="427"/>
      <point x="142" y="533"/>
      <point x="265" y="543" type="curve"/>
      <point x="265" y="620" type="line"/>
      <point x="287" y="620" type="line"/>
      <point x="287" y="544" type="line"/>
      <point x="399" y="543"/>
      <point x="479" y="471"/>
      <point x="494" y="367" type="curve"/>
      <point x="472" y="367" type="line"/>
      <point x="455" y="461"/>
      <point x="391" y="522"/>
    </contour>
    <contour>
      <point x="67" y="270" type="curve" smooth="yes"/>
      <point x="67" y="99"/>
      <point x="164" y="13"/>
      <point x="265" y="6" type="curve"/>
      <point x="265" y="523" type="line"/>
      <point x="170" y="514"/>
      <point x="67" y="430"/>
    </contour>
  </outline>
</glyph>
<glyph name="sterling" format="1">
  <advance width="530"/>
  <unicode hex="00A3"/>
  <outline>
    <contour>
      <point x="474" y="21" type="line"/>
      <point x="474" y="0" type="line"/>
      <point x="55" y="0" type="line"/>
      <point x="55" y="20" type="line"/>
      <point x="132" y="42"/>
      <point x="211" y="101"/>
      <point x="211" y="205" type="curve" smooth="yes"/>
      <point x="211" y="255"/>
      <point x="193" y="297"/>
      <point x="159" y="352" type="curve"/>
      <point x="64" y="352" type="line"/>
      <point x="64" y="373" type="line"/>
      <point x="146" y="373" type="line"/>
      <point x="119" y="417"/>
      <point x="99" y="465"/>
      <point x="99" y="524" type="curve" smooth="yes"/>
      <point x="99" y="631"/>
      <point x="180" y="704"/>
      <point x="285" y="704" type="curve" smooth="yes"/>
      <point x="410" y="704"/>
      <point x="465" y="621"/>
      <point x="473" y="508" type="curve"/>
      <point x="451" y="508" type="line"/>
      <point x="444" y="620"/>
      <point x="387" y="683"/>
      <point x="283" y="683" type="curve" smooth="yes"/>
      <point x="198" y="683"/>
      <point x="123" y="621"/>
      <point x="123" y="525" type="curve" smooth="yes"/>
      <point x="123" y="473"/>
      <point x="140" y="428"/>
      <point x="173" y="373" type="curve"/>
      <point x="408" y="373" type="line"/>
      <point x="408" y="352" type="line"/>
      <point x="186" y="352" type="line"/>
      <point x="219" y="301"/>
      <point x="235" y="252"/>
      <point x="235" y="205" type="curve" smooth="yes"/>
      <point x="235" y="126"/>
      <point x="191" y="60"/>
      <point x="106" y="21" type="curve"/>
    </contour>
  </outline>
</glyph>
<glyph name="currency" format="1">
  <advance width="530"/>
  <unicode hex="00A4"/>
  <outline>
    <contour>
      <point x="441" y="301" type="curve" smooth="yes"/>
      <point x="441" y="253"/>
      <point x="425" y="211"/>
      <point x="398" y="180" type="curve"/>
      <point x="455" y="123" type="line"/>
      <point x="439" y="107" type="line"/>
      <point x="382" y="164" type="line"/>
      <point x="351" y="137"/>
      <point x="311" y="121"/>
      <point x="265" y="121" type="curve" smooth="yes"/>
      <point x="219" y="121"/>
      <point x="179" y="137"/>
      <point x="148" y="164" type="curve"/>
      <point x="91" y="107" type="line"/>
      <point x="75" y="123" type="line"/>
      <point x="132" y="180" type="line"/>
      <point x="105" y="211"/>
      <point x="89" y="253"/>
      <point x="89" y="301" type="curve" smooth="yes"/>
      <point x="89" y="349"/>
      <point x="105" y="391"/>
      <point x="132" y="422" type="curve"/>
      <point x="75" y="479" type="line"/>
      <point x="91" y="495" type="line"/>
      <point x="148" y="438" type="line"/>
      <point x="179" y="465"/>
      <point x="219" y="481"/>
      <point x="265" y="481" type="curve" smooth="yes"/>
      <point x="311" y="481"/>
      <point x="351" y="465"/>
      <point x="382" y="438" type="curve"/>
      <point x="439" y="495" type="line"/>
      <point x="455" y="479" type="line"/>
      <point x="398" y="422" type="line"/>
      <point x="425" y="391"/>
      <point x="441" y="349"/>
    </contour>
    <contour>
      <point x="265" y="142" type="curve" smooth="yes"/>
      <point x="354" y="142"/>
      <point x="417" y="211"/>
      <point x="417" y="301" type="curve" smooth="yes"/>
      <point x="417" y="391"/>
      <point x="354" y="460"/>
      <point x="265" y="460" type="curve" smooth="yes"/>
      <point x="176" y="460"/>
      <point x="113" y="391"/>
      <point x="113" y="301" type="curve" smooth="yes"/>
      <point x="113" y="211"/>
      <point x="176" y="142"/>
    </contour>
  </outline>
</glyph>
<glyph name="yen" format="1">
  <advance width="530"/>
  <unicode hex="00A5"/>
  <outline>
    <contour>
      <point x="287" y="342" type="line"/>
      <point x="460" y="342" type="line"/>
      <point x="460" y="321" type="line"/>
      <point x="276" y="321" type="line"/>
      <point x="276" y="242" type="line"/>
      <point x="460" y="242" type="line"/>
      <point x="460" y="221" type="line"/>
      <point x="276" y="221" type="line"/>
      <point x="276" y="0" type="line"/>
      <point x="254" y="0" type="line"/>
      <point x="254" y="221" type="line"/>
      <point x="70" y="221" type="line"/>
      <point x="70" y="242" type="line"/>
      <point x="254" y="242" type="line"/>
      <point x="254" y="321" type="line"/>
      <point x="70" y="321" type="line"/>
      <point x="70" y="342" type="line"/>
      <point x="242" y="342" type="line"/>
      <point x="21" y="690" type="line"/>
      <point x="51" y="690" type="line"/>
      <point x="265" y="345" type="line"/>
      <point x="479" y="690" type="line"/>
      <point x="507" y="690" type="line"/>
    </contour>
  </outline>
</glyph>
<glyph name="brokenbar" format="1">
  <advance width="250"/>
  <unicode hex="00A6"/>
  <outline>
    <contour>
      <point x="136" y="350" type="line"/>
      <point x="114" y="350" type="line"/>
      <point x="114" y="690" type="line"/>
      <point x="136" y="690" type="line"/>
    </contour>
    <contour>
      <point x="136" y="-160" type="line"/>
      <point x="114" y="-160" type="line"/>
      <point x="114" y="180" type="line"/>
      <point x="136" y="180" type="line"/>
    </contour>
  </outline>
</glyph>
<glyph name="section" format="1">
  <advance width="530"/>
  <unicode hex="00A7"/>
  <outline>
    <contour>
      <point x="499" y="259" type="curve" smooth="yes"/>
      <point x="499" y="166"/>
      <point x="428" y="117"/>
      <point x="344" y="104" type="curve"/>
      <point x="418" y="73"/>
      <point x="448" y="29"/>
      <point x="448" y="-37" type="curve" smooth="yes"/>
      <point x="448" y="-121"/>
      <point x="372" y="-174"/>
      <point x="269" y="-174" type="curve" smooth="yes"/>
      <point x="167" y="-174"/>
      <point x="99" y="-124"/>
      <point x="74" y="-9" type="curve"/>
      <point x="96" y="-9" type="line"/>
      <point x="121" y="-108"/>
      <point x="180" y="-153"/>
      <point x="271" y="-153" type="curve" smooth="yes"/>
      <point x="354" y="-153"/>
      <point x="424" y="-111"/>
      <point x="424" y="-39" type="curve" smooth="yes"/>
      <point x="424" y="36"/>
      <point x="386" y="79"/>
      <point x="231" y="112" type="curve" smooth="yes"/>
      <point x="148" y="130"/>
      <point x="49" y="182"/>
      <point x="49" y="278" type="curve" smooth="yes"/>
      <point x="49" y="370"/>
      <point x="116" y="417"/>
      <point x="194" y="432" type="curve"/>
      <point x="141" y="455"/>
      <point x="99" y="495"/>
      <point x="99" y="562" type="curve" smooth="yes"/>
      <point x="99" y="649"/>
      <point x="166" y="704"/>
      <point x="262" y="704" type="curve" smooth="yes"/>
      <point x="371" y="704"/>
      <point x="425" y="637"/>
      <point x="442" y="549" type="curve"/>
      <point x="420" y="549" type="line"/>
      <point x="397" y="639"/>
      <point x="347" y="683"/>
      <point x="261" y="683" type="curve" smooth="yes"/>
      <point x="188" y="683"/>
      <point x="123" y="643"/>
      <point x="123" y="565" type="curve" smooth="yes"/>
      <point x="123" y="478"/>
      <point x="207" y="443"/>
      <point x="291" y="428" type="curve" smooth="yes"/>
      <point x="412" y="406"/>
      <point x="499" y="355"/>
    </contour>
    <contour>
      <point x="303" y="119" type="curve"/>
      <point x="385" y="120"/>
      <point x="475" y="160"/>
      <point x="475" y="257" type="curve" smooth="yes"/>
      <point x="475" y="337"/>
      <point x="406" y="381"/>
      <point x="280" y="406" type="curve" smooth="yes"/>
      <point x="263" y="409"/>
      <point x="245" y="414"/>
      <point x="227" y="419" type="curve"/>
      <point x="156" y="412"/>
      <point x="73" y="379"/>
      <point x="73" y="281" type="curve" smooth="yes"/>
      <point x="73" y="200"/>
      <point x="157" y="151"/>
      <point x="241" y="134" type="curve" smooth="yes"/>
      <point x="264" y="130"/>
      <point x="284" y="125"/>
    </contour>
  </outline>
</glyph>
<glyph name="dieresis" format="1">
  <advance width="300"/>
  <unicode hex="00A8"/>
  <outline>
    <contour>
      <point x="110" y="653" type="curve" smooth="yes"/>
      <point x="121" y="653"/>
      <point x="130" y="644"/>
      <point x="130" y="633" type="curve" smooth="yes"/>
      <point x="130" y="622"/>
      <point x="121" y="613"/>
      <point x="110" y="613" type="curve" smooth="yes"/>
      <point x="99" y="613"/>
      <point x="90" y="622"/>
      <point x="90" y="633" type="curve" smooth="yes"/>
      <point x="90" y="644"/>
      <point x="99" y="653"/>
    </contour>
    <contour>
      <point x="190" y="653" type="curve" smooth="yes"/>
      <point x="201" y="653"/>
      <point x="210" y="644"/>
      <point x="210" y="633" type="curve" smooth="yes"/>
      <point x="210" y="622"/>
      <point x="201" y="613"/>
      <point x="190" y="613" type="curve" smooth="yes"/>
      <point x="179" y="613"/>
      <point x="170" y="622"/>
      <point x="170" y="633" type="curve" smooth="yes"/>
      <point x="170" y="644"/>
      <point x="179" y="653"/>
    </contour>
  </outline>
</glyph>
<glyph name="copyright" format="1">
  <advance width="838"/>
  <unicode hex="00A9"/>
  <outline>
    <contour>
      <point x="419" y="726" type="curve" smooth="yes"/>
      <point x="622" y="726"/>
      <point x="782" y="562"/>
      <point x="782" y="355" type="curve" smooth="yes"/>
      <point x="782" y="148"/>
      <point x="622" y="-16"/>
      <point x="419" y="-16" type="curve" smooth="yes"/>
      <point x="216" y="-16"/>
      <point x="56" y="148"/>
      <point x="56" y="355" type="curve" smooth="yes"/>
      <point x="56" y="562"/>
      <point x="216" y="726"/>
    </contour>
    <contour>
      <point x="419" y="704" type="curve" smooth="yes"/>
      <point x="229" y="704"/>
      <point x="78" y="549"/>
      <point x="78" y="355" type="curve" smooth="yes"/>
      <point x="78" y="161"/>
      <point x="229" y="7"/>
      <point x="419" y="7" type="curve" smooth="yes"/>
      <point x="609" y="7"/>
      <point x="760" y="161"/>
      <point x="760" y="355" type="curve" smooth="yes"/>
      <point x="760" y="549"/>
      <point x="609" y="704"/>
    </contour>
    <contour>
      <point x="422" y="564" type="curve" smooth="yes"/>
      <point x="506" y="564"/>
      <point x="573" y="518"/>
      <point x="585" y="426" type="curve"/>
      <point x="563" y="426" type="line"/>
      <point x="549" y="497"/>
      <point x="503" y="543"/>
      <point x="422" y="543" type="curve" smooth="yes"/>
      <point x="324" y="543"/>
      <point x="265" y="454"/>
      <point x="265" y="356" type="curve" smooth="yes"/>
      <point x="265" y="251"/>
      <point x="328" y="170"/>
      <point x="418" y="170" type="curve" smooth="yes"/>
      <point x="494" y="170"/>
      <point x="545" y="208"/>
      <point x="562" y="286" type="curve"/>
      <point x="584" y="286" type="line"/>
      <point x="566" y="194"/>
      <point x="503" y="149"/>
      <point x="415" y="149" type="curve" smooth="yes"/>
      <point x="323" y="149"/>
      <point x="243" y="227"/>
      <point x="243" y="355" type="curve" smooth="yes"/>
      <point x="243" y="485"/>
      <point x="324" y="564"/>
    </contour>
  </outline>
</glyph>
<glyph name="guillemotleft" format="1">
  <advance width="502"/>
  <unicode hex="00AB"/>
  <outline>
    <contour>
      <point x="305" y="414" type="line"/>
      <point x="168" y="248" type="line"/>
      <point x="305" y="82" type="line"/>
      <point x="276" y="82" type="line"/>
      <point x="139" y="248" type="line"/>
      <point x="276" y="414" type="line"/>
    </contour>
    <contour>
      <point x="425" y="414" type="line"/>
      <point x="288" y="248" type="line"/>
      <point x="425" y="82" type="line"/>
      <point x="396" y="82" type="line"/>
      <point x="259" y="248" type="line"/>
      <point x="396" y="414" type="line"/>
    </contour>
  </outline>
</glyph>
<glyph name="logicalnot" format="1">
  <advance width="530"/>
  <unicode hex="00AC"/>
  <outline>
    <contour>
      <point x="437" y="210" type="line"/>
      <point x="415" y="210" type="line"/>
      <point x="415" y="344" type="line"/>
      <point x="86" y="344" type="line"/>
      <point x="86" y="365" type="line"/>
      <point x="437" y="365" type="line"/>
    </contour>
  </outline>
</glyph>
<glyph name="registered" format="1">
  <advance width="522"/>
  <unicode hex="00AE"/>
  <outline>
    <contour>
      <point x="261" y="764" type="curve" smooth="yes"/>
      <point x="384" y="764"/>
      <point x="471" y="677"/>
      <point x="471" y="555" type="curve" smooth="yes"/>
      <point x="471" y="431"/>
      <point x="384" y="344"/>
      <point x="261" y="344" type="curve" smooth="yes"/>
      <point x="138" y="344"/>
      <point x="51" y="431"/>
      <point x="51" y="555" type="curve" smooth="yes"/>
      <point x="51" y="677"/>
      <point x="138" y="764"/>
    </contour>
    <contour>
      <point x="261" y="365" type="curve" smooth="yes"/>
      <point x="371" y="365"/>
      <point x="448" y="444"/>
      <point x="448" y="555" type="curve" smooth="yes"/>
      <point x="448" y="665"/>
      <point x="371" y="743"/>
      <point x="261" y="743" type="curve" smooth="yes"/>
      <point x="151" y="743"/>
      <point x="74" y="665"/>
      <point x="74" y="555" type="curve" smooth="yes"/>
      <point x="74" y="444"/>
      <point x="151" y="365"/>
    </contour>
    <contour>
      <point x="291" y="549" type="curve"/>
      <point x="305" y="543"/>
      <point x="314" y="530"/>
      <point x="317" y="510" type="curve" smooth="yes"/>
      <point x="321" y="485"/>
      <point x="328" y="467"/>
      <point x="335" y="456" type="curve"/>
      <point x="311" y="456" type="line"/>
      <point x="305" y="468"/>
      <point x="300" y="482"/>
      <point x="296" y="507" type="curve" smooth="yes"/>
      <point x="293" y="526"/>
      <point x="286" y="537"/>
      <point x="264" y="537" type="curve" smooth="yes"/>
      <point x="223" y="537" type="line"/>
      <point x="223" y="456" type="line"/>
      <point x="203" y="456" type="line"/>
      <point x="203" y="660" type="line"/>
      <point x="253" y="660" type="line" smooth="yes"/>
      <point x="260" y="660"/>
      <point x="267" y="660"/>
      <point x="276" y="659" type="curve" smooth="yes"/>
      <point x="310" y="655"/>
      <point x="332" y="637"/>
      <point x="332" y="600" type="curve" smooth="yes"/>
      <point x="332" y="574"/>
      <point x="317" y="556"/>
    </contour>
    <contour>
      <point x="223" y="556" type="line"/>
      <point x="251" y="556" type="line" smooth="yes"/>
      <point x="260" y="556"/>
      <point x="268" y="556"/>
      <point x="274" y="557" type="curve" smooth="yes"/>
      <point x="294" y="560"/>
      <point x="311" y="573"/>
      <point x="311" y="597" type="curve" smooth="yes"/>
      <point x="311" y="625"/>
      <point x="293" y="637"/>
      <point x="275" y="640" type="curve" smooth="yes"/>
      <point x="269" y="641"/>
      <point x="265" y="641"/>
      <point x="259" y="641" type="curve" smooth="yes"/>
      <point x="223" y="641" type="line"/>
    </contour>
  </outline>
</glyph>
<glyph name="macron" format="1">
  <advance width="300"/>
  <unicode hex="00AF"/>
  <outline>
    <contour>
      <point x="220" y="620" type="line"/>
      <point x="80" y="620" type="line"/>
      <point x="80" y="641" type="line"/>
      <point x="220" y="641" type="line"/>
    </contour>
  </outline>
</glyph>
<glyph name="degree" format="1">
  <advance width="276"/>
  <unicode hex="00B0"/>
  <outline>
    <contour>
      <point x="138" y="704" type="curve" smooth="yes"/>
      <point x="197" y="704"/>
      <point x="240" y="662"/>
      <point x="240" y="603" type="curve" smooth="yes"/>
      <point x="240" y="544"/>
      <point x="197" y="502"/>
      <point x="138" y="502" type="curve" smooth="yes"/>
      <point x="79" y="502"/>
      <point x="36" y="544"/>
      <point x="36" y="603" type="curve" smooth="yes"/>
      <point x="36" y="662"/>
      <point x="79" y="704"/>
    </contour>
    <contour>
      <point x="138" y="683" type="curve" smooth="yes"/>
      <point x="91" y="683"/>
      <point x="59" y="651"/>
      <point x="59" y="603" type="curve" smooth="yes"/>
      <point x="59" y="555"/>
      <point x="91" y="523"/>
      <point x="138" y="523" type="curve" smooth="yes"/>
      <point x="185" y="523"/>
      <point x="217" y="555"/>
      <point x="217" y="603" type="curve" smooth="yes"/>
      <point x="217" y="651"/>
      <point x="185" y="683"/>
    </contour>
  </outline>
</glyph>
<glyph name="plusminus" format="1">
  <advance width="530"/>
  <unicode hex="00B1"/>
  <outline>
    <contour>
      <point x="261" y="328" type="line"/>
      <point x="450" y="328" type="line"/>
      <point x="450" y="307" type="line"/>
      <point x="261" y="307" type="line"/>
      <point x="261" y="97" type="line"/>
      <point x="239" y="97" type="line"/>
      <point x="239" y="307" type="line"/>
      <point x="50" y="307" type="line"/>
      <point x="50" y="328" type="line"/>
      <point x="239" y="328" type="line"/>
      <point x="239" y="538" type="line"/>
      <point x="261" y="538" type="line"/>
    </contour>
    <contour>
      <point x="450" y="0" type="line"/>
      <point x="50" y="0" type="line"/>
      <point x="50" y="21" type="line"/>
      <point x="450" y="21" type="line"/>
    </contour>
  </outline>
</glyph>
<glyph name="acute" format="1">
  <advance width="300"/>
  <unicode hex="00B4"/>
  <outline>
    <contour>
      <point x="157" y="580" type="line"/>
      <point x="138" y="580" type="line"/>
      <point x="198" y="690" type="line"/>
      <point x="226" y="690" type="line"/>
    </contour>
  </outline>
</glyph>
<glyph name="paragraph" format="1">
  <advance width="529"/>
  <unicode hex="00B6"/>
  <outline>
    <contour>
      <point x="458" y="690" type="line"/>
      <point x="458" y="-110" type="line"/>
      <point x="436" y="-110" type="line"/>
      <point x="436" y="669" type="line"/>
      <point x="308" y="669" type="line"/>
      <point x="308" y="-110" type="line"/>
      <point x="286" y="-110" type="line"/>
      <point x="286" y="320" type="line"/>
      <point x="263" y="320" type="line" smooth="yes"/>
      <point x="245" y="320"/>
      <point x="224" y="320"/>
      <point x="207" y="321" type="curve" smooth="yes"/>
      <point x="105" y="327"/>
      <point x="50" y="410"/>
      <point x="50" y="505" type="curve" smooth="yes"/>
      <point x="50" y="600"/>
      <point x="105" y="683"/>
      <point x="207" y="689" type="curve" smooth="yes"/>
      <point x="224" y="690"/>
      <point x="245" y="690"/>
      <point x="263" y="690" type="curve" smooth="yes"/>
    </contour>
  </outline>
</glyph>
<glyph name="periodcentered" format="1">
  <advance width="136"/>
  <unicode hex="00B7"/>
  <outline>
    <contour>
      <point x="68" y="327" type="curve" smooth="yes"/>
      <point x="81" y="327"/>
      <point x="90" y="318"/>
      <point x="90" y="305" type="curve" smooth="yes"/>
      <point x="90" y="292"/>
      <point x="81" y="283"/>
      <point x="68" y="283" type="curve" smooth="yes"/>
      <point x="55" y="283"/>
      <point x="46" y="292"/>
      <point x="46" y="305" type="curve" smooth="yes"/>
      <point x="46" y="318"/>
      <point x="55" y="327"/>
    </contour>
  </outline>
</glyph>
<glyph name="cedilla" format="1">
  <advance width="300"/>
  <unicode hex="00B8"/>
  <outline>
    <contour>
      <point x="165" y="7" type="line"/>
      <point x="134" y="-51" type="line"/>
      <point x="188" y="-56"/>
      <point x="222" y="-79"/>
      <point x="222" y="-128" type="curve" smooth="yes"/>
      <point x="222" y="-186"/>
      <point x="170" y="-210"/>
      <point x="121" y="-210" type="curve" smooth="yes"/>
      <point x="99" y="-210"/>
      <point x="82" y="-207"/>
      <point x="68" y="-200" type="curve"/>
      <point x="68" y="-178" type="line"/>
      <point x="83" y="-186"/>
      <point x="99" y="-189"/>
      <point x="121" y="-189" type="curve" smooth="yes"/>
      <point x="166" y="-189"/>
      <point x="199" y="-169"/>
      <point x="199" y="-128" type="curve" smooth="yes"/>
      <point x="199" y="-91"/>
      <point x="172" y="-69"/>
      <point x="113" y="-69" type="curve" smooth="yes"/>
      <point x="101" y="-69" type="line"/>
      <point x="140" y="7" type="line"/>
    </contour>
  </outline>
</glyph>
<glyph name="guillemotright" format="1">
  <advance width="502"/>
  <unicode hex="00BB"/>
  <outline>
    <contour>
      <point x="243" y="248" type="line"/>
      <point x="106" y="82" type="line"/>
      <point x="77" y="82" type="line"/>
      <point x="214" y="248" type="line"/>
      <point x="77" y="414" type="line"/>
      <point x="106" y="414" type="line"/>
    </contour>
    <contour>
      <point x="363" y="248" type="line"/>
      <point x="226" y="82" type="line"/>
      <point x="197" y="82" type="line"/>
      <point x="334" y="248" type="line"/>
      <point x="197" y="414" type="line"/>
      <point x="226" y="414" type="line"/>
    </contour>
  </outline>
</glyph>
<glyph name="questiondown" format="1">
  <advance width="472"/>
  <unicode hex="00BF"/>
  <outline>
    <contour>
      <point x="280" y="499" type="curve" smooth="yes"/>
      <point x="269" y="499"/>
      <point x="260" y="508"/>
      <point x="260" y="519" type="curve" smooth="yes"/>
      <point x="260" y="530"/>
      <point x="269" y="539"/>
      <point x="280" y="539" type="curve" smooth="yes"/>
      <point x="291" y="539"/>
      <point x="300" y="530"/>
      <point x="300" y="519" type="curve" smooth="yes"/>
      <point x="300" y="508"/>
      <point x="291" y="499"/>
    </contour>
    <contour>
      <point x="263" y="-179" type="curve" smooth="yes"/>
      <point x="138" y="-179"/>
      <point x="72" y="-100"/>
      <point x="72" y="-1" type="curve" smooth="yes"/>
      <point x="72" y="70"/>
      <point x="109" y="133"/>
      <point x="165" y="186" type="curve" smooth="yes"/>
      <point x="256" y="273"/>
      <point x="271" y="314"/>
      <point x="271" y="415" type="curve"/>
      <point x="291" y="415" type="line"/>
      <point x="290" y="305"/>
      <point x="277" y="267"/>
      <point x="181" y="173" type="curve" smooth="yes"/>
      <point x="123" y="116"/>
      <point x="96" y="63"/>
      <point x="96" y="-1" type="curve" smooth="yes"/>
      <point x="96" y="-100"/>
      <point x="163" y="-158"/>
      <point x="263" y="-158" type="curve" smooth="yes"/>
      <point x="377" y="-158"/>
      <point x="442" y="-82"/>
      <point x="450" y="31" type="curve"/>
      <point x="472" y="31" type="line"/>
      <point x="467" y="-93"/>
      <point x="383" y="-179"/>
    </contour>
  </outline>
</glyph>
<glyph name="Aacute" format="1">
  <advance width="616"/>
  <unicode hex="00C1"/>
  <outline>
    <contour>
      <point x="324" y="736" type="line"/>
      <point x="305" y="736" type="line"/>
      <point x="358" y="830" type="line"/>
      <point x="386" y="830" type="line"/>
    </contour>
    <contour>
      <point x="471" y="269" type="line"/>
      <point x="162" y="269" type="line"/>
      <point x="59" y="0" type="line"/>
      <point x="36" y="0" type="line"/>
      <point x="303" y="690" type="line"/>
      <point x="332" y="690" type="line"/>
      <point x="599" y="0" type="line"/>
      <point x="575" y="0" type="line"/>
    </contour>
    <contour>
      <point x="170" y="290" type="line"/>
      <point x="462" y="290" type="line"/>
      <point x="317" y="671" type="line"/>
    </contour>
  </outline>
</glyph>
<glyph name="Acircumflex" format="1">
  <advance width="616"/>
  <unicode hex="00C2"/>
  <outline>
    <contour>
      <point x="264" y="736" type="line"/>
      <point x="241" y="736" type="line"/>
      <point x="306" y="830" type="line"/>
      <point x="329" y="830" type="line"/>
      <point x="394" y="736" type="line"/>
      <point x="370" y="736" type="line"/>
      <point x="317" y="816" type="line"/>
    </contour>
    <contour>
      <point x="471" y="269" type="line"/>
      <point x="162" y="269" type="line"/>
      <point x="59" y="0" type="line"/>
      <point x="36" y="0" type="line"/>
      <point x="303" y="690" type="line"/>
      <point x="332" y="690" type="line"/>
      <point x="599" y="0" type="line"/>
      <point x="575" y="0" type="line"/>
    </contour>
    <contour>
      <point x="170" y="290" type="line"/>
      <point x="462" y="290" type="line"/>
      <point x="317" y="671" type="line"/>
    </contour>
  </outline>
</glyph>
<glyph name="Atilde" format="1">
  <advance width="616"/>
  <unicode hex="00C3"/>
  <outline>
    <contour>
      <point x="265" y="786" type="curve" smooth="yes"/>
      <point x="255" y="786"/>
      <point x="249" y="780"/>
      <point x="249" y="765" type="curve"/>
      <point x="229" y="765" type="line"/>
      <point x="229" y="791"/>
      <point x="241" y="806"/>
      <point x="265" y="806" type="curve" smooth="yes"/>
      <point x="281" y="806"/>
      <point x="295" y="802"/>
      <point x="322" y="793" type="curve" smooth="yes"/>
      <point x="346" y="785"/>
      <point x="360" y="781"/>
      <point x="369" y="781" type="curve" smooth="yes"/>
      <point x="379" y="781"/>
      <point x="385" y="787"/>
      <point x="385" y="802" type="curve"/>
      <point x="405" y="802" type="line"/>
      <point x="405" y="776"/>
      <point x="393" y="761"/>
      <point x="369" y="761" type="curve" smooth="yes"/>
      <point x="353" y="761"/>
      <point x="339" y="765"/>
      <point x="312" y="774" type="curve" smooth="yes"/>
      <point x="288" y="782"/>
      <point x="274" y="786"/>
    </contour>
    <contour>
      <point x="471" y="269" type="line"/>
      <point x="162" y="269" type="line"/>
      <point x="59" y="0" type="line"/>
      <point x="36" y="0" type="line"/>
      <point x="303" y="690" type="line"/>
      <point x="332" y="690" type="line"/>
      <point x="599" y="0" type="line"/>
      <point x="575" y="0" type="line"/>
    </contour>
    <contour>
      <point x="170" y="290" type="line"/>
      <point x="462" y="290" type="line"/>
      <point x="317" y="671" type="line"/>
    </contour>
  </outline>
</glyph>
<glyph name="Adieresis" format="1">
  <advance width="616"/>
  <unicode hex="00C4"/>
  <outline>
    <contour>
      <point x="282" y="763" type="curve" smooth="yes"/>
      <point x="271" y="763"/>
      <point x="262" y="772"/>
      <point x="262" y="783" type="curve" smooth="yes"/>
      <point x="262" y="794"/>
      <point x="271" y="803"/>
      <point x="282" y="803" type="curve" smooth="yes"/>
      <point x="293" y="803"/>
      <point x="302" y="794"/>
      <point x="302" y="783" type="curve" smooth="yes"/>
      <point x="302" y="772"/>
      <point x="293" y="763"/>
    </contour>
    <contour>
      <point x="352" y="763" type="curve" smooth="yes"/>
      <point x="341" y="763"/>
      <point x="332" y="772"/>
      <point x="332" y="783" type="curve" smooth="yes"/>
      <point x="332" y="794"/>
      <point x="341" y="803"/>
      <point x="352" y="803" type="curve" smooth="yes"/>
      <point x="363" y="803"/>
      <point x="372" y="794"/>
      <point x="372" y="783" type="curve" smooth="yes"/>
      <point x="372" y="772"/>
      <point x="363" y="763"/>
    </contour>
    <contour>
      <point x="471" y="269" type="line"/>
      <point x="162" y="269" type="line"/>
      <point x="59" y="0" type="line"/>
      <point x="36" y="0" type="line"/>
      <point x="303" y="690" type="line"/>
      <point x="332" y="690" type="line"/>
      <point x="599" y="0" type="line"/>
      <point x="575" y="0" type="line"/>
    </contour>
    <contour>
      <point x="170" y="290" type="line"/>
      <point x="462" y="290" type="line"/>
      <point x="317" y="671" type="line"/>
    </contour>
  </outline>
</glyph>
<glyph name="Aring" format="1">
  <advance width="616"/>
  <unicode hex="00C5"/>
  <outline>
    <contour>
      <point x="317" y="722" type="curve" smooth="yes"/>
      <point x="283" y="722"/>
      <point x="254" y="745"/>
      <point x="254" y="783" type="curve" smooth="yes"/>
      <point x="254" y="821"/>
      <point x="283" y="844"/>
      <point x="317" y="844" type="curve" smooth="yes"/>
      <point x="351" y="844"/>
      <point x="380" y="821"/>
      <point x="380" y="783" type="curve" smooth="yes"/>
      <point x="380" y="745"/>
      <point x="351" y="722"/>
    </contour>
    <contour>
      <point x="317" y="823" type="curve" smooth="yes"/>
      <point x="292" y="823"/>
      <point x="278" y="805"/>
      <point x="278" y="783" type="curve" smooth="yes"/>
      <point x="278" y="761"/>
      <point x="292" y="743"/>
      <point x="317" y="743" type="curve" smooth="yes"/>
      <point x="342" y="743"/>
      <point x="356" y="761"/>
      <point x="356" y="783" type="curve" smooth="yes"/>
      <point x="356" y="805"/>
      <point x="342" y="823"/>
    </contour>
    <contour>
      <point x="471" y="269" type="line"/>
      <point x="162" y="269" type="line"/>
      <point x="59" y="0" type="line"/>
      <point x="36" y="0" type="line"/>
      <point x="303" y="690" type="line"/>
      <point x="332" y="690" type="line"/>
      <point x="599" y="0" type="line"/>
      <point x="575" y="0" type="line"/>
    </contour>
    <contour>
      <point x="170" y="290" type="line"/>
      <point x="462" y="290" type="line"/>
      <point x="317" y="671" type="line"/>
    </contour>
  </outline>
</glyph>
<glyph name="AE" format="1">
  <advance width="897"/>
  <unicode hex="00C6"/>
  <outline>
    <contour>
      <point x="865" y="20" type="line"/>
      <point x="865" y="0" type="line"/>
      <point x="463" y="0" type="line"/>
      <point x="451" y="269" type="line"/>
      <point x="184" y="269" type="line"/>
      <point x="16" y="0" type="line"/>
      <point x="-10" y="0" type="line"/>
      <point x="424" y="690" type="line"/>
      <point x="855" y="690" type="line"/>
      <point x="855" y="670" type="line"/>
      <point x="456" y="670" type="line"/>
      <point x="470" y="355" type="line"/>
      <point x="835" y="355" type="line"/>
      <point x="835" y="335" type="line"/>
      <point x="470" y="335" type="line"/>
      <point x="484" y="20" type="line"/>
    </contour>
    <contour>
      <point x="451" y="290" type="line"/>
      <point x="434" y="668" type="line"/>
      <point x="198" y="290" type="line"/>
    </contour>
  </outline>
</glyph>
<glyph name="Ccedilla" format="1">
  <advance width="677"/>
  <unicode hex="00C7"/>
  <outline>
    <contour>
      <point x="628" y="227" type="line"/>
      <point x="626" y="217" type="line" smooth="yes"/>
      <point x="601" y="92"/>
      <point x="520" y="-8"/>
      <point x="364" y="-14" type="curve"/>
      <point x="344" y="-51" type="line"/>
      <point x="398" y="-56"/>
      <point x="432" y="-79"/>
      <point x="432" y="-128" type="curve" smooth="yes"/>
      <point x="432" y="-186"/>
      <point x="380" y="-210"/>
      <point x="331" y="-210" type="curve" smooth="yes"/>
      <point x="309" y="-210"/>
      <point x="292" y="-207"/>
      <point x="278" y="-200" type="curve"/>
      <point x="278" y="-178" type="line"/>
      <point x="293" y="-186"/>
      <point x="309" y="-189"/>
      <point x="331" y="-189" type="curve" smooth="yes"/>
      <point x="376" y="-189"/>
      <point x="409" y="-169"/>
      <point x="409" y="-128" type="curve" smooth="yes"/>
      <point x="409" y="-91"/>
      <point x="382" y="-69"/>
      <point x="323" y="-69" type="curve" smooth="yes"/>
      <point x="311" y="-69" type="line"/>
      <point x="339" y="-14" type="line"/>
      <point x="174" y="-8"/>
      <point x="51" y="123"/>
      <point x="51" y="343" type="curve" smooth="yes"/>
      <point x="51" y="558"/>
      <point x="187" y="704"/>
      <point x="364" y="704" type="curve" smooth="yes"/>
      <point x="515" y="704"/>
      <point x="599" y="608"/>
      <point x="624" y="484" type="curve" smooth="yes"/>
      <point x="626" y="474" type="line"/>
      <point x="604" y="474" type="line"/>
      <point x="602" y="484" type="line" smooth="yes"/>
      <point x="579" y="597"/>
      <point x="497" y="683"/>
      <point x="360" y="683" type="curve" smooth="yes"/>
      <point x="216" y="683"/>
      <point x="75" y="565"/>
      <point x="75" y="344" type="curve" smooth="yes"/>
      <point x="75" y="115"/>
      <point x="204" y="7"/>
      <point x="352" y="7" type="curve" smooth="yes"/>
      <point x="500" y="7"/>
      <point x="580" y="99"/>
      <point x="604" y="217" type="curve" smooth="yes"/>
      <point x="606" y="227" type="line"/>
    </contour>
  </outline>
</glyph>
<glyph name="Egrave" format="1">
  <advance width="557"/>
  <unicode hex="00C8"/>
  <outline>
    <contour>
      <point x="280" y="736" type="line"/>
      <point x="218" y="830" type="line"/>
      <point x="246" y="830" type="line"/>
      <point x="299" y="736" type="line"/>
    </contour>
    <contour>
      <point x="525" y="20" type="line"/>
      <point x="525" y="0" type="line"/>
      <point x="96" y="0" type="line"/>
      <point x="96" y="690" type="line"/>
      <point x="515" y="690" type="line"/>
      <point x="515" y="670" type="line"/>
      <point x="118" y="670" type="line"/>
      <point x="118" y="355" type="line"/>
      <point x="495" y="355" type="line"/>
      <point x="495" y="335" type="line"/>
      <point x="118" y="335" type="line"/>
      <point x="118" y="20" type="line"/>
    </contour>
  </outline>
</glyph>
<glyph name="Edieresis" format="1">
  <advance width="557"/>
  <unicode hex="00CB"/>
  <outline>
    <contour>
      <point x="255" y="763" type="curve" smooth="yes"/>
      <point x="244" y="763"/>
      <point x="235" y="772"/>
      <point x="235" y="783" type="curve" smooth="yes"/>
      <point x="235" y="794"/>
      <point x="244" y="803"/>
      <point x="255" y="803" type="curve" smooth="yes"/>
      <point x="266" y="803"/>
      <point x="275" y="794"/>
      <point x="275" y="783" type="curve" smooth="yes"/>
      <point x="275" y="772"/>
      <point x="266" y="763"/>
    </contour>
    <contour>
      <point x="325" y="763" type="curve" smooth="yes"/>
      <point x="314" y="763"/>
      <point x="305" y="772"/>
      <point x="305" y="783" type="curve" smooth="yes"/>
      <point x="305" y="794"/>
      <point x="314" y="803"/>
      <point x="325" y="803" type="curve" smooth="yes"/>
      <point x="336" y="803"/>
      <point x="345" y="794"/>
      <point x="345" y="783" type="curve" smooth="yes"/>
      <point x="345" y="772"/>
      <point x="336" y="763"/>
    </contour>
    <contour>
      <point x="525" y="20" type="line"/>
      <point x="525" y="0" type="line"/>
      <point x="96" y="0" type="line"/>
      <point x="96" y="690" type="line"/>
      <point x="515" y="690" type="line"/>
      <point x="515" y="670" type="line"/>
      <point x="118" y="670" type="line"/>
      <point x="118" y="355" type="line"/>
      <point x="495" y="355" type="line"/>
      <point x="495" y="335" type="line"/>
      <point x="118" y="335" type="line"/>
      <point x="118" y="20" type="line"/>
    </contour>
  </outline>
</glyph>
<glyph name="Icircumflex" format="1">
  <advance width="189"/>
  <unicode hex="00CE"/>
  <outline>
    <contour>
      <point x="184" y="736" type="line"/>
      <point x="160" y="736" type="line"/>
      <point x="107" y="816" type="line"/>
      <point x="54" y="736" type="line"/>
      <point x="31" y="736" type="line"/>
      <point x="96" y="830" type="line"/>
      <point x="119" y="830" type="line"/>
    </contour>
    <contour>
      <point x="96" y="690" type="line"/>
      <point x="118" y="690" type="line"/>
      <point x="118" y="0" type="line"/>
      <point x="96" y="0" type="line"/>
    </contour>
  </outline>
</glyph>
<glyph name="Idieresis" format="1">
  <advance width="189"/>
  <unicode hex="00CF"/>
  <outline>
    <contour>
      <point x="72" y="803" type="curve" smooth="yes"/>
      <point x="83" y="803"/>
      <point x="92" y="794"/>
      <point x="92" y="783" type="curve" smooth="yes"/>
      <point x="92" y="772"/>
      <point x="83" y="763"/>
      <point x="72" y="763" type="curve" smooth="yes"/>
      <point x="61" y="763"/>
      <point x="52" y="772"/>
      <point x="52" y="783" type="curve" smooth="yes"/>
      <point x="52" y="794"/>
      <point x="61" y="803"/>
    </contour>
    <contour>
      <point x="142" y="803" type="curve" smooth="yes"/>
      <point x="153" y="803"/>
      <point x="162" y="794"/>
      <point x="162" y="783" type="curve" smooth="yes"/>
      <point x="162" y="772"/>
      <point x="153" y="763"/>
      <point x="142" y="763" type="curve" smooth="yes"/>
      <point x="131" y="763"/>
      <point x="122" y="772"/>
      <point x="122" y="783" type="curve" smooth="yes"/>
      <point x="122" y="794"/>
      <point x="131" y="803"/>
    </contour>
    <contour>
      <point x="118" y="0" type="line"/>
      <point x="96" y="0" type="line"/>
      <point x="96" y="690" type="line"/>
      <point x="118" y="690" type="line"/>
    </contour>
  </outline>
</glyph>
<glyph name="Eth" format="1">
  <advance width="685"/>
  <unicode hex="00D0"/>
  <outline>
    <contour>
      <point x="374" y="688" type="curve" smooth="yes"/>
      <point x="480" y="680"/>
      <point x="647" y="592"/>
      <point x="647" y="348" type="curve" smooth="yes"/>
      <point x="647" y="105"/>
      <point x="482" y="15"/>
      <point x="389" y="4" type="curve" smooth="yes"/>
      <point x="354" y="0"/>
      <point x="333" y="0"/>
      <point x="301" y="0" type="curve" smooth="yes"/>
      <point x="102" y="0" type="line"/>
      <point x="102" y="323" type="line"/>
      <point x="42" y="323" type="line"/>
      <point x="42" y="344" type="line"/>
      <point x="102" y="344" type="line"/>
      <point x="102" y="690" type="line"/>
      <point x="301" y="690" type="line" smooth="yes"/>
      <point x="333" y="690"/>
      <point x="349" y="690"/>
    </contour>
    <contour>
      <point x="386" y="25" type="curve" smooth="yes"/>
      <point x="495" y="38"/>
      <point x="623" y="141"/>
      <point x="623" y="348" type="curve" smooth="yes"/>
      <point x="623" y="565"/>
      <point x="482" y="657"/>
      <point x="373" y="667" type="curve" smooth="yes"/>
      <point x="351" y="669"/>
      <point x="337" y="669"/>
      <point x="301" y="669" type="curve" smooth="yes"/>
      <point x="124" y="669" type="line"/>
      <point x="124" y="344" type="line"/>
      <point x="308" y="344" type="line"/>
      <point x="308" y="323" type="line"/>
      <point x="124" y="323" type="line"/>
      <point x="124" y="21" type="line"/>
      <point x="301" y="21" type="line" smooth="yes"/>
      <point x="332" y="21"/>
      <point x="353" y="21"/>
    </contour>
  </outline>
</glyph>
<glyph name="Ntilde" format="1">
  <advance width="637"/>
  <unicode hex="00D1"/>
  <outline>
    <contour>
      <point x="279" y="806" type="curve" smooth="yes"/>
      <point x="295" y="806"/>
      <point x="309" y="802"/>
      <point x="336" y="793" type="curve" smooth="yes"/>
      <point x="360" y="785"/>
      <point x="374" y="781"/>
      <point x="383" y="781" type="curve" smooth="yes"/>
      <point x="393" y="781"/>
      <point x="399" y="787"/>
      <point x="399" y="802" type="curve"/>
      <point x="419" y="802" type="line"/>
      <point x="419" y="776"/>
      <point x="407" y="761"/>
      <point x="383" y="761" type="curve" smooth="yes"/>
      <point x="367" y="761"/>
      <point x="353" y="765"/>
      <point x="326" y="774" type="curve" smooth="yes"/>
      <point x="302" y="782"/>
      <point x="288" y="786"/>
      <point x="279" y="786" type="curve" smooth="yes"/>
      <point x="269" y="786"/>
      <point x="263" y="780"/>
      <point x="263" y="765" type="curve"/>
      <point x="243" y="765" type="line"/>
      <point x="243" y="791"/>
      <point x="255" y="806"/>
    </contour>
    <contour>
      <point x="566" y="0" type="line"/>
      <point x="532" y="0" type="line"/>
      <point x="116" y="670" type="line"/>
      <point x="118" y="577"/>
      <point x="118" y="468"/>
      <point x="118" y="375" type="curve" smooth="yes"/>
      <point x="118" y="0" type="line"/>
      <point x="96" y="0" type="line"/>
      <point x="96" y="690" type="line"/>
      <point x="129" y="690" type="line"/>
      <point x="546" y="20" type="line"/>
      <point x="544" y="113"/>
      <point x="544" y="222"/>
      <point x="544" y="315" type="curve" smooth="yes"/>
      <point x="544" y="690" type="line"/>
      <point x="566" y="690" type="line"/>
    </contour>
  </outline>
</glyph>
<glyph name="Otilde" format="1">
  <advance width="713"/>
  <unicode hex="00D5"/>
  <outline>
    <contour>
      <point x="311" y="786" type="curve" smooth="yes"/>
      <point x="301" y="786"/>
      <point x="295" y="780"/>
      <point x="295" y="765" type="curve"/>
      <point x="275" y="765" type="line"/>
      <point x="275" y="791"/>
      <point x="287" y="806"/>
      <point x="311" y="806" type="curve" smooth="yes"/>
      <point x="327" y="806"/>
      <point x="341" y="802"/>
      <point x="368" y="793" type="curve" smooth="yes"/>
      <point x="392" y="785"/>
      <point x="406" y="781"/>
      <point x="415" y="781" type="curve" smooth="yes"/>
      <point x="425" y="781"/>
      <point x="431" y="787"/>
      <point x="431" y="802" type="curve"/>
      <point x="451" y="802" type="line"/>
      <point x="451" y="776"/>
      <point x="439" y="761"/>
      <point x="415" y="761" type="curve" smooth="yes"/>
      <point x="399" y="761"/>
      <point x="385" y="765"/>
      <point x="358" y="774" type="curve" smooth="yes"/>
      <point x="334" y="782"/>
      <point x="320" y="786"/>
    </contour>
    <contour>
      <point x="363" y="704" type="curve" smooth="yes"/>
      <point x="551" y="704"/>
      <point x="675" y="552"/>
      <point x="675" y="345" type="curve" smooth="yes"/>
      <point x="675" y="139"/>
      <point x="551" y="-14"/>
      <point x="363" y="-14" type="curve" smooth="yes"/>
      <point x="175" y="-14"/>
      <point x="51" y="139"/>
      <point x="51" y="345" type="curve" smooth="yes"/>
      <point x="51" y="552"/>
      <point x="175" y="704"/>
    </contour>
    <contour>
      <point x="363" y="7" type="curve" smooth="yes"/>
      <point x="517" y="7"/>
      <point x="651" y="129"/>
      <point x="651" y="345" type="curve" smooth="yes"/>
      <point x="651" y="562"/>
      <point x="517" y="683"/>
      <point x="363" y="683" type="curve" smooth="yes"/>
      <point x="209" y="683"/>
      <point x="75" y="562"/>
      <point x="75" y="345" type="curve" smooth="yes"/>
      <point x="75" y="129"/>
      <point x="209" y="7"/>
    </contour>
  </outline>
</glyph>
<glyph name="Odieresis" format="1">
  <advance width="713"/>
  <unicode hex="00D6"/>
  <outline>
    <contour>
      <point x="328" y="763" type="curve" smooth="yes"/>
      <point x="317" y="763"/>
      <point x="308" y="772"/>
      <point x="308" y="783" type="curve" smooth="yes"/>
      <point x="308" y="794"/>
      <point x="317" y="803"/>
      <point x="328" y="803" type="curve" smooth="yes"/>
      <point x="339" y="803"/>
      <point x="348" y="794"/>
      <point x="348" y="783" type="curve" smooth="yes"/>
      <point x="348" y="772"/>
      <point x="339" y="763"/>
    </contour>
    <contour>
      <point x="398" y="763" type="curve" smooth="yes"/>
      <point x="387" y="763"/>
      <point x="378" y="772"/>
      <point x="378" y="783" type="curve" smooth="yes"/>
      <point x="378" y="794"/>
      <point x="387" y="803"/>
      <point x="398" y="803" type="curve" smooth="yes"/>
      <point x="409" y="803"/>
      <point x="418" y="794"/>
      <point x="418" y="783" type="curve" smooth="yes"/>
      <point x="418" y="772"/>
      <point x="409" y="763"/>
    </contour>
    <contour>
      <point x="363" y="704" type="curve" smooth="yes"/>
      <point x="551" y="704"/>
      <point x="675" y="552"/>
      <point x="675" y="345" type="curve" smooth="yes"/>
      <point x="675" y="139"/>
      <point x="551" y="-14"/>
      <point x="363" y="-14" type="curve" smooth="yes"/>
      <point x="175" y="-14"/>
      <point x="51" y="139"/>
      <point x="51" y="345" type="curve" smooth="yes"/>
      <point x="51" y="552"/>
      <point x="175" y="704"/>
    </contour>
    <contour>
      <point x="363" y="7" type="curve" smooth="yes"/>
      <point x="517" y="7"/>
      <point x="651" y="129"/>
      <point x="651" y="345" type="curve" smooth="yes"/>
      <point x="651" y="562"/>
      <point x="517" y="683"/>
      <point x="363" y="683" type="curve" smooth="yes"/>
      <point x="209" y="683"/>
      <point x="75" y="562"/>
      <point x="75" y="345" type="curve" smooth="yes"/>
      <point x="75" y="129"/>
      <point x="209" y="7"/>
    </contour>
  </outline>
</glyph>
<glyph name="multiply" format="1">
  <advance width="530"/>
  <unicode hex="00D7"/>
  <outline>
    <contour>
      <point x="280" y="313" type="line"/>
      <point x="431" y="162" type="line"/>
      <point x="416" y="147" type="line"/>
      <point x="265" y="298" type="line"/>
      <point x="114" y="147" type="line"/>
      <point x="99" y="162" type="line"/>
      <point x="250" y="313" type="line"/>
      <point x="99" y="464" type="line"/>
      <point x="114" y="479" type="line"/>
      <point x="265" y="328" type="line"/>
      <point x="416" y="479" type="line"/>
      <point x="431" y="464" type="line"/>
    </contour>
  </outline>
</glyph>
<glyph name="Oslash" format="1">
  <advance width="713"/>
  <unicode hex="00D8"/>
  <outline>
    <contour>
      <point x="679" y="646" type="line"/>
      <point x="609" y="576" type="line"/>
      <point x="651" y="515"/>
      <point x="675" y="435"/>
      <point x="675" y="345" type="curve" smooth="yes"/>
      <point x="675" y="139"/>
      <point x="551" y="-14"/>
      <point x="363" y="-14" type="curve" smooth="yes"/>
      <point x="265" y="-14"/>
      <point x="184" y="28"/>
      <point x="130" y="97" type="curve"/>
      <point x="62" y="29" type="line"/>
      <point x="47" y="44" type="line"/>
      <point x="117" y="114" type="line"/>
      <point x="75" y="175"/>
      <point x="51" y="255"/>
      <point x="51" y="345" type="curve" smooth="yes"/>
      <point x="51" y="552"/>
      <point x="175" y="704"/>
      <point x="363" y="704" type="curve" smooth="yes"/>
      <point x="461" y="704"/>
      <point x="542" y="663"/>
      <point x="597" y="594" type="curve"/>
      <point x="664" y="661" type="line"/>
    </contour>
    <contour>
      <point x="75" y="345" type="curve" smooth="yes"/>
      <point x="75" y="257"/>
      <point x="97" y="185"/>
      <point x="133" y="130" type="curve"/>
      <point x="580" y="577" type="line"/>
      <point x="527" y="646"/>
      <point x="448" y="683"/>
      <point x="363" y="683" type="curve" smooth="yes"/>
      <point x="209" y="683"/>
      <point x="75" y="562"/>
    </contour>
    <contour>
      <point x="651" y="345" type="curve" smooth="yes"/>
      <point x="651" y="433"/>
      <point x="629" y="505"/>
      <point x="593" y="560" type="curve"/>
      <point x="146" y="113" type="line"/>
      <point x="200" y="44"/>
      <point x="278" y="7"/>
      <point x="363" y="7" type="curve" smooth="yes"/>
      <point x="517" y="7"/>
      <point x="651" y="129"/>
    </contour>
  </outline>
</glyph>
<glyph name="Udieresis" format="1">
  <advance width="600"/>
  <unicode hex="00DC"/>
  <outline>
    <contour>
      <point x="277" y="803" type="curve" smooth="yes"/>
      <point x="288" y="803"/>
      <point x="297" y="794"/>
      <point x="297" y="783" type="curve" smooth="yes"/>
      <point x="297" y="772"/>
      <point x="288" y="763"/>
      <point x="277" y="763" type="curve" smooth="yes"/>
      <point x="266" y="763"/>
      <point x="257" y="772"/>
      <point x="257" y="783" type="curve" smooth="yes"/>
      <point x="257" y="794"/>
      <point x="266" y="803"/>
    </contour>
    <contour>
      <point x="347" y="803" type="curve" smooth="yes"/>
      <point x="358" y="803"/>
      <point x="367" y="794"/>
      <point x="367" y="783" type="curve" smooth="yes"/>
      <point x="367" y="772"/>
      <point x="358" y="763"/>
      <point x="347" y="763" type="curve" smooth="yes"/>
      <point x="336" y="763"/>
      <point x="327" y="772"/>
      <point x="327" y="783" type="curve" smooth="yes"/>
      <point x="327" y="794"/>
      <point x="336" y="803"/>
    </contour>
    <contour>
      <point x="534" y="690" type="line"/>
      <point x="534" y="233" type="line" smooth="yes"/>
      <point x="534" y="218"/>
      <point x="533" y="197"/>
      <point x="531" y="166" type="curve" smooth="yes"/>
      <point x="524" y="60"/>
      <point x="450" y="-14"/>
      <point x="312" y="-14" type="curve" smooth="yes"/>
      <point x="174" y="-14"/>
      <point x="100" y="60"/>
      <point x="93" y="166" type="curve" smooth="yes"/>
      <point x="91" y="197"/>
      <point x="90" y="218"/>
      <point x="90" y="233" type="curve" smooth="yes"/>
      <point x="90" y="690" type="line"/>
      <point x="112" y="690" type="line"/>
      <point x="112" y="229" type="line" smooth="yes"/>
      <point x="112" y="206"/>
      <point x="113" y="188"/>
      <point x="115" y="167" type="curve" smooth="yes"/>
      <point x="123" y="80"/>
      <point x="181" y="7"/>
      <point x="312" y="7" type="curve" smooth="yes"/>
      <point x="443" y="7"/>
      <point x="501" y="80"/>
      <point x="509" y="167" type="curve" smooth="yes"/>
      <point x="511" y="188"/>
      <point x="512" y="206"/>
      <point x="512" y="229" type="curve" smooth="yes"/>
      <point x="512" y="690" type="line"/>
    </contour>
  </outline>
</glyph>
<glyph name="Yacute" format="1">
  <advance width="545"/>
  <unicode hex="00DD"/>
  <outline>
    <contour>
      <point x="286" y="736" type="line"/>
      <point x="267" y="736" type="line"/>
      <point x="320" y="830" type="line"/>
      <point x="348" y="830" type="line"/>
    </contour>
    <contour>
      <point x="290" y="282" type="line"/>
      <point x="290" y="0" type="line"/>
      <point x="268" y="0" type="line"/>
      <point x="268" y="282" type="line"/>
      <point x="23" y="690" type="line"/>
      <point x="49" y="690" type="line"/>
      <point x="280" y="305" type="line"/>
      <point x="509" y="690" type="line"/>
      <point x="536" y="690" type="line"/>
    </contour>
  </outline>
</glyph>
<glyph name="Thorn" format="1">
  <advance width="640"/>
  <unicode hex="00DE"/>
  <outline>
    <contour>
      <point x="348" y="567" type="curve" smooth="yes"/>
      <point x="441" y="555"/>
      <point x="515" y="508"/>
      <point x="515" y="396" type="curve" smooth="yes"/>
      <point x="515" y="281"/>
      <point x="441" y="227"/>
      <point x="348" y="215" type="curve" smooth="yes"/>
      <point x="316" y="211"/>
      <point x="284" y="210"/>
      <point x="249" y="210" type="curve" smooth="yes"/>
      <point x="118" y="210" type="line"/>
      <point x="118" y="0" type="line"/>
      <point x="96" y="0" type="line"/>
      <point x="96" y="690" type="line"/>
      <point x="118" y="690" type="line"/>
      <point x="118" y="572" type="line"/>
      <point x="249" y="572" type="line" smooth="yes"/>
      <point x="284" y="572"/>
      <point x="316" y="571"/>
    </contour>
    <contour>
      <point x="344" y="236" type="curve" smooth="yes"/>
      <point x="428" y="246"/>
      <point x="491" y="292"/>
      <point x="491" y="396" type="curve" smooth="yes"/>
      <point x="491" y="494"/>
      <point x="428" y="536"/>
      <point x="344" y="546" type="curve" smooth="yes"/>
      <point x="312" y="550"/>
      <point x="285" y="551"/>
      <point x="249" y="551" type="curve" smooth="yes"/>
      <point x="118" y="551" type="line"/>
      <point x="118" y="231" type="line"/>
      <point x="249" y="231" type="line" smooth="yes"/>
      <point x="285" y="231"/>
      <point x="312" y="232"/>
    </contour>
  </outline>
</glyph>
<glyph name="germandbls" format="1">
  <advance width="533"/>
  <unicode hex="00DF"/>
  <outline>
    <contour>
      <point x="275" y="754" type="curve" smooth="yes"/>
      <point x="370" y="754"/>
      <point x="453" y="694"/>
      <point x="453" y="589" type="curve" smooth="yes"/>
      <point x="453" y="553"/>
      <point x="445" y="523"/>
      <point x="420" y="486" type="curve"/>
      <point x="363" y="459"/>
      <point x="331" y="435"/>
      <point x="331" y="393" type="curve" smooth="yes"/>
      <point x="331" y="357"/>
      <point x="344" y="330"/>
      <point x="390" y="290" type="curve" smooth="yes"/>
      <point x="456" y="232"/>
      <point x="488" y="186"/>
      <point x="488" y="132" type="curve" smooth="yes"/>
      <point x="488" y="46"/>
      <point x="423" y="-4"/>
      <point x="312" y="-4" type="curve" smooth="yes"/>
      <point x="279" y="-4"/>
      <point x="243" y="-2"/>
      <point x="204" y="6" type="curve"/>
      <point x="204" y="29" type="line"/>
      <point x="244" y="20"/>
      <point x="279" y="17"/>
      <point x="312" y="17" type="curve" smooth="yes"/>
      <point x="404" y="17"/>
      <point x="464" y="57"/>
      <point x="464" y="129" type="curve" smooth="yes"/>
      <point x="464" y="173"/>
      <point x="446" y="206"/>
      <point x="378" y="269" type="curve" smooth="yes"/>
      <point x="319" y="323"/>
      <point x="307" y="349"/>
      <point x="307" y="393" type="curve" smooth="yes"/>
      <point x="307" y="445"/>
      <point x="342" y="472"/>
      <point x="407" y="506" type="curve"/>
      <point x="422" y="530"/>
      <point x="429" y="560"/>
      <point x="429" y="588" type="curve" smooth="yes"/>
      <point x="429" y="681"/>
      <point x="359" y="733"/>
      <point x="272" y="733" type="curve" smooth="yes"/>
      <point x="176" y="733"/>
      <point x="103" y="668"/>
      <point x="95" y="552" type="curve" smooth="yes"/>
      <point x="94" y="538"/>
      <point x="93" y="519"/>
      <point x="93" y="492" type="curve" smooth="yes"/>
      <point x="93" y="0" type="line"/>
      <point x="71" y="0" type="line"/>
      <point x="71" y="490" type="line" smooth="yes"/>
      <point x="71" y="510"/>
      <point x="72" y="536"/>
      <point x="73" y="554" type="curve" smooth="yes"/>
      <point x="80" y="681"/>
      <point x="165" y="754"/>
    </contour>
  </outline>
</glyph>
<glyph name="atilde" format="1">
  <advance width="494"/>
  <unicode hex="00E3"/>
  <outline>
    <contour>
      <point x="203" y="651" type="curve" smooth="yes"/>
      <point x="193" y="651"/>
      <point x="187" y="645"/>
      <point x="187" y="630" type="curve"/>
      <point x="167" y="630" type="line"/>
      <point x="167" y="656"/>
      <point x="179" y="671"/>
      <point x="203" y="671" type="curve" smooth="yes"/>
      <point x="219" y="671"/>
      <point x="233" y="667"/>
      <point x="260" y="658" type="curve" smooth="yes"/>
      <point x="284" y="650"/>
      <point x="298" y="646"/>
      <point x="307" y="646" type="curve" smooth="yes"/>
      <point x="317" y="646"/>
      <point x="323" y="652"/>
      <point x="323" y="667" type="curve"/>
      <point x="343" y="667" type="line"/>
      <point x="343" y="641"/>
      <point x="331" y="626"/>
      <point x="307" y="626" type="curve" smooth="yes"/>
      <point x="291" y="626"/>
      <point x="277" y="630"/>
      <point x="250" y="639" type="curve" smooth="yes"/>
      <point x="226" y="647"/>
      <point x="212" y="651"/>
    </contour>
    <contour>
      <point x="409" y="0" type="line"/>
      <point x="402" y="129" type="line"/>
      <point x="379" y="76" type="line"/>
      <point x="342" y="17"/>
      <point x="280" y="-14"/>
      <point x="209" y="-14" type="curve" smooth="yes"/>
      <point x="109" y="-14"/>
      <point x="47" y="33"/>
      <point x="47" y="127" type="curve" smooth="yes"/>
      <point x="47" y="250"/>
      <point x="203" y="303"/>
      <point x="367" y="303" type="curve" smooth="yes"/>
      <point x="401" y="303" type="line"/>
      <point x="401" y="330" type="line" smooth="yes"/>
      <point x="401" y="355"/>
      <point x="401" y="375"/>
      <point x="399" y="398" type="curve" smooth="yes"/>
      <point x="392" y="477"/>
      <point x="340" y="519"/>
      <point x="254" y="519" type="curve" smooth="yes"/>
      <point x="180" y="519"/>
      <point x="101" y="480"/>
      <point x="89" y="382" type="curve"/>
      <point x="67" y="382" type="line"/>
      <point x="73" y="470"/>
      <point x="150" y="540"/>
      <point x="254" y="540" type="curve" smooth="yes"/>
      <point x="357" y="540"/>
      <point x="414" y="489"/>
      <point x="421" y="401" type="curve" smooth="yes"/>
      <point x="423" y="374"/>
      <point x="423" y="360"/>
      <point x="423" y="332" type="curve" smooth="yes"/>
      <point x="423" y="170" type="line" smooth="yes"/>
      <point x="423" y="110"/>
      <point x="426" y="69"/>
      <point x="432" y="0" type="curve"/>
    </contour>
    <contour>
      <point x="212" y="7" type="curve" smooth="yes"/>
      <point x="325" y="7"/>
      <point x="401" y="105"/>
      <point x="401" y="209" type="curve" smooth="yes"/>
      <point x="401" y="281" type="line"/>
      <point x="387" y="282"/>
      <point x="372" y="282"/>
      <point x="358" y="282" type="curve" smooth="yes"/>
      <point x="216" y="282"/>
      <point x="71" y="237"/>
      <point x="71" y="128" type="curve" smooth="yes"/>
      <point x="71" y="55"/>
      <point x="116" y="7"/>
    </contour>
  </outline>
</glyph>
<glyph name="ae" format="1">
  <advance width="922"/>
  <unicode hex="00E6"/>
  <outline>
    <contour>
      <point x="886" y="277" type="curve" smooth="yes"/>
      <point x="886" y="273"/>
      <point x="886" y="269"/>
      <point x="885" y="258" type="curve"/>
      <point x="454" y="258" type="line"/>
      <point x="458" y="76"/>
      <point x="552" y="7"/>
      <point x="659" y="7" type="curve" smooth="yes"/>
      <point x="742" y="7"/>
      <point x="825" y="54"/>
      <point x="856" y="161" type="curve"/>
      <point x="878" y="161" type="line"/>
      <point x="846" y="45"/>
      <point x="757" y="-14"/>
      <point x="657" y="-14" type="curve" smooth="yes"/>
      <point x="568" y="-14"/>
      <point x="468" y="37"/>
      <point x="444" y="160" type="curve"/>
      <point x="423" y="96" type="line"/>
      <point x="372" y="20"/>
      <point x="304" y="-14"/>
      <point x="219" y="-14" type="curve" smooth="yes"/>
      <point x="129" y="-14"/>
      <point x="47" y="27"/>
      <point x="47" y="127" type="curve" smooth="yes"/>
      <point x="47" y="250"/>
      <point x="223" y="280"/>
      <point x="397" y="280" type="curve" smooth="yes"/>
      <point x="431" y="280" type="line"/>
      <point x="431" y="304" type="line" smooth="yes"/>
      <point x="431" y="444"/>
      <point x="380" y="519"/>
      <point x="259" y="519" type="curve" smooth="yes"/>
      <point x="185" y="519"/>
      <point x="98" y="480"/>
      <point x="86" y="382" type="curve"/>
      <point x="64" y="382" type="line"/>
      <point x="70" y="470"/>
      <point x="153" y="540"/>
      <point x="259" y="540" type="curve" smooth="yes"/>
      <point x="367" y="540"/>
      <point x="434" y="488"/>
      <point x="448" y="381" type="curve"/>
      <point x="477" y="486"/>
      <point x="571" y="540"/>
      <point x="666" y="540" type="curve" smooth="yes"/>
      <point x="823" y="540"/>
      <point x="886" y="408"/>
    </contour>
    <contour>
      <point x="454" y="279" type="curve"/>
      <point x="862" y="279" type="line"/>
      <point x="858" y="461"/>
      <point x="760" y="519"/>
      <point x="664" y="519" type="curve" smooth="yes"/>
      <point x="556" y="519"/>
      <point x="458" y="444"/>
    </contour>
    <contour>
      <point x="431" y="229" type="curve" smooth="yes"/>
      <point x="431" y="258" type="line"/>
      <point x="414" y="259"/>
      <point x="397" y="259"/>
      <point x="380" y="259" type="curve" smooth="yes"/>
      <point x="229" y="259"/>
      <point x="71" y="229"/>
      <point x="71" y="128" type="curve" smooth="yes"/>
      <point x="71" y="55"/>
      <point x="130" y="7"/>
      <point x="222" y="7" type="curve" smooth="yes"/>
      <point x="343" y="7"/>
      <point x="431" y="97"/>
    </contour>
  </outline>
</glyph>
<glyph name="ccedilla" format="1">
  <advance width="517"/>
  <unicode hex="00E7"/>
  <outline>
    <contour>
      <point x="270" y="7" type="line"/>
      <point x="269" y="6" type="line"/>
      <point x="359" y="8"/>
      <point x="435" y="62"/>
      <point x="455" y="157" type="curve"/>
      <point x="477" y="157" type="line"/>
      <point x="456" y="51"/>
      <point x="371" y="-14"/>
      <point x="263" y="-14" type="curve" smooth="yes"/>
      <point x="259" y="-14" type="line"/>
      <point x="239" y="-51" type="line"/>
      <point x="293" y="-56"/>
      <point x="327" y="-79"/>
      <point x="327" y="-128" type="curve" smooth="yes"/>
      <point x="327" y="-186"/>
      <point x="275" y="-210"/>
      <point x="226" y="-210" type="curve" smooth="yes"/>
      <point x="204" y="-210"/>
      <point x="187" y="-207"/>
      <point x="173" y="-200" type="curve"/>
      <point x="173" y="-178" type="line"/>
      <point x="188" y="-186"/>
      <point x="204" y="-189"/>
      <point x="226" y="-189" type="curve" smooth="yes"/>
      <point x="271" y="-189"/>
      <point x="304" y="-169"/>
      <point x="304" y="-128" type="curve" smooth="yes"/>
      <point x="304" y="-91"/>
      <point x="277" y="-69"/>
      <point x="218" y="-69" type="curve" smooth="yes"/>
      <point x="206" y="-69" type="line"/>
      <point x="235" y="-12" type="line"/>
      <point x="119" y="1"/>
      <point x="30" y="101"/>
      <point x="30" y="263" type="curve" smooth="yes"/>
      <point x="30" y="433"/>
      <point x="139" y="540"/>
      <point x="271" y="540" type="curve" smooth="yes"/>
      <point x="385" y="540"/>
      <point x="466" y="468"/>
      <point x="481" y="363" type="curve"/>
      <point x="459" y="363" type="line"/>
      <point x="442" y="458"/>
      <point x="376" y="520"/>
      <point x="269" y="520" type="curve" smooth="yes"/>
      <point x="170" y="520"/>
      <point x="54" y="438"/>
      <point x="54" y="268" type="curve" smooth="yes"/>
      <point x="54" y="101"/>
      <point x="146" y="17"/>
      <point x="245" y="7" type="curve"/>
    </contour>
  </outline>
</glyph>
<glyph name="igrave" format="1">
  <advance width="164"/>
  <unicode hex="00EC"/>
  <outline>
    <contour>
      <point x="79" y="580" type="line"/>
      <point x="60" y="580" type="line"/>
      <point x="-9" y="690" type="line"/>
      <point x="19" y="690" type="line"/>
    </contour>
    <contour>
      <point x="93" y="0" type="line"/>
      <point x="71" y="0" type="line"/>
      <point x="71" y="526" type="line"/>
      <point x="93" y="526" type="line"/>
    </contour>
  </outline>
</glyph>
<glyph name="iacute" format="1">
  <advance width="164"/>
  <unicode hex="00ED"/>
  <outline>
    <contour>
      <point x="89" y="580" type="line"/>
      <point x="70" y="580" type="line"/>
      <point x="130" y="690" type="line"/>
      <point x="158" y="690" type="line"/>
    </contour>
    <contour>
      <point x="93" y="0" type="line"/>
      <point x="71" y="0" type="line"/>
      <point x="71" y="526" type="line"/>
      <point x="93" y="526" type="line"/>
    </contour>
  </outline>
</glyph>
<glyph name="icircumflex" format="1">
  <advance width="164"/>
  <unicode hex="00EE"/>
  <outline>
    <contour>
      <point x="159" y="580" type="line"/>
      <point x="135" y="580" type="line"/>
      <point x="82" y="674" type="line"/>
      <point x="29" y="580" type="line"/>
      <point x="6" y="580" type="line"/>
      <point x="71" y="690" type="line"/>
      <point x="94" y="690" type="line"/>
    </contour>
    <contour>
      <point x="71" y="526" type="line"/>
      <point x="93" y="526" type="line"/>
      <point x="93" y="0" type="line"/>
      <point x="71" y="0" type="line"/>
    </contour>
  </outline>
</glyph>
<glyph name="eth" format="1">
  <advance width="522"/>
  <unicode hex="00F0"/>
  <outline>
    <contour>
      <point x="448" y="694" type="line"/>
      <point x="382" y="667" type="line"/>
      <point x="441" y="601"/>
      <point x="475" y="491"/>
      <point x="475" y="307" type="curve" smooth="yes"/>
      <point x="475" y="83"/>
      <point x="385" y="-13"/>
      <point x="248" y="-14" type="curve" smooth="yes"/>
      <point x="246" y="-14" type="line" smooth="yes"/>
      <point x="109" y="-14"/>
      <point x="30" y="103"/>
      <point x="30" y="257" type="curve" smooth="yes"/>
      <point x="30" y="420"/>
      <point x="116" y="544"/>
      <point x="263" y="544" type="curve" smooth="yes"/>
      <point x="312" y="544"/>
      <point x="357" y="530"/>
      <point x="396" y="499" type="curve"/>
      <point x="445" y="434" type="line"/>
      <point x="435" y="537"/>
      <point x="405" y="610"/>
      <point x="360" y="658" type="curve"/>
      <point x="193" y="589" type="line"/>
      <point x="185" y="609" type="line"/>
      <point x="343" y="674" type="line"/>
      <point x="312" y="700"/>
      <point x="276" y="717"/>
      <point x="234" y="725" type="curve"/>
      <point x="248" y="745" type="line"/>
      <point x="293" y="732"/>
      <point x="332" y="713"/>
      <point x="365" y="683" type="curve"/>
      <point x="440" y="714" type="line"/>
    </contour>
    <contour>
      <point x="451" y="290" type="curve" smooth="yes"/>
      <point x="451" y="309" type="line" smooth="yes"/>
      <point x="451" y="436"/>
      <point x="375" y="523"/>
      <point x="263" y="523" type="curve" smooth="yes"/>
      <point x="150" y="523"/>
      <point x="54" y="432"/>
      <point x="54" y="258" type="curve" smooth="yes"/>
      <point x="54" y="94"/>
      <point x="145" y="7"/>
      <point x="251" y="7" type="curve" smooth="yes"/>
      <point x="379" y="7"/>
      <point x="451" y="115"/>
    </contour>
  </outline>
</glyph>
<glyph name="otilde" format="1">
  <advance width="554"/>
  <unicode hex="00F5"/>
  <outline>
    <contour>
      <point x="225" y="651" type="curve" smooth="yes"/>
      <point x="215" y="651"/>
      <point x="209" y="645"/>
      <point x="209" y="630" type="curve"/>
      <point x="189" y="630" type="line"/>
      <point x="189" y="656"/>
      <point x="201" y="671"/>
      <point x="225" y="671" type="curve" smooth="yes"/>
      <point x="241" y="671"/>
      <point x="255" y="667"/>
      <point x="282" y="658" type="curve" smooth="yes"/>
      <point x="306" y="650"/>
      <point x="320" y="646"/>
      <point x="329" y="646" type="curve" smooth="yes"/>
      <point x="339" y="646"/>
      <point x="345" y="652"/>
      <point x="345" y="667" type="curve"/>
      <point x="365" y="667" type="line"/>
      <point x="365" y="641"/>
      <point x="353" y="626"/>
      <point x="329" y="626" type="curve" smooth="yes"/>
      <point x="313" y="626"/>
      <point x="299" y="630"/>
      <point x="272" y="639" type="curve" smooth="yes"/>
      <point x="248" y="647"/>
      <point x="234" y="651"/>
    </contour>
    <contour>
      <point x="277" y="540" type="curve" smooth="yes"/>
      <point x="425" y="540"/>
      <point x="524" y="429"/>
      <point x="524" y="262" type="curve" smooth="yes"/>
      <point x="524" y="96"/>
      <point x="425" y="-14"/>
      <point x="277" y="-14" type="curve" smooth="yes"/>
      <point x="129" y="-14"/>
      <point x="30" y="96"/>
      <point x="30" y="262" type="curve" smooth="yes"/>
      <point x="30" y="429"/>
      <point x="129" y="540"/>
    </contour>
    <contour>
      <point x="277" y="7" type="curve" smooth="yes"/>
      <point x="391" y="7"/>
      <point x="500" y="86"/>
      <point x="500" y="262" type="curve" smooth="yes"/>
      <point x="500" y="439"/>
      <point x="391" y="519"/>
      <point x="277" y="519" type="curve" smooth="yes"/>
      <point x="163" y="519"/>
      <point x="54" y="439"/>
      <point x="54" y="262" type="curve" smooth="yes"/>
      <point x="54" y="86"/>
      <point x="163" y="7"/>
    </contour>
  </outline>
</glyph>
<glyph name="odieresis" format="1">
  <advance width="554"/>
  <unicode hex="00F6"/>
  <outline>
    <contour>
      <point x="237" y="613" type="curve" smooth="yes"/>
      <point x="226" y="613"/>
      <point x="217" y="622"/>
      <point x="217" y="633" type="curve" smooth="yes"/>
      <point x="217" y="644"/>
      <point x="226" y="653"/>
      <point x="237" y="653" type="curve" smooth="yes"/>
      <point x="248" y="653"/>
      <point x="257" y="644"/>
      <point x="257" y="633" type="curve" smooth="yes"/>
      <point x="257" y="622"/>
      <point x="248" y="613"/>
    </contour>
    <contour>
      <point x="317" y="613" type="curve" smooth="yes"/>
      <point x="306" y="613"/>
      <point x="297" y="622"/>
      <point x="297" y="633" type="curve" smooth="yes"/>
      <point x="297" y="644"/>
      <point x="306" y="653"/>
      <point x="317" y="653" type="curve" smooth="yes"/>
      <point x="328" y="653"/>
      <point x="337" y="644"/>
      <point x="337" y="633" type="curve" smooth="yes"/>
      <point x="337" y="622"/>
      <point x="328" y="613"/>
    </contour>
    <contour>
      <point x="277" y="540" type="curve" smooth="yes"/>
      <point x="425" y="540"/>
      <point x="524" y="429"/>
      <point x="524" y="262" type="curve" smooth="yes"/>
      <point x="524" y="96"/>
      <point x="425" y="-14"/>
      <point x="277" y="-14" type="curve" smooth="yes"/>
      <point x="129" y="-14"/>
      <point x="30" y="96"/>
      <point x="30" y="262" type="curve" smooth="yes"/>
      <point x="30" y="429"/>
      <point x="129" y="540"/>
    </contour>
    <contour>
      <point x="277" y="7" type="curve" smooth="yes"/>
      <point x="391" y="7"/>
      <point x="500" y="86"/>
      <point x="500" y="262" type="curve" smooth="yes"/>
      <point x="500" y="439"/>
      <point x="391" y="519"/>
      <point x="277" y="519" type="curve" smooth="yes"/>
      <point x="163" y="519"/>
      <point x="54" y="439"/>
      <point x="54" y="262" type="curve" smooth="yes"/>
      <point x="54" y="86"/>
      <point x="163" y="7"/>
    </contour>
  </outline>
</glyph>
<glyph name="divide" format="1">
  <advance width="530"/>
  <unicode hex="00F7"/>
  <outline>
    <contour>
      <point x="265" y="498" type="curve" smooth="yes"/>
      <point x="280" y="498"/>
      <point x="291" y="487"/>
      <point x="291" y="472" type="curve" smooth="yes"/>
      <point x="291" y="457"/>
      <point x="280" y="446"/>
      <point x="265" y="446" type="curve" smooth="yes"/>
      <point x="250" y="446"/>
      <point x="239" y="457"/>
      <point x="239" y="472" type="curve" smooth="yes"/>
      <point x="239" y="487"/>
      <point x="250" y="498"/>
    </contour>
    <contour>
      <point x="465" y="307" type="line"/>
      <point x="65" y="307" type="line"/>
      <point x="65" y="328" type="line"/>
      <point x="465" y="328" type="line"/>
    </contour>
    <contour>
      <point x="265" y="188" type="curve" smooth="yes"/>
      <point x="280" y="188"/>
      <point x="291" y="177"/>
      <point x="291" y="162" type="curve" smooth="yes"/>
      <point x="291" y="147"/>
      <point x="280" y="136"/>
      <point x="265" y="136" type="curve" smooth="yes"/>
      <point x="250" y="136"/>
      <point x="239" y="147"/>
      <point x="239" y="162" type="curve" smooth="yes"/>
      <point x="239" y="177"/>
      <point x="250" y="188"/>
    </contour>
  </outline>
</glyph>
<glyph name="oslash" format="1">
  <advance width="594"/>
  <unicode hex="00F8"/>
  <outline>
    <contour>
      <point x="568" y="519" type="line"/>
      <point x="490" y="441" type="line"/>
      <point x="522" y="394"/>
      <point x="540" y="333"/>
      <point x="540" y="262" type="curve" smooth="yes"/>
      <point x="540" y="96"/>
      <point x="441" y="-14"/>
      <point x="293" y="-14" type="curve" smooth="yes"/>
      <point x="218" y="-14"/>
      <point x="156" y="14"/>
      <point x="112" y="63" type="curve"/>
      <point x="41" y="-8" type="line"/>
      <point x="26" y="7" type="line"/>
      <point x="99" y="80" type="line"/>
      <point x="65" y="127"/>
      <point x="46" y="189"/>
      <point x="46" y="262" type="curve" smooth="yes"/>
      <point x="46" y="429"/>
      <point x="145" y="540"/>
      <point x="293" y="540" type="curve" smooth="yes"/>
      <point x="370" y="540"/>
      <point x="433" y="510"/>
      <point x="477" y="458" type="curve"/>
      <point x="553" y="534" type="line"/>
    </contour>
    <contour>
      <point x="70" y="262" type="curve" smooth="yes"/>
      <point x="70" y="192"/>
      <point x="87" y="137"/>
      <point x="115" y="96" type="curve"/>
      <point x="461" y="442" type="line"/>
      <point x="418" y="494"/>
      <point x="356" y="519"/>
      <point x="293" y="519" type="curve" smooth="yes"/>
      <point x="179" y="519"/>
      <point x="70" y="439"/>
    </contour>
    <contour>
      <point x="516" y="262" type="curve" smooth="yes"/>
      <point x="516" y="330"/>
      <point x="500" y="384"/>
      <point x="474" y="424" type="curve"/>
      <point x="129" y="80" type="line"/>
      <point x="171" y="30"/>
      <point x="232" y="7"/>
      <point x="293" y="7" type="curve" smooth="yes"/>
      <point x="407" y="7"/>
      <point x="516" y="86"/>
    </contour>
  </outline>
</glyph>
<glyph name="ugrave" format="1">
  <advance width="526"/>
  <unicode hex="00F9"/>
  <outline>
    <contour>
      <point x="240" y="580" type="line"/>
      <point x="171" y="690" type="line"/>
      <point x="199" y="690" type="line"/>
      <point x="259" y="580" type="line"/>
    </contour>
    <contour>
      <point x="455" y="526" type="line"/>
      <point x="455" y="0" type="line"/>
      <point x="433" y="0" type="line"/>
      <point x="433" y="120" type="line"/>
      <point x="412" y="68" type="line"/>
      <point x="373" y="13"/>
      <point x="312" y="-14"/>
      <point x="247" y="-14" type="curve" smooth="yes"/>
      <point x="141" y="-14"/>
      <point x="77" y="45"/>
      <point x="66" y="148" type="curve" smooth="yes"/>
      <point x="63" y="175"/>
      <point x="62" y="191"/>
      <point x="62" y="234" type="curve" smooth="yes"/>
      <point x="62" y="526" type="line"/>
      <point x="84" y="526" type="line"/>
      <point x="84" y="243" type="line" smooth="yes"/>
      <point x="84" y="206"/>
      <point x="85" y="183"/>
      <point x="88" y="156" type="curve" smooth="yes"/>
      <point x="98" y="67"/>
      <point x="147" y="7"/>
      <point x="247" y="7" type="curve" smooth="yes"/>
      <point x="343" y="7"/>
      <point x="433" y="74"/>
      <point x="433" y="214" type="curve" smooth="yes"/>
      <point x="433" y="526" type="line"/>
    </contour>
  </outline>
</glyph>
<glyph name="yacute" format="1">
  <advance width="457"/>
  <unicode hex="00FD"/>
  <outline>
    <contour>
      <point x="237" y="580" type="line"/>
      <point x="218" y="580" type="line"/>
      <point x="278" y="690" type="line"/>
      <point x="306" y="690" type="line"/>
    </contour>
    <contour>
      <point x="449" y="526" type="line"/>
      <point x="246" y="0" type="line" smooth="yes"/>
      <point x="175" y="-185"/>
      <point x="133" y="-210"/>
      <point x="75" y="-210" type="curve" smooth="yes"/>
      <point x="61" y="-210"/>
      <point x="51" y="-209"/>
      <point x="40" y="-206" type="curve"/>
      <point x="40" y="-186" type="line"/>
      <point x="53" y="-189"/>
      <point x="66" y="-190"/>
      <point x="79" y="-190" type="curve" smooth="yes"/>
      <point x="119" y="-190"/>
      <point x="157" y="-162"/>
      <point x="202" y="-52" type="curve" smooth="yes"/>
      <point x="219" y="-10" type="line"/>
      <point x="13" y="526" type="line"/>
      <point x="38" y="526" type="line"/>
      <point x="231" y="18" type="line"/>
      <point x="424" y="526" type="line"/>
    </contour>
  </outline>
</glyph>
<glyph name="ydieresis" format="1">
  <advance width="457"/>
  <unicode hex="00FF"/>
  <outline>
    <contour>
      <point x="190" y="613" type="curve" smooth="yes"/>
      <point x="179" y="613"/>
      <point x="170" y="622"/>
      <point x="170" y="633" type="curve" smooth="yes"/>
      <point x="170" y="644"/>
      <point x="179" y="653"/>
      <point x="190" y="653" type="curve" smooth="yes"/>
      <point x="201" y="653"/>
      <point x="210" y="644"/>
      <point x="210" y="633" type="curve" smooth="yes"/>
      <point x="210" y="622"/>
      <point x="201" y="613"/>
    </contour>
    <contour>
      <point x="270" y="613" type="curve" smooth="yes"/>
      <point x="259" y="613"/>
      <point x="250" y="622"/>
      <point x="250" y="633" type="curve" smooth="yes"/>
      <point x="250" y="644"/>
      <point x="259" y="653"/>
      <point x="270" y="653" type="curve" smooth="yes"/>
      <point x="281" y="653"/>
      <point x="290" y="644"/>
      <point x="290" y="633" type="curve" smooth="yes"/>
      <point x="290" y="622"/>
      <point x="281" y="613"/>
    </contour>
    <contour>
      <point x="449" y="526" type="line"/>
      <point x="246" y="0" type="line" smooth="yes"/>
      <point x="175" y="-185"/>
      <point x="133" y="-210"/>
      <point x="75" y="-210" type="curve" smooth="yes"/>
      <point x="61" y="-210"/>
      <point x="51" y="-209"/>
      <point x="40" y="-206" type="curve"/>
      <point x="40" y="-186" type="line"/>
      <point x="53" y="-189"/>
      <point x="66" y="-190"/>
      <point x="79" y="-190" type="curve" smooth="yes"/>
      <point x="119" y="-190"/>
      <point x="157" y="-162"/>
      <point x="202" y="-52" type="curve" smooth="yes"/>
      <point x="219" y="-10" type="line"/>
      <point x="13" y="526" type="line"/>
      <point x="38" y="526" type="line"/>
      <point x="231" y="18" type="line"/>
      <point x="424" y="526" type="line"/>
    </contour>
  </outline>
</glyph>
<glyph name="Amacron" format="1">
  <advance width="616"/>
  <unicode hex="0100"/>
  <outline>
    <contour>
      <point x="387" y="772" type="line"/>
      <point x="247" y="772" type="line"/>
      <point x="247" y="793" type="line"/>
      <point x="387" y="793" type="line"/>
    </contour>
    <contour>
      <point x="471" y="269" type="line"/>
      <point x="162" y="269" type="line"/>
      <point x="59" y="0" type="line"/>
      <point x="36" y="0" type="line"/>
      <point x="303" y="690" type="line"/>
      <point x="332" y="690" type="line"/>
      <point x="599" y="0" type="line"/>
      <point x="575" y="0" type="line"/>
    </contour>
    <contour>
      <point x="170" y="290" type="line"/>
      <point x="462" y="290" type="line"/>
      <point x="317" y="671" type="line"/>
    </contour>
  </outline>
</glyph>
<glyph name="Abreve" format="1">
  <advance width="616"/>
  <unicode hex="0102"/>
  <outline>
    <contour>
      <point x="317" y="722" type="curve" smooth="yes"/>
      <point x="259" y="722"/>
      <point x="220" y="763"/>
      <point x="220" y="830" type="curve"/>
      <point x="238" y="830" type="line"/>
      <point x="239" y="774"/>
      <point x="272" y="743"/>
      <point x="317" y="743" type="curve" smooth="yes"/>
      <point x="362" y="743"/>
      <point x="395" y="774"/>
      <point x="396" y="830" type="curve"/>
      <point x="414" y="830" type="line"/>
      <point x="414" y="763"/>
      <point x="374" y="722"/>
    </contour>
    <contour>
      <point x="471" y="269" type="line"/>
      <point x="162" y="269" type="line"/>
      <point x="59" y="0" type="line"/>
      <point x="36" y="0" type="line"/>
      <point x="303" y="690" type="line"/>
      <point x="332" y="690" type="line"/>
      <point x="599" y="0" type="line"/>
      <point x="575" y="0" type="line"/>
    </contour>
    <contour>
      <point x="170" y="290" type="line"/>
      <point x="462" y="290" type="line"/>
      <point x="317" y="671" type="line"/>
    </contour>
  </outline>
</glyph>
<glyph name="Aogonek" format="1">
  <advance width="616"/>
  <unicode hex="0104"/>
  <outline>
    <contour>
      <point x="599" y="0" type="line"/>
      <point x="594" y="0" type="line"/>
      <point x="525" y="-30"/>
      <point x="474" y="-84"/>
      <point x="474" y="-151" type="curve" smooth="yes"/>
      <point x="474" y="-188"/>
      <point x="493" y="-203"/>
      <point x="520" y="-203" type="curve" smooth="yes"/>
      <point x="543" y="-203"/>
      <point x="563" y="-194"/>
      <point x="585" y="-172" type="curve"/>
      <point x="585" y="-195" type="line"/>
      <point x="566" y="-214"/>
      <point x="544" y="-223"/>
      <point x="516" y="-223" type="curve" smooth="yes"/>
      <point x="484" y="-223"/>
      <point x="452" y="-208"/>
      <point x="452" y="-154" type="curve" smooth="yes"/>
      <point x="452" y="-85"/>
      <point x="499" y="-23"/>
      <point x="572" y="8" type="curve"/>
      <point x="471" y="269" type="line"/>
      <point x="162" y="269" type="line"/>
      <point x="59" y="0" type="line"/>
      <point x="36" y="0" type="line"/>
      <point x="303" y="690" type="line"/>
      <point x="332" y="690" type="line"/>
    </contour>
    <contour>
      <point x="170" y="290" type="line"/>
      <point x="462" y="290" type="line"/>
      <point x="317" y="671" type="line"/>
    </contour>
  </outline>
</glyph>
<glyph name="aogonek" format="1">
  <advance width="494"/>
  <unicode hex="0105"/>
  <outline>
    <contour>
      <point x="432" y="0" type="curve"/>
      <point x="422" y="0" type="line"/>
      <point x="350" y="-19"/>
      <point x="300" y="-84"/>
      <point x="300" y="-151" type="curve" smooth="yes"/>
      <point x="300" y="-188"/>
      <point x="319" y="-203"/>
      <point x="346" y="-203" type="curve" smooth="yes"/>
      <point x="369" y="-203"/>
      <point x="389" y="-194"/>
      <point x="411" y="-172" type="curve"/>
      <point x="411" y="-195" type="line"/>
      <point x="392" y="-214"/>
      <point x="370" y="-223"/>
      <point x="342" y="-223" type="curve" smooth="yes"/>
      <point x="310" y="-223"/>
      <point x="278" y="-208"/>
      <point x="278" y="-154" type="curve" smooth="yes"/>
      <point x="278" y="-81"/>
      <point x="330" y="-11"/>
      <point x="408" y="13" type="curve"/>
      <point x="402" y="129" type="line"/>
      <point x="379" y="76" type="line"/>
      <point x="342" y="17"/>
      <point x="280" y="-14"/>
      <point x="209" y="-14" type="curve" smooth="yes"/>
      <point x="109" y="-14"/>
      <point x="47" y="33"/>
      <point x="47" y="127" type="curve" smooth="yes"/>
      <point x="47" y="250"/>
      <point x="203" y="303"/>
      <point x="367" y="303" type="curve" smooth="yes"/>
      <point x="401" y="303" type="line"/>
      <point x="401" y="330" type="line" smooth="yes"/>
      <point x="401" y="355"/>
      <point x="401" y="375"/>
      <point x="399" y="398" type="curve" smooth="yes"/>
      <point x="392" y="477"/>
      <point x="340" y="519"/>
      <point x="254" y="519" type="curve" smooth="yes"/>
      <point x="180" y="519"/>
      <point x="101" y="480"/>
      <point x="89" y="382" type="curve"/>
      <point x="67" y="382" type="line"/>
      <point x="73" y="470"/>
      <point x="150" y="540"/>
      <point x="254" y="540" type="curve" smooth="yes"/>
      <point x="357" y="540"/>
      <point x="414" y="489"/>
      <point x="421" y="401" type="curve" smooth="yes"/>
      <point x="423" y="374"/>
      <point x="423" y="360"/>
      <point x="423" y="332" type="curve" smooth="yes"/>
      <point x="423" y="170" type="line" smooth="yes"/>
      <point x="423" y="110"/>
      <point x="426" y="69"/>
    </contour>
    <contour>
      <point x="212" y="7" type="curve" smooth="yes"/>
      <point x="325" y="7"/>
      <point x="401" y="105"/>
      <point x="401" y="209" type="curve" smooth="yes"/>
      <point x="401" y="281" type="line"/>
      <point x="387" y="282"/>
      <point x="372" y="282"/>
      <point x="358" y="282" type="curve" smooth="yes"/>
      <point x="216" y="282"/>
      <point x="71" y="237"/>
      <point x="71" y="128" type="curve" smooth="yes"/>
      <point x="71" y="55"/>
      <point x="116" y="7"/>
    </contour>
  </outline>
</glyph>
<glyph name="Cdotaccent" format="1">
  <advance width="677"/>
  <unicode hex="010A"/>
  <outline>
    <contour>
      <point x="344" y="803" type="curve" smooth="yes"/>
      <point x="355" y="803"/>
      <point x="364" y="794"/>
      <point x="364" y="783" type="curve" smooth="yes"/>
      <point x="364" y="772"/>
      <point x="355" y="763"/>
      <point x="344" y="763" type="curve" smooth="yes"/>
      <point x="333" y="763"/>
      <point x="324" y="772"/>
      <point x="324" y="783" type="curve" smooth="yes"/>
      <point x="324" y="794"/>
      <point x="333" y="803"/>
    </contour>
    <contour>
      <point x="364" y="704" type="curve" smooth="yes"/>
      <point x="515" y="704"/>
      <point x="599" y="608"/>
      <point x="624" y="484" type="curve" smooth="yes"/>
      <point x="626" y="474" type="line"/>
      <point x="604" y="474" type="line"/>
      <point x="602" y="484" type="line" smooth="yes"/>
      <point x="579" y="597"/>
      <point x="497" y="683"/>
      <point x="360" y="683" type="curve" smooth="yes"/>
      <point x="216" y="683"/>
      <point x="75" y="565"/>
      <point x="75" y="344" type="curve" smooth="yes"/>
      <point x="75" y="115"/>
      <point x="204" y="7"/>
      <point x="352" y="7" type="curve" smooth="yes"/>
      <point x="500" y="7"/>
      <point x="580" y="99"/>
      <point x="604" y="217" type="curve" smooth="yes"/>
      <point x="606" y="227" type="line"/>
      <point x="628" y="227" type="line"/>
      <point x="626" y="217" type="line" smooth="yes"/>
      <point x="600" y="88"/>
      <point x="515" y="-14"/>
      <point x="350" y="-14" type="curve" smooth="yes"/>
      <point x="179" y="-14"/>
      <point x="51" y="118"/>
      <point x="51" y="343" type="curve" smooth="yes"/>
      <point x="51" y="558"/>
      <point x="187" y="704"/>
    </contour>
  </outline>
</glyph>
<glyph name="ccaron" format="1">
  <advance width="517"/>
  <unicode hex="010D"/>
  <outline>
    <contour>
      <point x="254" y="580" type="line"/>
      <point x="189" y="690" type="line"/>
      <point x="213" y="690" type="line"/>
      <point x="266" y="596" type="line"/>
      <point x="319" y="690" type="line"/>
      <point x="342" y="690" type="line"/>
      <point x="277" y="580" type="line"/>
    </contour>
    <contour>
      <point x="265" y="6" type="curve" smooth="yes"/>
      <point x="356" y="6"/>
      <point x="435" y="60"/>
      <point x="455" y="157" type="curve"/>
      <point x="477" y="157" type="line"/>
      <point x="456" y="51"/>
      <point x="371" y="-14"/>
      <point x="263" y="-14" type="curve" smooth="yes"/>
      <point x="134" y="-14"/>
      <point x="30" y="88"/>
      <point x="30" y="263" type="curve" smooth="yes"/>
      <point x="30" y="433"/>
      <point x="139" y="540"/>
      <point x="271" y="540" type="curve" smooth="yes"/>
      <point x="385" y="540"/>
      <point x="466" y="468"/>
      <point x="481" y="363" type="curve"/>
      <point x="459" y="363" type="line"/>
      <point x="442" y="458"/>
      <point x="376" y="520"/>
      <point x="269" y="520" type="curve" smooth="yes"/>
      <point x="170" y="520"/>
      <point x="54" y="438"/>
      <point x="54" y="268" type="curve" smooth="yes"/>
      <point x="54" y="90"/>
      <point x="159" y="6"/>
    </contour>
  </outline>
</glyph>
<glyph name="Dcaron" format="1">
  <advance width="679"/>
  <unicode hex="010E"/>
  <outline>
    <contour>
      <point x="331" y="736" type="line"/>
      <point x="266" y="830" type="line"/>
      <point x="290" y="830" type="line"/>
      <point x="343" y="750" type="line"/>
      <point x="396" y="830" type="line"/>
      <point x="419" y="830" type="line"/>
      <point x="354" y="736" type="line"/>
    </contour>
    <contour>
      <point x="368" y="688" type="curve" smooth="yes"/>
      <point x="474" y="680"/>
      <point x="641" y="592"/>
      <point x="641" y="348" type="curve" smooth="yes"/>
      <point x="641" y="105"/>
      <point x="476" y="15"/>
      <point x="383" y="4" type="curve" smooth="yes"/>
      <point x="348" y="0"/>
      <point x="327" y="0"/>
      <point x="295" y="0" type="curve" smooth="yes"/>
      <point x="96" y="0" type="line"/>
      <point x="96" y="690" type="line"/>
      <point x="295" y="690" type="line" smooth="yes"/>
      <point x="327" y="690"/>
      <point x="343" y="690"/>
    </contour>
    <contour>
      <point x="380" y="25" type="curve" smooth="yes"/>
      <point x="489" y="38"/>
      <point x="617" y="141"/>
      <point x="617" y="348" type="curve" smooth="yes"/>
      <point x="617" y="565"/>
      <point x="476" y="657"/>
      <point x="367" y="667" type="curve" smooth="yes"/>
      <point x="345" y="669"/>
      <point x="331" y="669"/>
      <point x="295" y="669" type="curve" smooth="yes"/>
      <point x="118" y="669" type="line"/>
      <point x="118" y="21" type="line"/>
      <point x="295" y="21" type="line" smooth="yes"/>
      <point x="326" y="21"/>
      <point x="347" y="21"/>
    </contour>
  </outline>
</glyph>
<glyph name="dcroat" format="1">
  <advance width="546"/>
  <unicode hex="0111"/>
  <outline>
    <contour>
      <point x="515" y="613" type="line"/>
      <point x="473" y="613" type="line"/>
      <point x="473" y="0" type="line"/>
      <point x="451" y="0" type="line"/>
      <point x="451" y="120" type="line"/>
      <point x="423" y="60" type="line"/>
      <point x="376" y="4"/>
      <point x="329" y="-14"/>
      <point x="257" y="-14" type="curve" smooth="yes"/>
      <point x="120" y="-14"/>
      <point x="30" y="99"/>
      <point x="30" y="259" type="curve" smooth="yes"/>
      <point x="30" y="445"/>
      <point x="142" y="540"/>
      <point x="269" y="540" type="curve" smooth="yes"/>
      <point x="336" y="540"/>
      <point x="379" y="520"/>
      <point x="422" y="472" type="curve"/>
      <point x="451" y="406" type="line"/>
      <point x="451" y="613" type="line"/>
      <point x="334" y="613" type="line"/>
      <point x="334" y="634" type="line"/>
      <point x="451" y="634" type="line"/>
      <point x="451" y="735" type="line"/>
      <point x="473" y="735" type="line"/>
      <point x="473" y="634" type="line"/>
      <point x="515" y="634" type="line"/>
    </contour>
    <contour>
      <point x="259" y="7" type="curve" smooth="yes"/>
      <point x="363" y="7"/>
      <point x="451" y="65"/>
      <point x="451" y="238" type="curve" smooth="yes"/>
      <point x="451" y="297" type="line" smooth="yes"/>
      <point x="451" y="469"/>
      <point x="351" y="519"/>
      <point x="269" y="519" type="curve" smooth="yes"/>
      <point x="143" y="519"/>
      <point x="54" y="414"/>
      <point x="54" y="263" type="curve" smooth="yes"/>
      <point x="54" y="125"/>
      <point x="126" y="7"/>
    </contour>
  </outline>
</glyph>
<glyph name="Edotaccent" format="1">
  <advance width="557"/>
  <unicode hex="0116"/>
  <outline>
    <contour>
      <point x="290" y="763" type="curve" smooth="yes"/>
      <point x="279" y="763"/>
      <point x="270" y="772"/>
      <point x="270" y="783" type="curve" smooth="yes"/>
      <point x="270" y="794"/>
      <point x="279" y="803"/>
      <point x="290" y="803" type="curve" smooth="yes"/>
      <point x="301" y="803"/>
      <point x="310" y="794"/>
      <point x="310" y="783" type="curve" smooth="yes"/>
      <point x="310" y="772"/>
      <point x="301" y="763"/>
    </contour>
    <contour>
      <point x="525" y="20" type="line"/>
      <point x="525" y="0" type="line"/>
      <point x="96" y="0" type="line"/>
      <point x="96" y="690" type="line"/>
      <point x="515" y="690" type="line"/>
      <point x="515" y="670" type="line"/>
      <point x="118" y="670" type="line"/>
      <point x="118" y="355" type="line"/>
      <point x="495" y="355" type="line"/>
      <point x="495" y="335" type="line"/>
      <point x="118" y="335" type="line"/>
      <point x="118" y="20" type="line"/>
    </contour>
  </outline>
</glyph>
<glyph name="Eogonek" format="1">
  <advance width="557"/>
  <unicode hex="0118"/>
  <outline>
    <contour>
      <point x="525" y="20" type="line"/>
      <point x="525" y="0" type="line"/>
      <point x="456" y="-30"/>
      <point x="405" y="-84"/>
      <point x="405" y="-151" type="curve" smooth="yes"/>
      <point x="405" y="-188"/>
      <point x="424" y="-203"/>
      <point x="451" y="-203" type="curve" smooth="yes"/>
      <point x="474" y="-203"/>
      <point x="494" y="-194"/>
      <point x="516" y="-172" type="curve"/>
      <point x="516" y="-195" type="line"/>
      <point x="497" y="-214"/>
      <point x="475" y="-223"/>
      <point x="447" y="-223" type="curve" smooth="yes"/>
      <point x="415" y="-223"/>
      <point x="383" y="-208"/>
      <point x="383" y="-154" type="curve" smooth="yes"/>
      <point x="383" y="-90"/>
      <point x="423" y="-33"/>
      <point x="485" y="0" type="curve"/>
      <point x="96" y="0" type="line"/>
      <point x="96" y="690" type="line"/>
      <point x="515" y="690" type="line"/>
      <point x="515" y="670" type="line"/>
      <point x="118" y="670" type="line"/>
      <point x="118" y="355" type="line"/>
      <point x="495" y="355" type="line"/>
      <point x="495" y="335" type="line"/>
      <point x="118" y="335" type="line"/>
      <point x="118" y="20" type="line"/>
    </contour>
  </outline>
</glyph>
<glyph name="eogonek" format="1">
  <advance width="521"/>
  <unicode hex="0119"/>
  <outline>
    <contour>
      <point x="485" y="277" type="curve" smooth="yes"/>
      <point x="485" y="273"/>
      <point x="485" y="269"/>
      <point x="484" y="258" type="curve"/>
      <point x="53" y="258" type="line"/>
      <point x="57" y="76"/>
      <point x="161" y="7"/>
      <point x="258" y="7" type="curve" smooth="yes"/>
      <point x="341" y="7"/>
      <point x="424" y="54"/>
      <point x="455" y="161" type="curve"/>
      <point x="477" y="161" type="line"/>
      <point x="454" y="78"/>
      <point x="402" y="24"/>
      <point x="336" y="0" type="curve" smooth="yes"/>
      <point x="331" y="-2"/>
      <point x="326" y="-4"/>
      <point x="321" y="-5" type="curve" smooth="yes"/>
      <point x="257" y="-29"/>
      <point x="215" y="-89"/>
      <point x="215" y="-151" type="curve" smooth="yes"/>
      <point x="215" y="-188"/>
      <point x="234" y="-203"/>
      <point x="261" y="-203" type="curve" smooth="yes"/>
      <point x="284" y="-203"/>
      <point x="304" y="-194"/>
      <point x="326" y="-172" type="curve"/>
      <point x="326" y="-195" type="line"/>
      <point x="307" y="-214"/>
      <point x="285" y="-223"/>
      <point x="257" y="-223" type="curve" smooth="yes"/>
      <point x="225" y="-223"/>
      <point x="193" y="-208"/>
      <point x="193" y="-154" type="curve" smooth="yes"/>
      <point x="193" y="-100"/>
      <point x="222" y="-47"/>
      <point x="269" y="-14" type="curve"/>
      <point x="256" y="-14" type="line" smooth="yes"/>
      <point x="134" y="-14"/>
      <point x="30" y="81"/>
      <point x="30" y="265" type="curve" smooth="yes"/>
      <point x="30" y="431"/>
      <point x="134" y="540"/>
      <point x="264" y="540" type="curve" smooth="yes"/>
      <point x="415" y="540"/>
      <point x="485" y="408"/>
    </contour>
    <contour>
      <point x="262" y="519" type="curve" smooth="yes"/>
      <point x="169" y="519"/>
      <point x="57" y="444"/>
      <point x="53" y="279" type="curve"/>
      <point x="463" y="279" type="line"/>
      <point x="459" y="461"/>
      <point x="352" y="519"/>
    </contour>
  </outline>
</glyph>
<glyph name="Gbreve" format="1">
  <advance width="694"/>
  <unicode hex="011E"/>
  <outline>
    <contour>
      <point x="360" y="722" type="curve" smooth="yes"/>
      <point x="302" y="722"/>
      <point x="263" y="763"/>
      <point x="263" y="830" type="curve"/>
      <point x="281" y="830" type="line"/>
      <point x="282" y="774"/>
      <point x="315" y="743"/>
      <point x="360" y="743" type="curve" smooth="yes"/>
      <point x="405" y="743"/>
      <point x="438" y="774"/>
      <point x="439" y="830" type="curve"/>
      <point x="457" y="830" type="line"/>
      <point x="457" y="763"/>
      <point x="417" y="722"/>
    </contour>
    <contour>
      <point x="379" y="307" type="line"/>
      <point x="634" y="307" type="line"/>
      <point x="634" y="0" type="line"/>
      <point x="612" y="0" type="line"/>
      <point x="612" y="184" type="line"/>
      <point x="592" y="119" type="line"/>
      <point x="535" y="23"/>
      <point x="442" y="-14"/>
      <point x="353" y="-14" type="curve" smooth="yes"/>
      <point x="179" y="-14"/>
      <point x="51" y="118"/>
      <point x="51" y="343" type="curve" smooth="yes"/>
      <point x="51" y="558"/>
      <point x="190" y="704"/>
      <point x="374" y="704" type="curve" smooth="yes"/>
      <point x="525" y="704"/>
      <point x="609" y="608"/>
      <point x="634" y="484" type="curve" smooth="yes"/>
      <point x="636" y="474" type="line"/>
      <point x="614" y="474" type="line"/>
      <point x="612" y="484" type="line" smooth="yes"/>
      <point x="589" y="597"/>
      <point x="507" y="683"/>
      <point x="370" y="683" type="curve" smooth="yes"/>
      <point x="219" y="683"/>
      <point x="75" y="565"/>
      <point x="75" y="344" type="curve" smooth="yes"/>
      <point x="75" y="115"/>
      <point x="204" y="7"/>
      <point x="355" y="7" type="curve" smooth="yes"/>
      <point x="460" y="7"/>
      <point x="612" y="75"/>
      <point x="612" y="287" type="curve"/>
      <point x="379" y="287" type="line"/>
    </contour>
  </outline>
</glyph>
<glyph name="Gdotaccent" format="1">
  <advance width="694"/>
  <unicode hex="0120"/>
  <outline>
    <contour>
      <point x="360" y="763" type="curve" smooth="yes"/>
      <point x="349" y="763"/>
      <point x="340" y="772"/>
      <point x="340" y="783" type="curve" smooth="yes"/>
      <point x="340" y="794"/>
      <point x="349" y="803"/>
      <point x="360" y="803" type="curve" smooth="yes"/>
      <point x="371" y="803"/>
      <point x="380" y="794"/>
      <point x="380" y="783" type="curve" smooth="yes"/>
      <point x="380" y="772"/>
      <point x="371" y="763"/>
    </contour>
    <contour>
      <point x="379" y="307" type="line"/>
      <point x="634" y="307" type="line"/>
      <point x="634" y="0" type="line"/>
      <point x="612" y="0" type="line"/>
      <point x="612" y="184" type="line"/>
      <point x="592" y="119" type="line"/>
      <point x="535" y="23"/>
      <point x="442" y="-14"/>
      <point x="353" y="-14" type="curve" smooth="yes"/>
      <point x="179" y="-14"/>
      <point x="51" y="118"/>
      <point x="51" y="343" type="curve" smooth="yes"/>
      <point x="51" y="558"/>
      <point x="190" y="704"/>
      <point x="374" y="704" type="curve" smooth="yes"/>
      <point x="525" y="704"/>
      <point x="609" y="608"/>
      <point x="634" y="484" type="curve" smooth="yes"/>
      <point x="636" y="474" type="line"/>
      <point x="614" y="474" type="line"/>
      <point x="612" y="484" type="line" smooth="yes"/>
      <point x="589" y="597"/>
      <point x="507" y="683"/>
      <point x="370" y="683" type="curve" smooth="yes"/>
      <point x="219" y="683"/>
      <point x="75" y="565"/>
      <point x="75" y="344" type="curve" smooth="yes"/>
      <point x="75" y="115"/>
      <point x="204" y="7"/>
      <point x="355" y="7" type="curve" smooth="yes"/>
      <point x="460" y="7"/>
      <point x="612" y="75"/>
      <point x="612" y="287" type="curve"/>
      <point x="379" y="287" type="line"/>
    </contour>
  </outline>
</glyph>
<glyph name="hbar" format="1">
  <advance width="540"/>
  <unicode hex="0127"/>
  <outline>
    <contour>
      <point x="470" y="378" type="curve" smooth="yes"/>
      <point x="473" y="351"/>
      <point x="474" y="335"/>
      <point x="474" y="292" type="curve" smooth="yes"/>
      <point x="474" y="0" type="line"/>
      <point x="452" y="0" type="line"/>
      <point x="452" y="283" type="line" smooth="yes"/>
      <point x="452" y="320"/>
      <point x="451" y="343"/>
      <point x="448" y="370" type="curve" smooth="yes"/>
      <point x="438" y="459"/>
      <point x="389" y="519"/>
      <point x="289" y="519" type="curve" smooth="yes"/>
      <point x="193" y="519"/>
      <point x="103" y="452"/>
      <point x="103" y="312" type="curve" smooth="yes"/>
      <point x="103" y="0" type="line"/>
      <point x="81" y="0" type="line"/>
      <point x="81" y="613" type="line"/>
      <point x="31" y="613" type="line"/>
      <point x="31" y="634" type="line"/>
      <point x="81" y="634" type="line"/>
      <point x="81" y="740" type="line"/>
      <point x="103" y="740" type="line"/>
      <point x="103" y="634" type="line"/>
      <point x="213" y="634" type="line"/>
      <point x="213" y="613" type="line"/>
      <point x="103" y="613" type="line"/>
      <point x="103" y="406" type="line"/>
      <point x="124" y="458" type="line"/>
      <point x="163" y="513"/>
      <point x="224" y="540"/>
      <point x="289" y="540" type="curve" smooth="yes"/>
      <point x="395" y="540"/>
      <point x="459" y="481"/>
    </contour>
  </outline>
</glyph>
<glyph name="Imacron" format="1">
  <advance width="189"/>
  <unicode hex="012A"/>
  <outline>
    <contour>
      <point x="177" y="772" type="line"/>
      <point x="37" y="772" type="line"/>
      <point x="37" y="793" type="line"/>
      <point x="177" y="793" type="line"/>
    </contour>
    <contour>
      <point x="118" y="0" type="line"/>
      <point x="96" y="0" type="line"/>
      <point x="96" y="690" type="line"/>
      <point x="118" y="690" type="line"/>
    </contour>
  </outline>
</glyph>
<glyph name="imacron" format="1">
  <advance width="164"/>
  <unicode hex="012B"/>
  <outline>
    <contour>
      <point x="152" y="620" type="line"/>
      <point x="12" y="620" type="line"/>
      <point x="12" y="641" type="line"/>
      <point x="152" y="641" type="line"/>
    </contour>
    <contour>
      <point x="93" y="0" type="line"/>
      <point x="71" y="0" type="line"/>
      <point x="71" y="526" type="line"/>
      <point x="93" y="526" type="line"/>
    </contour>
  </outline>
</glyph>
<glyph name="Iogonek" format="1">
  <advance width="189"/>
  <unicode hex="012E"/>
  <outline>
    <contour>
      <point x="118" y="690" type="line"/>
      <point x="118" y="0" type="line"/>
      <point x="49" y="-30"/>
      <point x="-2" y="-84"/>
      <point x="-2" y="-151" type="curve" smooth="yes"/>
      <point x="-2" y="-188"/>
      <point x="17" y="-203"/>
      <point x="44" y="-203" type="curve" smooth="yes"/>
      <point x="67" y="-203"/>
      <point x="87" y="-194"/>
      <point x="109" y="-172" type="curve"/>
      <point x="109" y="-195" type="line"/>
      <point x="90" y="-214"/>
      <point x="68" y="-223"/>
      <point x="40" y="-223" type="curve" smooth="yes"/>
      <point x="8" y="-223"/>
      <point x="-24" y="-208"/>
      <point x="-24" y="-154" type="curve" smooth="yes"/>
      <point x="-24" y="-84"/>
      <point x="23" y="-23"/>
      <point x="96" y="9" type="curve"/>
      <point x="96" y="690" type="line"/>
    </contour>
  </outline>
</glyph>
<glyph name="iogonek" format="1">
  <advance width="164"/>
  <unicode hex="012F"/>
  <outline>
    <contour>
      <point x="82" y="653" type="curve" smooth="yes"/>
      <point x="93" y="653"/>
      <point x="102" y="644"/>
      <point x="102" y="633" type="curve" smooth="yes"/>
      <point x="102" y="622"/>
      <point x="93" y="613"/>
      <point x="82" y="613" type="curve" smooth="yes"/>
      <point x="71" y="613"/>
      <point x="62" y="622"/>
      <point x="62" y="633" type="curve" smooth="yes"/>
      <point x="62" y="644"/>
      <point x="71" y="653"/>
    </contour>
    <contour>
      <point x="71" y="526" type="line"/>
      <point x="93" y="526" type="line"/>
      <point x="93" y="0" type="line"/>
      <point x="84" y="0" type="line"/>
      <point x="12" y="-19"/>
      <point x="-38" y="-84"/>
      <point x="-38" y="-151" type="curve" smooth="yes"/>
      <point x="-38" y="-188"/>
      <point x="-19" y="-203"/>
      <point x="8" y="-203" type="curve" smooth="yes"/>
      <point x="31" y="-203"/>
      <point x="51" y="-194"/>
      <point x="73" y="-172" type="curve"/>
      <point x="73" y="-195" type="line"/>
      <point x="54" y="-214"/>
      <point x="32" y="-223"/>
      <point x="4" y="-223" type="curve" smooth="yes"/>
      <point x="-28" y="-223"/>
      <point x="-60" y="-208"/>
      <point x="-60" y="-154" type="curve" smooth="yes"/>
      <point x="-60" y="-81"/>
      <point x="-8" y="-11"/>
      <point x="71" y="13" type="curve"/>
    </contour>
  </outline>
</glyph>
<glyph name="Idotaccent" format="1">
  <advance width="189"/>
  <unicode hex="0130"/>
  <outline>
    <contour>
      <point x="107" y="803" type="curve" smooth="yes"/>
      <point x="118" y="803"/>
      <point x="127" y="794"/>
      <point x="127" y="783" type="curve" smooth="yes"/>
      <point x="127" y="772"/>
      <point x="118" y="763"/>
      <point x="107" y="763" type="curve" smooth="yes"/>
      <point x="96" y="763"/>
      <point x="87" y="772"/>
      <point x="87" y="783" type="curve" smooth="yes"/>
      <point x="87" y="794"/>
      <point x="96" y="803"/>
    </contour>
    <contour>
      <point x="118" y="0" type="line"/>
      <point x="96" y="0" type="line"/>
      <point x="96" y="690" type="line"/>
      <point x="118" y="690" type="line"/>
    </contour>
  </outline>
</glyph>
<glyph name="dotlessi" format="1">
  <advance width="164"/>
  <unicode hex="0131"/>
  <outline>
    <contour>
      <point x="93" y="0" type="line"/>
      <point x="71" y="0" type="line"/>
      <point x="71" y="526" type="line"/>
      <point x="93" y="526" type="line"/>
    </contour>
  </outline>
</glyph>
<glyph name="IJ" format="1">
  <advance width="684"/>
  <unicode hex="0132"/>
  <outline>
    <contour>
      <point x="118" y="0" type="line"/>
      <point x="96" y="0" type="line"/>
      <point x="96" y="690" type="line"/>
      <point x="118" y="690" type="line"/>
    </contour>
    <contour>
      <point x="618" y="690" type="line"/>
      <point x="618" y="260" type="line" smooth="yes"/>
      <point x="618" y="229"/>
      <point x="618" y="201"/>
      <point x="616" y="169" type="curve" smooth="yes"/>
      <point x="610" y="77"/>
      <point x="554" y="-14"/>
      <point x="428" y="-14" type="curve" smooth="yes"/>
      <point x="312" y="-14"/>
      <point x="242" y="53"/>
      <point x="237" y="194" type="curve" smooth="yes"/>
      <point x="236" y="224" type="line"/>
      <point x="258" y="224" type="line"/>
      <point x="259" y="194" type="line" smooth="yes"/>
      <point x="264" y="56"/>
      <point x="337" y="7"/>
      <point x="430" y="7" type="curve" smooth="yes"/>
      <point x="528" y="7"/>
      <point x="585" y="68"/>
      <point x="594" y="172" type="curve" smooth="yes"/>
      <point x="596" y="194"/>
      <point x="596" y="221"/>
      <point x="596" y="252" type="curve" smooth="yes"/>
      <point x="596" y="690" type="line"/>
    </contour>
  </outline>
</glyph>
<glyph name="ij" format="1">
  <advance width="320"/>
  <unicode hex="0133"/>
  <outline>
    <contour>
      <point x="82" y="653" type="curve" smooth="yes"/>
      <point x="93" y="653"/>
      <point x="102" y="644"/>
      <point x="102" y="633" type="curve" smooth="yes"/>
      <point x="102" y="622"/>
      <point x="93" y="613"/>
      <point x="82" y="613" type="curve" smooth="yes"/>
      <point x="71" y="613"/>
      <point x="62" y="622"/>
      <point x="62" y="633" type="curve" smooth="yes"/>
      <point x="62" y="644"/>
      <point x="71" y="653"/>
    </contour>
    <contour>
      <point x="239" y="653" type="curve" smooth="yes"/>
      <point x="250" y="653"/>
      <point x="259" y="644"/>
      <point x="259" y="633" type="curve" smooth="yes"/>
      <point x="259" y="622"/>
      <point x="250" y="613"/>
      <point x="239" y="613" type="curve" smooth="yes"/>
      <point x="228" y="613"/>
      <point x="219" y="622"/>
      <point x="219" y="633" type="curve" smooth="yes"/>
      <point x="219" y="644"/>
      <point x="228" y="653"/>
    </contour>
    <contour>
      <point x="93" y="0" type="line"/>
      <point x="71" y="0" type="line"/>
      <point x="71" y="526" type="line"/>
      <point x="93" y="526" type="line"/>
    </contour>
    <contour>
      <point x="250" y="526" type="line"/>
      <point x="250" y="-73" type="line" smooth="yes"/>
      <point x="250" y="-93"/>
      <point x="250" y="-107"/>
      <point x="249" y="-125" type="curve" smooth="yes"/>
      <point x="246" y="-184"/>
      <point x="209" y="-210"/>
      <point x="167" y="-210" type="curve" smooth="yes"/>
      <point x="156" y="-210"/>
      <point x="145" y="-209"/>
      <point x="132" y="-206" type="curve"/>
      <point x="132" y="-187" type="line"/>
      <point x="143" y="-189"/>
      <point x="154" y="-190"/>
      <point x="164" y="-190" type="curve" smooth="yes"/>
      <point x="201" y="-190"/>
      <point x="225" y="-173"/>
      <point x="227" y="-123" type="curve" smooth="yes"/>
      <point x="228" y="-109"/>
      <point x="228" y="-99"/>
      <point x="228" y="-84" type="curve" smooth="yes"/>
      <point x="228" y="526" type="line"/>
    </contour>
  </outline>
</glyph>
<glyph name="Kcommaaccent" format="1">
  <advance width="553"/>
  <unicode hex="0136"/>
  <outline>
    <contour>
      <point x="180" y="355" type="line"/>
      <point x="535" y="0" type="line"/>
      <point x="502" y="0" type="line"/>
      <point x="163" y="341" type="line"/>
      <point x="118" y="299" type="line"/>
      <point x="118" y="0" type="line"/>
      <point x="96" y="0" type="line"/>
      <point x="96" y="690" type="line"/>
      <point x="118" y="690" type="line"/>
      <point x="118" y="324" type="line"/>
      <point x="512" y="690" type="line"/>
      <point x="541" y="690" type="line"/>
    </contour>
    <contour>
      <point x="285" y="-51" type="line"/>
      <point x="310" y="-51" type="line"/>
      <point x="310" y="-56" type="line"/>
      <point x="261" y="-173" type="line"/>
      <point x="242" y="-173" type="line"/>
    </contour>
  </outline>
</glyph>
<glyph name="kcommaaccent" format="1">
  <advance width="458"/>
  <unicode hex="0137"/>
  <outline>
    <contour>
      <point x="437" y="0" type="line"/>
      <point x="404" y="0" type="line"/>
      <point x="138" y="256" type="line"/>
      <point x="93" y="215" type="line"/>
      <point x="93" y="0" type="line"/>
      <point x="71" y="0" type="line"/>
      <point x="71" y="735" type="line"/>
      <point x="93" y="735" type="line"/>
      <point x="93" y="241" type="line"/>
      <point x="403" y="526" type="line"/>
      <point x="436" y="526" type="line"/>
      <point x="156" y="271" type="line"/>
    </contour>
    <contour>
      <point x="217" y="-51" type="line"/>
      <point x="242" y="-51" type="line"/>
      <point x="242" y="-56" type="line"/>
      <point x="193" y="-173" type="line"/>
      <point x="174" y="-173" type="line"/>
    </contour>
  </outline>
</glyph>
<glyph name="Lacute" format="1">
  <advance width="539"/>
  <unicode hex="0139"/>
  <outline>
    <contour>
      <point x="114" y="736" type="line"/>
      <point x="95" y="736" type="line"/>
      <point x="148" y="830" type="line"/>
      <point x="176" y="830" type="line"/>
    </contour>
    <contour>
      <point x="525" y="20" type="line"/>
      <point x="525" y="0" type="line"/>
      <point x="96" y="0" type="line"/>
      <point x="96" y="690" type="line"/>
      <point x="118" y="690" type="line"/>
      <point x="118" y="20" type="line"/>
    </contour>
  </outline>
</glyph>
<glyph name="Lcommaaccent" format="1">
  <advance width="539"/>
  <unicode hex="013B"/>
  <outline>
    <contour>
      <point x="525" y="20" type="line"/>
      <point x="525" y="0" type="line"/>
      <point x="96" y="0" type="line"/>
      <point x="96" y="690" type="line"/>
      <point x="118" y="690" type="line"/>
      <point x="118" y="20" type="line"/>
    </contour>
    <contour>
      <point x="278" y="-51" type="line"/>
      <point x="303" y="-51" type="line"/>
      <point x="303" y="-56" type="line"/>
      <point x="254" y="-173" type="line"/>
      <point x="235" y="-173" type="line"/>
    </contour>
  </outline>
</glyph>
<glyph name="lcommaaccent" format="1">
  <advance width="173"/>
  <unicode hex="013C"/>
  <outline>
    <contour>
      <point x="90" y="735" type="line"/>
      <point x="90" y="120" type="line" smooth="yes"/>
      <point x="90" y="85"/>
      <point x="90" y="65"/>
      <point x="91" y="51" type="curve" smooth="yes"/>
      <point x="93" y="24"/>
      <point x="102" y="15"/>
      <point x="127" y="15" type="curve" smooth="yes"/>
      <point x="133" y="15"/>
      <point x="139" y="15"/>
      <point x="147" y="16" type="curve"/>
      <point x="147" y="-3" type="line"/>
      <point x="137" y="-5"/>
      <point x="128" y="-5"/>
      <point x="118" y="-5" type="curve" smooth="yes"/>
      <point x="91" y="-5"/>
      <point x="71" y="6"/>
      <point x="69" y="46" type="curve" smooth="yes"/>
      <point x="68" y="66"/>
      <point x="68" y="82"/>
      <point x="68" y="120" type="curve" smooth="yes"/>
      <point x="68" y="735" type="line"/>
    </contour>
    <contour>
      <point x="125" y="-56" type="line"/>
      <point x="76" y="-173" type="line"/>
      <point x="57" y="-173" type="line"/>
      <point x="100" y="-51" type="line"/>
      <point x="125" y="-51" type="line"/>
    </contour>
  </outline>
</glyph>
<glyph name="Ldot" format="1">
  <advance width="539"/>
  <unicode hex="013F"/>
  <outline>
    <contour>
      <point x="525" y="20" type="line"/>
      <point x="525" y="0" type="line"/>
      <point x="96" y="0" type="line"/>
      <point x="96" y="690" type="line"/>
      <point x="118" y="690" type="line"/>
      <point x="118" y="20" type="line"/>
    </contour>
    <contour>
      <point x="330" y="380" type="curve" smooth="yes"/>
      <point x="319" y="380"/>
      <point x="310" y="389"/>
      <point x="310" y="400" type="curve" smooth="yes"/>
      <point x="310" y="411"/>
      <point x="319" y="420"/>
      <point x="330" y="420" type="curve" smooth="yes"/>
      <point x="341" y="420"/>
      <point x="350" y="411"/>
      <point x="350" y="400" type="curve" smooth="yes"/>
      <point x="350" y="389"/>
      <point x="341" y="380"/>
    </contour>
  </outline>
</glyph>
<glyph name="ldot" format="1">
  <advance width="180"/>
  <unicode hex="0140"/>
  <outline>
    <contour>
      <point x="90" y="735" type="line"/>
      <point x="90" y="120" type="line" smooth="yes"/>
      <point x="90" y="85"/>
      <point x="90" y="65"/>
      <point x="91" y="51" type="curve" smooth="yes"/>
      <point x="93" y="24"/>
      <point x="102" y="15"/>
      <point x="127" y="15" type="curve" smooth="yes"/>
      <point x="133" y="15"/>
      <point x="139" y="15"/>
      <point x="147" y="16" type="curve"/>
      <point x="147" y="-3" type="line"/>
      <point x="137" y="-5"/>
      <point x="128" y="-5"/>
      <point x="118" y="-5" type="curve" smooth="yes"/>
      <point x="91" y="-5"/>
      <point x="71" y="6"/>
      <point x="69" y="46" type="curve" smooth="yes"/>
      <point x="68" y="66"/>
      <point x="68" y="82"/>
      <point x="68" y="120" type="curve" smooth="yes"/>
      <point x="68" y="735" type="line"/>
    </contour>
    <contour>
      <point x="157" y="420" type="curve" smooth="yes"/>
      <point x="168" y="420"/>
      <point x="177" y="411"/>
      <point x="177" y="400" type="curve" smooth="yes"/>
      <point x="177" y="389"/>
      <point x="168" y="380"/>
      <point x="157" y="380" type="curve" smooth="yes"/>
      <point x="146" y="380"/>
      <point x="137" y="389"/>
      <point x="137" y="400" type="curve" smooth="yes"/>
      <point x="137" y="411"/>
      <point x="146" y="420"/>
    </contour>
  </outline>
</glyph>
<glyph name="Lslash" format="1">
  <advance width="571"/>
  <unicode hex="0141"/>
  <outline>
    <contour>
      <point x="557" y="20" type="line"/>
      <point x="557" y="0" type="line"/>
      <point x="128" y="0" type="line"/>
      <point x="128" y="313" type="line"/>
      <point x="14" y="245" type="line"/>
      <point x="14" y="269" type="line"/>
      <point x="128" y="337" type="line"/>
      <point x="128" y="690" type="line"/>
      <point x="150" y="690" type="line"/>
      <point x="150" y="350" type="line"/>
      <point x="334" y="459" type="line"/>
      <point x="334" y="435" type="line"/>
      <point x="150" y="326" type="line"/>
      <point x="150" y="20" type="line"/>
    </contour>
  </outline>
</glyph>
<glyph name="lslash" format="1">
  <advance width="202"/>
  <unicode hex="0142"/>
  <outline>
    <contour>
      <point x="109" y="317" type="line"/>
      <point x="109" y="120" type="line" smooth="yes"/>
      <point x="109" y="85"/>
      <point x="109" y="65"/>
      <point x="110" y="51" type="curve" smooth="yes"/>
      <point x="112" y="24"/>
      <point x="121" y="15"/>
      <point x="146" y="15" type="curve" smooth="yes"/>
      <point x="152" y="15"/>
      <point x="158" y="15"/>
      <point x="166" y="16" type="curve"/>
      <point x="166" y="-3" type="line"/>
      <point x="156" y="-5"/>
      <point x="147" y="-5"/>
      <point x="137" y="-5" type="curve" smooth="yes"/>
      <point x="110" y="-5"/>
      <point x="90" y="6"/>
      <point x="88" y="46" type="curve" smooth="yes"/>
      <point x="87" y="66"/>
      <point x="87" y="82"/>
      <point x="87" y="120" type="curve" smooth="yes"/>
      <point x="87" y="301" type="line"/>
      <point x="30" y="260" type="line"/>
      <point x="30" y="286" type="line"/>
      <point x="87" y="327" type="line"/>
      <point x="87" y="735" type="line"/>
      <point x="109" y="735" type="line"/>
      <point x="109" y="343" type="line"/>
      <point x="166" y="384" type="line"/>
      <point x="166" y="358" type="line"/>
    </contour>
  </outline>
</glyph>
<glyph name="Nacute" format="1">
  <advance width="637"/>
  <unicode hex="0143"/>
  <outline>
    <contour>
      <point x="338" y="736" type="line"/>
      <point x="319" y="736" type="line"/>
      <point x="372" y="830" type="line"/>
      <point x="400" y="830" type="line"/>
    </contour>
    <contour>
      <point x="566" y="0" type="line"/>
      <point x="532" y="0" type="line"/>
      <point x="116" y="670" type="line"/>
      <point x="118" y="577"/>
      <point x="118" y="468"/>
      <point x="118" y="375" type="curve" smooth="yes"/>
      <point x="118" y="0" type="line"/>
      <point x="96" y="0" type="line"/>
      <point x="96" y="690" type="line"/>
      <point x="129" y="690" type="line"/>
      <point x="546" y="20" type="line"/>
      <point x="544" y="113"/>
      <point x="544" y="222"/>
      <point x="544" y="315" type="curve" smooth="yes"/>
      <point x="544" y="690" type="line"/>
      <point x="566" y="690" type="line"/>
    </contour>
  </outline>
</glyph>
<glyph name="Ncommaaccent" format="1">
  <advance width="637"/>
  <unicode hex="0145"/>
  <outline>
    <contour>
      <point x="566" y="0" type="line"/>
      <point x="532" y="0" type="line"/>
      <point x="116" y="670" type="line"/>
      <point x="118" y="577"/>
      <point x="118" y="468"/>
      <point x="118" y="375" type="curve" smooth="yes"/>
      <point x="118" y="0" type="line"/>
      <point x="96" y="0" type="line"/>
      <point x="96" y="690" type="line"/>
      <point x="129" y="690" type="line"/>
      <point x="546" y="20" type="line"/>
      <point x="544" y="113"/>
      <point x="544" y="222"/>
      <point x="544" y="315" type="curve" smooth="yes"/>
      <point x="544" y="690" type="line"/>
      <point x="566" y="690" type="line"/>
    </contour>
    <contour>
      <point x="344" y="-56" type="line"/>
      <point x="295" y="-173" type="line"/>
      <point x="276" y="-173" type="line"/>
      <point x="319" y="-51" type="line"/>
      <point x="344" y="-51" type="line"/>
    </contour>
  </outline>
</glyph>
<glyph name="Ncaron" format="1">
  <advance width="637"/>
  <unicode hex="0147"/>
  <outline>
    <contour>
      <point x="320" y="736" type="line"/>
      <point x="255" y="830" type="line"/>
      <point x="279" y="830" type="line"/>
      <point x="332" y="750" type="line"/>
      <point x="385" y="830" type="line"/>
      <point x="408" y="830" type="line"/>
      <point x="343" y="736" type="line"/>
    </contour>
    <contour>
      <point x="566" y="690" type="line"/>
      <point x="566" y="0" type="line"/>
      <point x="532" y="0" type="line"/>
      <point x="116" y="670" type="line"/>
      <point x="118" y="577"/>
      <point x="118" y="468"/>
      <point x="118" y="375" type="curve" smooth="yes"/>
      <point x="118" y="0" type="line"/>
      <point x="96" y="0" type="line"/>
      <point x="96" y="690" type="line"/>
      <point x="129" y="690" type="line"/>
      <point x="546" y="20" type="line"/>
      <point x="544" y="113"/>
      <point x="544" y="222"/>
      <point x="544" y="315" type="curve" smooth="yes"/>
      <point x="544" y="690" type="line"/>
    </contour>
  </outline>
</glyph>
<glyph name="Eng" format="1">
  <advance width="637"/>
  <unicode hex="014A"/>
  <outline>
    <contour>
      <point x="566" y="690" type="line"/>
      <point x="566" y="-67" type="line" smooth="yes"/>
      <point x="566" y="-85"/>
      <point x="566" y="-94"/>
      <point x="565" y="-108" type="curve" smooth="yes"/>
      <point x="559" y="-189"/>
      <point x="515" y="-220"/>
      <point x="428" y="-223" type="curve"/>
      <point x="428" y="-202" type="line"/>
      <point x="505" y="-202"/>
      <point x="544" y="-175"/>
      <point x="544" y="-83" type="curve" smooth="yes"/>
      <point x="544" y="-19" type="line"/>
      <point x="116" y="670" type="line"/>
      <point x="118" y="577"/>
      <point x="118" y="468"/>
      <point x="118" y="375" type="curve" smooth="yes"/>
      <point x="118" y="0" type="line"/>
      <point x="96" y="0" type="line"/>
      <point x="96" y="690" type="line"/>
      <point x="129" y="690" type="line"/>
      <point x="546" y="20" type="line"/>
      <point x="544" y="113"/>
      <point x="544" y="222"/>
      <point x="544" y="315" type="curve" smooth="yes"/>
      <point x="544" y="690" type="line"/>
    </contour>
  </outline>
</glyph>
<glyph name="Omacron" format="1">
  <advance width="713"/>
  <unicode hex="014C"/>
  <outline>
    <contour>
      <point x="433" y="772" type="line"/>
      <point x="293" y="772" type="line"/>
      <point x="293" y="793" type="line"/>
      <point x="433" y="793" type="line"/>
    </contour>
    <contour>
      <point x="363" y="704" type="curve" smooth="yes"/>
      <point x="551" y="704"/>
      <point x="675" y="552"/>
      <point x="675" y="345" type="curve" smooth="yes"/>
      <point x="675" y="139"/>
      <point x="551" y="-14"/>
      <point x="363" y="-14" type="curve" smooth="yes"/>
      <point x="175" y="-14"/>
      <point x="51" y="139"/>
      <point x="51" y="345" type="curve" smooth="yes"/>
      <point x="51" y="552"/>
      <point x="175" y="704"/>
    </contour>
    <contour>
      <point x="363" y="7" type="curve" smooth="yes"/>
      <point x="517" y="7"/>
      <point x="651" y="129"/>
      <point x="651" y="345" type="curve" smooth="yes"/>
      <point x="651" y="562"/>
      <point x="517" y="683"/>
      <point x="363" y="683" type="curve" smooth="yes"/>
      <point x="209" y="683"/>
      <point x="75" y="562"/>
      <point x="75" y="345" type="curve" smooth="yes"/>
      <point x="75" y="129"/>
      <point x="209" y="7"/>
    </contour>
  </outline>
</glyph>
<glyph name="OE" format="1">
  <advance width="1112"/>
  <unicode hex="0152"/>
  <outline>
    <contour>
      <point x="1080" y="20" type="line"/>
      <point x="1080" y="0" type="line"/>
      <point x="651" y="0" type="line"/>
      <point x="651" y="206" type="line"/>
      <point x="620" y="128" type="line"/>
      <point x="554" y="27"/>
      <point x="474" y="-14"/>
      <point x="363" y="-14" type="curve" smooth="yes"/>
      <point x="175" y="-14"/>
      <point x="51" y="139"/>
      <point x="51" y="345" type="curve" smooth="yes"/>
      <point x="51" y="552"/>
      <point x="175" y="704"/>
      <point x="363" y="704" type="curve" smooth="yes"/>
      <point x="478" y="704"/>
      <point x="546" y="667"/>
      <point x="620" y="566" type="curve"/>
      <point x="651" y="484" type="line"/>
      <point x="651" y="690" type="line"/>
      <point x="1070" y="690" type="line"/>
      <point x="1070" y="670" type="line"/>
      <point x="673" y="670" type="line"/>
      <point x="673" y="355" type="line"/>
      <point x="1050" y="355" type="line"/>
      <point x="1050" y="335" type="line"/>
      <point x="673" y="335" type="line"/>
      <point x="673" y="20" type="line"/>
    </contour>
    <contour>
      <point x="363" y="7" type="curve" smooth="yes"/>
      <point x="527" y="7"/>
      <point x="651" y="129"/>
      <point x="651" y="345" type="curve" smooth="yes"/>
      <point x="651" y="562"/>
      <point x="527" y="683"/>
      <point x="363" y="683" type="curve" smooth="yes"/>
      <point x="209" y="683"/>
      <point x="75" y="562"/>
      <point x="75" y="345" type="curve" smooth="yes"/>
      <point x="75" y="129"/>
      <point x="209" y="7"/>
    </contour>
  </outline>
</glyph>
<glyph name="oe" format="1">
  <advance width="991"/>
  <unicode hex="0153"/>
  <outline>
    <contour>
      <point x="955" y="277" type="curve" smooth="yes"/>
      <point x="955" y="273"/>
      <point x="955" y="269"/>
      <point x="954" y="258" type="curve"/>
      <point x="524" y="258" type="line"/>
      <point x="528" y="76"/>
      <point x="631" y="7"/>
      <point x="728" y="7" type="curve" smooth="yes"/>
      <point x="811" y="7"/>
      <point x="894" y="54"/>
      <point x="925" y="161" type="curve"/>
      <point x="947" y="161" type="line"/>
      <point x="915" y="45"/>
      <point x="826" y="-14"/>
      <point x="726" y="-14" type="curve" smooth="yes"/>
      <point x="629" y="-14"/>
      <point x="538" y="46"/>
      <point x="510" y="173" type="curve"/>
      <point x="481" y="55"/>
      <point x="392" y="-14"/>
      <point x="277" y="-14" type="curve" smooth="yes"/>
      <point x="129" y="-14"/>
      <point x="30" y="96"/>
      <point x="30" y="262" type="curve" smooth="yes"/>
      <point x="30" y="429"/>
      <point x="129" y="540"/>
      <point x="277" y="540" type="curve" smooth="yes"/>
      <point x="393" y="540"/>
      <point x="484" y="472"/>
      <point x="513" y="352" type="curve"/>
      <point x="539" y="473"/>
      <point x="633" y="540"/>
      <point x="735" y="540" type="curve" smooth="yes"/>
      <point x="886" y="540"/>
      <point x="955" y="408"/>
    </contour>
    <contour>
      <point x="277" y="7" type="curve" smooth="yes"/>
      <point x="391" y="7"/>
      <point x="500" y="86"/>
      <point x="500" y="262" type="curve" smooth="yes"/>
      <point x="500" y="439"/>
      <point x="391" y="519"/>
      <point x="277" y="519" type="curve" smooth="yes"/>
      <point x="163" y="519"/>
      <point x="54" y="439"/>
      <point x="54" y="262" type="curve" smooth="yes"/>
      <point x="54" y="86"/>
      <point x="163" y="7"/>
    </contour>
    <contour>
      <point x="524" y="279" type="curve"/>
      <point x="932" y="279" type="line"/>
      <point x="928" y="461"/>
      <point x="823" y="519"/>
      <point x="733" y="519" type="curve" smooth="yes"/>
      <point x="637" y="519"/>
      <point x="528" y="444"/>
    </contour>
  </outline>
</glyph>
<glyph name="Racute" format="1">
  <advance width="571"/>
  <unicode hex="0154"/>
  <outline>
    <contour>
      <point x="310" y="736" type="line"/>
      <point x="291" y="736" type="line"/>
      <point x="344" y="830" type="line"/>
      <point x="372" y="830" type="line"/>
    </contour>
    <contour>
      <point x="493" y="189" type="curve" smooth="yes"/>
      <point x="505" y="86"/>
      <point x="520" y="43"/>
      <point x="539" y="0" type="curve"/>
      <point x="513" y="0" type="line"/>
      <point x="498" y="44"/>
      <point x="482" y="84"/>
      <point x="470" y="184" type="curve" smooth="yes"/>
      <point x="461" y="261"/>
      <point x="426" y="333"/>
      <point x="342" y="337" type="curve" smooth="yes"/>
      <point x="320" y="338"/>
      <point x="295" y="338"/>
      <point x="279" y="338" type="curve" smooth="yes"/>
      <point x="118" y="338" type="line"/>
      <point x="118" y="0" type="line"/>
      <point x="96" y="0" type="line"/>
      <point x="96" y="690" type="line"/>
      <point x="263" y="690" type="line" smooth="yes"/>
      <point x="298" y="690"/>
      <point x="330" y="689"/>
      <point x="362" y="685" type="curve" smooth="yes"/>
      <point x="469" y="672"/>
      <point x="529" y="615"/>
      <point x="529" y="516" type="curve" smooth="yes"/>
      <point x="529" y="428"/>
      <point x="475" y="364"/>
      <point x="385" y="348" type="curve"/>
      <point x="449" y="330"/>
      <point x="484" y="269"/>
    </contour>
    <contour>
      <point x="118" y="359" type="line"/>
      <point x="279" y="359" type="line" smooth="yes"/>
      <point x="305" y="359"/>
      <point x="322" y="359"/>
      <point x="354" y="361" type="curve" smooth="yes"/>
      <point x="448" y="368"/>
      <point x="505" y="429"/>
      <point x="505" y="515" type="curve" smooth="yes"/>
      <point x="505" y="604"/>
      <point x="452" y="652"/>
      <point x="358" y="664" type="curve" smooth="yes"/>
      <point x="326" y="668"/>
      <point x="299" y="669"/>
      <point x="263" y="669" type="curve" smooth="yes"/>
      <point x="118" y="669" type="line"/>
    </contour>
  </outline>
</glyph>
<glyph name="rcaron" format="1">
  <advance width="257"/>
  <unicode hex="0159"/>
  <outline>
    <contour>
      <point x="117" y="580" type="line"/>
      <point x="52" y="690" type="line"/>
      <point x="76" y="690" type="line"/>
      <point x="129" y="596" type="line"/>
      <point x="182" y="690" type="line"/>
      <point x="205" y="690" type="line"/>
      <point x="140" y="580" type="line"/>
    </contour>
    <contour>
      <point x="233" y="540" type="curve" smooth="yes"/>
      <point x="241" y="540"/>
      <point x="249" y="540"/>
      <point x="256" y="539" type="curve"/>
      <point x="256" y="519" type="line"/>
      <point x="251" y="519"/>
      <point x="246" y="520"/>
      <point x="241" y="520" type="curve" smooth="yes"/>
      <point x="153" y="520"/>
      <point x="93" y="453"/>
      <point x="93" y="288" type="curve" smooth="yes"/>
      <point x="93" y="0" type="line"/>
      <point x="71" y="0" type="line"/>
      <point x="71" y="526" type="line"/>
      <point x="93" y="526" type="line"/>
      <point x="93" y="413" type="line"/>
      <point x="114" y="473" type="line"/>
      <point x="142" y="515"/>
      <point x="184" y="540"/>
    </contour>
  </outline>
</glyph>
